<svg xmlns="http://www.w3.org/2000/svg" id="Layer_1" viewBox="0 0 300 40">
  <path id="innerS" d="M186.9 27.5c.5.4.9.5 1.3.5.3 0 1-.3 1.2-.3s.8.7 1.1.7c.2 0 .3-.2.5-.2.5 0 3 1 3.6 1 .2 0 .5-.2.6-.2v-2.1c0-.9-.5-2.4-1.4-4.7l-6.9 5.3z" class="st0"/>
  <path id="innerD" d="M49.5 15.3l-.7-1.2c-1.2-1.4-2.5-1.8-4.9-3.1.2 0-2.1.6-2.1 1.2-.1.1-.1.4-.1.7-.3.6-.5 1.5-.8 2.3l-.1.5c-.3.4-.6 1.6-1.3 3.7l-.1.2-.3 1c-.1.4-.4 1.2-.8 2.3-.4 1.5-1 2-2 5.8l-.1.3-.1.7c0 .1-.2.5-.2.6 0 .3-.1.8-.1 1.3 3.9-.9 1 .2 7.2-2.5 4.3-2.3 6.6-4.2 7.6-7.6.1-.3.2-.6.2-.8.1-.5.1-.9.1-1.3-.4-.3-.4-1.3-1.4-4.1z" class="st0"/>
  <path id="innerA" d="M67.9 16.6c-.3 0-.8.4-1.6 1-1.2.7-2.6 2.3-6.5 6.9-.4.6-3.3 4.7-3.3 5.6 0 .3.1.4.4.4.8 0 2.2-1.9 4.4-3.6.4-.6.9-1 3.6-3.6 0-.5 1.7-3.2 2.6-3.8.6-1.5 1-2.3 1-2.3-.1-.4-.3-.7-.6-.6z" class="st0"/>
  <path id="innerA2" d="M177.5 16.6c-.3 0-.8.4-1.6 1-1.2.7-2.6 2.3-6.5 6.9-.4.6-3.3 4.7-3.3 5.6 0 .3.1.4.4.4.8 0 2.2-1.9 4.4-3.6.4-.6.9-1 3.6-3.6 0-.5 1.7-3.2 2.6-3.8.6-1.5 1-2.3 1-2.3-.1-.4-.2-.7-.6-.6z" class="st0"/>
  <path id="innerO" d="M264.3 17.8c0-.6-.4-1.6-1-1.6-.5 0-1.5.7-3.2 2.2-4 3.5-5.5 5.8-7.3 8.1-.2.2-1.1 2.8-1.1 3.1 0 .6.8 1.4 1.3 1.4 1.9 0 4-.8 6.3-2.4.6-.2 1.2-.4 1.9-.8.3-.3.8-1.2 1.6-2.8.2-.4.8-3.6 1.3-3.8 0-1.2.2-1.8.6-1.9v-.6c-.2 0-.4-.2-.6-.4.1-.1.2-.2.2-.5z" class="st0"/>
  <path id="knockout" d="M0 0v40h300V0H0zm50.2 28c-1.8 2.2-4.5 3.3-6.9 5-.5 0-.9.5-3.2 1.4l-.2.1c-.8.1-1.4.4-2.9.9 0 0-1.6-.2-1.6.1h-.5c-.3.1-.7.1-1.2.1 0 0-.1-.4-.7-.6h-.2l-.2-.1h-.3c0-.1-.1-.1-.1-.1-.1 0-.2.1-.2.1s-.2-.1-.3-.3v.1h-.1c-.1-.1-.3-.3-.3-.5h-.1v.1h-.1c0-.1-.2-.2-.2-.2 0-.1-.1 0-.3 0l-.1.1-.5-.1V34h-.2c-.1-.1-.1-.4-.1-.7.1 0 .1-.2.2-.3l.1-.3c.3-.5.8-1.1 1.2-1.8l.5-2.6s0-.2.2-.7l.2-.8c.7-2.2 1-2.9 2.8-9l.2-.1.6-1.4c-.6.8 1.3-3.5 1.4-3.5l.2-.4c.1-.5.6-1.3.8-2.2.6-3 1.6-2.4 1.9-2.6 0-.1 1.8-1.4 2.8-1.2.1 0 .4.1.6.2.5 0 .8 0 1.6-.2 0 0 .1 0 .2.1 0 0 .1-.1.2-.1 0 0 .5.5 2.2 1.3.9.4.5-.2 4 3.2.4.6 1.2.8 2 3.2.1 1.1 0-.9.9 2.9 0 .6.4 1.9.1 3.8-.2.7-.4 1.4-.9 2.2l.1.1c-.1.6-1.1 2.9-3.6 4.9zm20.5 1.2l-.7 4.2v.7c0 .4 0 .8.1 1.2-.2-.3-.5-.7-1.1-1.2-1.1-1.1-1.2-1.7-1.2-3.4 0-1.5.2-2.4.4-3-.2-.2-.3-.3-.5-.3-.6 0-1.2 1-4.4 3.8-.4 1.1-1.3 1.6-4.7 3.4-.7.8-1.3 1.2-2.1 1.2-.1 0-1.6-.7-2-2-.6-1.9-1.9-2.4-1.9-4.3 0-.6.2-1.4.5-2.7.4-.2.9-.5 1.4-1.1.2-1.3.3-1.2 3.1-5.6 1.2-.9.9-1.7 2.8-3.4 2.8-3.7 4.9-6.2 6.7-6.2.6 0 1.2.4 2.1 1.3 1.2 0 .7.7 3.3 1.4 0 0 2.2.9 2.2 2.2 0 .2-.4.9-.4 1.1 0 .4-.1.9-.2 1.6-.8.8-1.5 4.4-2.6 6.9-.2.9-.5 2.2-.8 4.2zm24.8-4c-.4 1.3-.6 2.4-1.7 4.9-.1.8-1.1 3.4-1.9 3.3l-.2.1c-.1.1-1 .3-1.7.3-.8.6-1.5 1.2-2.4 1-.3-.2-.6-.1-1.4-1.5-1.4-2.3-2.5-4-3.4-7.4l-.3-.4-.8-2.9c-.1-.3-.3-2-1.1-2.3-.2.5-.6 1.3-1 2.4-.2.4-.8 1.5-1.6 3.6v.2c-.3.5-.9 1.6-2.1 5-.5.4-.4 2.1-2.4 3-.1 0-.3.4-.8.3l-.1-.1-.1-.2c-.3-.2-.4-.6-.3-1.3.2 0-.1-.8.6-2.4.8-1.5.8-2 1.3-3.3l.5-1.2c.7-2 1.7-4.9 3.2-8.9.2-.6 1.6-5.5 2.8-5.3h.5c.9.2.9.4 1.3 1l.7 1.2c.2 1 .1.8 1.7 5.5.1 1.2.1-.4 1.5 5.6.2.4.6 1 1 3.3l.3.5c.1.2.1.4.2.7.3-.2.2-.1 1.4-.5l.4-.2c.3-.7.1-.7 1-2.6.4-.8 2.4-6.6 3-8.7.1-.3.9-2.8 3.2-7.8.2-1.5 1.5-1.6 2.4-1.7.4.1.4.4.4.7 0 0 0 .2-.1.4l-.1.3c-.1.2-.3.6-.5 1.2v.1s-.1.1-.1.2.1.2.1.3c0 .2-.1.5-.2 1-.6 1.9 0 2.1-2.2 8.3 0 .1.1.2.1.3-.2 1-.8 2.5-.9 3.3l-.2.7zm28.1-16.3l-.1.3c-.1.2-.3.6-.5 1.2v.1s-.1.1-.1.2.1.2.1.3c0 .2-.1.5-.2 1-.6 1.9 0 2.1-2.2 8.3 0 .1.1.2.1.3-.2 1-.8 2.5-.9 3.3l-.1.6c-.4 1.3-.6 2.4-1.7 4.9-.1.8-1.1 3.4-1.9 3.3l-.3.1c-.1.1-1 .3-1.7.3-.8.6-1.5 1.2-2.4 1-.3-.2-.6-.1-1.4-1.5-1.4-2.3-2.5-4-3.4-7.4l-.2-.4-.8-2.9c-.1-.3-.3-2-1.1-2.3-.2.5-.6 1.3-1 2.4-.2.4-.8 1.5-1.6 3.6v.2c-.3.5-.9 1.6-2.1 5-.5.4-.4 2.1-2.4 3-.1 0-.3.4-.8.3l-.1-.1-.1-.2c-.3-.2-.4-.6-.3-1.3.2 0-.1-.8.6-2.4.8-1.5.8-2 1.3-3.3l.5-1.2c.7-2 1.7-4.9 3.2-8.9.2-.6 1.6-5.5 2.8-5.3h.5c.9.2.9.4 1.3 1l.7 1.2c.2 1 .1.8 1.7 5.5.1 1.2.1-.4 1.5 5.6.2.4.6 1 1 3.3l.3.5c.1.2.1.4.2.7.3-.2.2-.1 1.4-.5l.4-.2c.3-.7.1-.7 1-2.6.4-.8 2.4-6.6 3-8.7.1-.3.9-2.8 3.2-7.8.2-1.4 1.5-1.6 2.4-1.6.4.1.4.4.4.7-.2 0-.2.1-.2.4zm21.4 1.7l-8.5 8.8-.3.5-1 1.2-.4.3-.6.7v.1l-.2.1-.4.4-.7.8v.2l-1.2 3.5-.3.3-.9 3.1v.4l-.8 2.2-.2.3-.1.6-.3.6-.4.7v.3l-.3.3-.6.3-1.8.2-1.1-.6-.4-1.3v-1.5l.6-3.3.6-2.3.6-1.5 1.3-3.3.4-1.3-1.7-3.3-.8-2.1-.7-1.5-.2-1.4.2-2.2.5-.4 1-.7.4.3.1.3.3-.3 1 .6.5.7 1.2 2.2.6 1.3 1.1 2.8.3 1.3.7-.6 1-1.3 1.2-1.2.2-.1.4-.5 3.2-2.7 3.6-2.9 1.5-1 1.6-1 .9-.2.6-.3.5-.3.7-.2v.4l-.9 1-.4.6-1.2 1.3-.4.6zm16.1 2.9l-1.5 1.5-.8.8-1.2 1.5-.7 1.6-1 1.7-.4.4-.5 1.4-.5.8-.6 1.3-.6 1.7-.5 1.4-.3 1.8v1.3l.2 1 .6.8.9.5 1 .1h1.3l3-.5.1.2h.2l-.1.2h.3l-.1.1.1.2-.1.2h.2l.1.3h-.2l-.4.2-1.5.7h-.1l-1.5.6-3.6.3-1.8-.4-1.5-.7-1.2-.9-.8-1-.8-1.8-.2-1.4.1-1.7.2-.5v-.5l.1-.2.1-1 .3-.6.4-1.3 1.5-3.3.1-.1.4-.6v-.2l.5-.7c.1-.1.2-.2.2-.3.5-1.2 1.1-1.8 1.7-2.5l.5-.7.4-.5v-.1l1.6-1.9.3-.1v-.3l1.4-1.7.6-.4.3-.3 1.2-1.4h.2l.1-.2.8-.5.4-.4.3-.1v.1c.1-.1.2-.1.2-.1l1.2-.5 2.5-.4h.5l.6.2.6.3.2.2s0 .1.1.1c0 0 .1.1.2.1l.5.2.3.1.3.3.3.4.2.4.4.7-.1.1.1.4.3 2-.4-.2v.8h-.1v.5l-.5-.5v.3l-.9-.5h-.4c-.2.1-.5.1-.5.1h-.3l-.3-.2s-.2-.2-.4-.5l-.1-.2-.1-.1h-.1l-.2.2v.1h-.4l-.1.1c-.2.1-.5.2-1 .4l-.7.5-1.1.8zm17.6 20.6c-1.1-1.1-1.2-1.7-1.2-3.4 0-1.5.2-2.4.4-3-.2-.2-.3-.3-.5-.3-.6 0-1.2 1-4.4 3.8-.4 1.1-1.3 1.6-4.7 3.4-.7.8-1.3 1.2-2.1 1.2-.1 0-1.6-.7-2-2-.6-1.9-1.9-2.4-1.9-4.3 0-.6.2-1.4.5-2.7.4-.2.9-.5 1.4-1.1.2-1.3.3-1.2 3.1-5.6 1.2-.9.9-1.7 2.8-3.4 2.8-3.7 4.9-6.2 6.7-6.2.6 0 1.2.4 2.1 1.3 1.2 0 .7.7 3.3 1.4-.1 0 2.2.9 2.2 2.2 0 .2-.4.9-.4 1.1 0 .4-.1.9-.2 1.6-.8.8-1.5 4.4-2.6 6.9-.4.8-.7 2.2-1 4.1l-.7 4.2c-.1.3-.1.5-.1.8 0 .4 0 .8.1 1.2.1-.2-.2-.6-.8-1.2zm18-12.6c0 .1.3 1.5.8 4.1l.8 4.1c0 .3-.3 1.1-.8 2.4-1.1 2.9-1.5 2.4-1.8 2.4-1.4 0-2.8.1-5-.6-.8-1.3-3-1-4.1-4.4-.2-.5-.5-.7-1.1-.7s-4 3.4-5.6 3.7c.2-.6.5-1.3.9-2.3.9-1.4 6.1-4 6.5-4.1 2.5-2 5.2-3.7 6.4-6 0-.7.1-1.7.1-3.1 0-.4.6-1.9 1.7-4.4.6-1.4 1-2.6 1-3.6.6-.5 1.5-1.2 2.7-2.2-.2-.2 3.6 2.9 4.8 2.9h.3v.7c0 1.5-.7 2.8-2 4.1-1.2.9-5.6 3.5-5.6 7zm12.9 2.4c0 .3-.2.9-.7 1.6l-.3.9c0 .1 0 .4-.1.6-.4.7-1.3 3.2-1.6 3.4-.2.5-.4.9-.4 1.3v1.1c-.2.2-.7 2.5-1.9 3.8-.1-1-.2-1.9-.2-2.9 0-.3.1-.8.2-1.4-.1-.1-.2-.2-.3-.5 0-.4.2-1.2.2-1.6 0-.1-.1-.2-.1-.4 0-.3.2-3.7 1.7-7 0-.3.3-1.3 1.1-3 0-.4-1.1-1.4-3.3-4 .5-.2.5-.4 1.1-.4.8 0 2 0 3.7.2.3-.3.4-.5 1.1-2 0-.8.5-1.2 1.6-4.8.6-.6 1-2.4 1.4-4.2h.4c.2 0 1.3-1.1 1.6-.8.2 0 1.1.6 1.3.6.3 0 .8 1.1 1 1.4l-.3.7c0 .3-.2.7-.4 1.1-1.3 2.4-1.8 4.6-3 7.2 0 0 .1.1.2.4.6.1 1.2.1 1.8.1 2 0 2.9-.2 5.6-1h.3c0 .1-1.5.8-1.7 1 0 .1.2.2.4.2h.6c-.2.5-2.4 1.2-2.6 1.4-.4 0-.2.7-1.8 1.1-.2.6-2 .4-4.8 2-.3.9-.5 1.5-1.8 3.9zm16.1-3.3c0 2-.7 2.4-2.4 5-.9 3.4-.2 2.3-3.8 9.3-1.5 0-2.7-3-3-5-.1-.6-.8-.5-.8-1.9 0-1.3.9-1 1.3-3 .7-2.2.6-2.1 2.9-4.4.3-.3.4-.6.5-1.1 1-.7 1.7-1 2-1 .2 0 .9.3 3.3 1.7v.4zm.7-13.6c0-1 .6-3.4 1.2-3.4s3.4 2.9 3.5 3.4c0 .4.7 1.4.7 1.8 0 .2-.7 1.2-.7 1.5-1.2 1.1-2 1.6-2.4 1.6-.9 0-2.3-3.6-2.3-4.9zm12.7 3.9l-1.8 5.2-1.7 4.5-.4 1.5-.4.8-.2.9-.4.8-.2.9-.5 3-.4 1.5-.3 1.7-.7 1.8-.7.7-.8.5-.6-.3-.2-2.3.1-.3-.1-.4v-1.5l.1-1.2-.1-.3-.1-2.5.1-1.8.3-1.4.4-2 .4-1.1.7-3.1.3-.6.6-1.9.9-2.7v-.7l.5-.7.5-1.1.7-1.1v-.4l1.1-1.8.3-.2.5-.9 1-.9 1.1-.4h.4l.7.3.4.6.2 1.2-.2 2.5-.7 1.5-.8 1.7zm6.5 9.6l-.4 1.5-.4.8-.2.9-.4.8-.2.9-.5 3-.4 1.5-.3 1.7-.7 1.8-.7.7-.8.5-.6-.3-.2-2.3.1-.3-.1-.4v-1.5l.1-1.2-.1-.3-.1-2.5.1-1.8.3-1.4.4-2 .4-1.1.7-3.1.3-.6.6-1.9.9-2.7v-.7l.5-.7.5-1.1.7-1.1v-.3l1.1-1.8.3-.2.5-.9 1-.9 1.1-.4h.4l.7.3.4.6.2 1.2-.2 2.5-.7 1.5-.7 1.5-1.8 5.2-1.8 4.6zm23.6 4c-.9 3.9-3 5.6-10.3 9.3-.1.1-.6.1-1.4.2-1 1.1-2.3 1.7-4 1.7-.9 0-1.4-.1-1.6-.3l-1.9-1.6h-.2c-2.1 0-2-3.3-2.2-3.6.2-.3.3-.5.3-.6 0-.2-.3-.5-.3-.7 0-.6.3-2.2.3-2.8.3-.1 1.3-.4 1.3-1.1 0-.2-.3-1.1-.3-1.3 1.3-1.1 1.3-1.6 3.1-4.4.8-1.3 7.3-7.7 8-7.7.2 0 .7.2.9.2.3 0 .7-.5 1.4-1.4.2 0 .5.4 1.1.8l1.5.4c.4.2 1 .5 1.8.8 3.3 0 3.7 4.1 3.7 7.4-.1 1.8-.4 3.3-1.2 4.7z" class="st0"/>
</svg>
