<svg version="1.1" id="Layer_1" xmlns="http://www.w3.org/2000/svg" xmlns:xlink="http://www.w3.org/1999/xlink" x="0px" y="0px"
	 viewBox="0 0 877.2 257.3" style="enable-background:new 0 0 877.2 257.3;" xml:space="preserve">
<style type="text/css">
	.st0{fill:#FFFFFF;}
</style>
<g>
	<path class="st0" d="M139.3,149.7v-8.4h-31.9v30.9c-0.2-3.6-1.5-6.4-4-8.4c-1.7-1.4-4.3-2.5-7.8-3.3l-7.9-1.9
		c-3.1-0.7-5.1-1.3-6-1.9c-0.9-0.5-1.5-1.1-1.8-1.8l0,0c0,0,0,0,0,0l0,0c-0.2-0.5-0.4-1.1-0.4-1.8c0-1.4,0.5-2.6,1.5-3.5l0,0
		c0,0,0,0,0.1-0.1l0,0c0,0,0,0,0,0c0.2-0.2,0.4-0.4,0.7-0.6c1.5-1,3.5-1.5,6-1.5c2.2,0,4.1,0.4,5.6,1.1c2.3,1.1,3.5,3.1,3.6,5.8h9.1
		c-0.2-4.8-1.9-8.5-5.3-11c-3.4-2.5-7.5-3.8-12.3-3.8c-5.8,0-10.1,1.3-13.1,4c-1.8,1.6-3.1,3.5-3.8,5.7h0c-0.2,0.5-0.3,0.9-0.4,1.4
		h0c-1.1,5.2-4.5,8.7-10.1,8.7c-9,0-12.3-7.6-12.3-15.2c0-7.9,3.4-15.6,12.3-15.6c5,0,9.3,3.4,9.9,7.9h9.7
		c-1.2-10.5-9.6-16.3-19.6-16.3c-13.4,0-21.5,9.5-22.3,22.1v-21h-10v28.2c0,6.7-2.3,9.9-9.4,9.9c-8.1,0-9.3-4.9-9.3-9.9v-28.2H0
		v28.2c0,12.3,7.1,18.3,19.3,18.3c12.1,0,19.4-6,19.4-18.3v-3.5c0.7,12.2,8.9,21.8,22.3,21.8c5.5,0,10.2-1.8,13.7-4.9
		c0.2,0.2,0.4,0.3,0.7,0.5c1.8,1.2,5.1,2.4,9.9,3.5l4.9,1.1c2.9,0.6,4.9,1.3,6.3,2.1c1.3,0.8,2,2,2,3.5c0,2.6-1.3,4.3-4,5.2
		c-1.4,0.5-3.3,0.7-5.5,0.7c-3.8,0-6.5-0.9-8-2.8c-0.9-1-1.4-2.6-1.7-4.6h-9c0,4.7,1.7,8.4,5.1,11.1c3.4,2.7,8.1,4,14,4
		c5.8,0,10.3-1.4,13.5-4.1c2.9-2.5,4.5-5.6,4.7-9.3v12.7h10v-18.8h19v-7.8h-19v-10.5H139.3z"/>
	<path class="st0" d="M531.3,61.8c-0.5,0-1,0.1-1.5,0.3l-26-12.5c2.7-1.2,4.9-3.6,5.7-6.8c0.5-1.7,0.5-3.5,0.1-5.2
		c1.8-0.4,2.9-1.1,3.1-2.2c0.5-2.4-4.2-5.6-10.6-7c-6.4-1.5-12-0.7-12.5,1.8c-0.2,1,0.5,2.1,1.8,3.2c-0.9,1.1-1.5,2.3-1.9,3.8
		c-1.3,4.8,0.8,9.7,4.9,12l-28.9,9.5l0.4,2.1c0.3,0.6,0.5,1.4,0.6,2.1c0,0.3,0,0.6,0,0.9l0.3,2.1l21.5-2.2l-11.9,40.9l12,2.1
		l9.5-20.8l8.2,21.9l12.1-0.7l-7.9-41l16.4,3.9c0.9,1.5,2.5,2.5,4.4,2.5c2.9,0,5.2-2.4,5.2-5.3S534.2,61.8,531.3,61.8z"/>
	<path class="st0" d="M214.8,67.9l0.5-1.2l-29.5-11.5c2.1-1.3,3.7-3.6,4.2-6.2c0.2,0,0.5,0,0.7-0.2c0.1,0,0.1-0.1,0.2-0.2l0.3-0.4
		c0.2-0.2,0.2-0.5,0.2-0.7l0.3-0.3c0.1-0.3,0.2-0.6,0.1-0.9l-0.1-0.2c-0.1-0.2-0.3-0.4-0.5-0.5l-0.1,0l0-0.2
		c-0.1-0.1-0.2-0.3-0.3-0.4c0-0.1,0-0.2,0-0.3c-0.1-0.2-0.1-0.2-0.2-0.4c0,0,0,0,0,0c0-0.3,0.1-1.2-0.5-2c-0.5-0.3-0.8-0.5-1.1-0.6
		c0-0.2-0.1-0.5-0.2-0.7c0-0.1-0.1-0.1-0.1-0.1c0,0,0-0.1,0-0.3c0,0,0-0.3-0.2-0.5c-0.2-0.2-0.2-0.2-0.6-0.4
		c-0.1-0.2-0.2-0.5-0.5-0.8c-0.6-0.2-0.6-0.2-0.7-0.3c0,0-0.2-0.1-0.5-0.1c0,0,0,0-0.1,0c-0.2-0.1-0.3-0.2-0.5-0.3
		c0,0-0.2-0.2-0.5-0.2c-0.2,0.1-0.2,0.1-0.3,0.1c-0.2-0.2-0.2-0.2-0.5-0.4c0,0-0.1-0.1-0.2-0.1c0,0,0-0.1-0.1-0.1
		c0,0-0.2-0.3-0.6-0.5c-0.4,0.1-0.4,0.1-0.6,0.2c0,0-0.5,0.1-1,0.3c-0.1-0.1-0.1-0.2-0.2-0.3c-0.3-0.2-0.3-0.2-0.6-0.5
		c0,0-0.3-0.3-0.7-0.3c-0.4,0.2-0.4,0.2-0.7,0.4c0,0-0.4,0.4-0.8,0.9c-0.1,0-0.2,0-0.3-0.1c-0.2,0.1-0.2,0.1-0.5,0.2
		c-0.1-0.1-0.2-0.2-0.3-0.2c-0.6,0.1-1.3,0.4-1.8,0.9c0,0,0,0-0.1,0c0,0-0.9-0.2-2,0.4c-0.1,0.5-0.2,0.8-0.2,1.1c0,0,0,0.1-0.1,0.1
		l0,0.2c0,0,0,0.1,0,0.1c0,0.2,0,0.3,0.1,0.5v0v0.1c-0.1,0-0.1,0.1-0.2,0.1c0,0,0,0-0.1,0.1c0,0,0,0,0,0c-0.2,0.2-0.2,0.2-0.5,0.4
		c0,0,0,0-0.1,0.1c-0.2,0-0.3-0.1-0.4-0.1c0,0-0.4-0.2-0.9,0c-0.2,0.4-0.2,0.4-0.2,0.3c0,0-0.9,0.9-0.3,2.1c0.1,0.2,0.2,0.3,0.3,0.4
		c-0.1,0.1-0.3,0.2-0.4,0.4c0,0.1,0,0.2,0.1,0.3c-0.2,0.2-0.3,0.2-0.5,0.4c0,0-1,1-0.4,2.6c0.2,0.1,0.4,0.1,0.5,0.2
		c-0.3,0.3-0.6,0.6-0.8,1.1c0.6,0.9,0.9,1.5,1.6,1.7c0.3,0,0.6-0.1,0.9-0.1c0.9,2.5,2.8,4.5,5.3,5.5l-3.2,2c-0.4-0.6-0.9-1-1.6-1.2
		c-1.5-0.4-3.1,0.5-3.5,2l-0.4,1.3c-0.7,0-1.4,0-2,0.1c0.1-0.9,0-1.8-0.3-2.6c-0.7-2.2-2.4-3.7-4.4-4.2c0.1-0.4,0.1-0.8-0.1-1.3
		c-0.4-1.2-1.6-1.8-2.8-1.4c-1.2,0.4-1.8,1.7-1.4,2.9c0,0.1,0.1,0.2,0.1,0.2c-1.3,0.6-2.3,1.7-2.9,2.9c-0.6-0.4-1.3-0.5-2-0.3
		c-1.2,0.4-1.8,1.7-1.4,2.9c0.4,1.2,1.6,1.8,2.8,1.4c0,0,0,0,0.1,0c0.1,0.3,0.1,0.6,0.2,0.9c0.9,2.7,3.4,4.4,6,4.4
		c0,0.2-0.1,0.3-0.1,0.5l-2.2,1.4l0.1,0.3c-0.1,0.1-0.3,0.1-0.4,0.2c-0.9-0.4-1.9-0.6-3-0.3c-2.3,0.6-3.6,3-3,5.3
		c0.6,2.3,3,3.7,5.3,3c1.4-0.4,2.4-1.4,2.8-2.7l1.5-0.3c0.4,0.7,0.8,1.4,1.4,2c1,1.1,2.1,1.9,3.3,2.6c-0.6,1.4-0.5,3.1,0.6,4.4
		c1.4,1.6,3.7,1.8,5.3,0.5l-4,25.2l10.7,0.6l5.7-21.2l10,20.3l10.5-1.8l-10.5-35.2l18.6,2l-0.8-1.1c0-0.2-0.1-0.5-0.1-0.7
		C212.6,68.9,213.5,68.8,214.8,67.9"/>
	<path class="st0" d="M284.2,57.7L255.1,44c2.4-1.4,4.2-3.8,4.8-6.8c0,0,0,0,0,0c0.4,0,0.9-0.1,1.2-0.4c0.4,0.6,0.8,1.9,2,0.9
		c-0.1,1.6,0.9,1.2,1.3,1.1c0.1,0.3,0.1,0.5,0.3,0.7c-1.1-0.1-1.5,0.8-2.6,1.4c0.5,1,2.2,0,3.1,0.3c0.4,0.2-0.2,1.4,0.4,2.1
		c1.2,0.2,1.3-1.5,1.9-1.5c0.3,1.1,0.2,1.7,0.7,2.2c1.7,2,2.6,0.6,3.4,1c-1-2.5-1.2-1.8-1.2-2.3c0.3-0.3,1.2,0.4,1.6,0.3
		c-0.6-0.9-1.6-1.7-2.5-2.3c0.3-0.1,1.4,0,1.7,0c1.1-0.1,0.5-0.6,1.3-1.3c-1.8-0.1-1.6-0.5-2.3-0.7c-0.2-1.1,0.2-2-0.7-2.8
		c-1.2,1-0.6,1.5-1.4,2.2c0,0,0.3-2.4-1.5-1.1c0-0.7-0.5-2-2.1-1.2c-0.1-0.8-0.5-2-1.8-1.3c-0.2-0.8-0.5-1.2-0.8-1.3
		c-0.8-6.1-6.1-10.5-12.2-10c-6.3,0.5-11,6.1-10.5,12.5c0,0.4,0.1,0.8,0.2,1.2c-0.3,0.2-0.5,0.6-0.5,1.3c-1.4-0.5-1.6,0.7-1.6,1.5
		c-1.7-0.6-1.9,0.8-1.9,1.5c-2-1-1.3,1.3-1.3,1.3c-1-0.6-1.7-0.9-1.7-2c-0.8,0.9-0.2,1.7-0.3,2.8c-0.6,0.3-0.8-0.2-2.2,1
		c0.9,0.6,0.4,1.2,1.5,1.1c0.3,0,1.4-0.3,1.6-0.2c-0.8,0.7-1.7,1.7-2.1,2.7c0.4,0,1.3-0.8,1.6-0.6c0,0.5-0.2-0.2-0.9,2.4
		c0.8-0.5,1.8,0.7,3.2-1.5c0.4-0.7,0.2-1.2,0.3-2.3c0.6-0.1,1.7,0.5,2,1.2c1.8-0.7-1-2.5,3.1-3c-1-1.2-1.7-1.3-2.8-1
		c0.2-0.2,0.2-0.4,0.2-0.7c0.3,0,1.4,0.2,1.1-1.3c1.3,0.8,1.5-0.5,1.8-1.2c0.5,0.3,1.4,0.3,1.8,0c1,1.8,2.5,3.3,4.5,4.2l-27.1,21.7
		c-0.7-0.4-1.5-0.7-2.4-0.7c-2.8,0-5,2.3-5,5.1c0,2.8,2.2,5.1,5,5.1c2.3,0,4.2-1.6,4.8-3.7l20.2-10.3l-10.1,31.6l7.2,0.6l-1,14.4
		l11.6,1l2-15l5,0l2,15.2l11.2,0L268.9,94l7.1-0.5L264,61.9l18.7,2.9l0.1-0.5c-0.2-0.5-0.3,0.4-0.3-0.2c-0.2-2,0.4-3.8,1.5-5.3
		L284.2,57.7z"/>
	<path class="st0" d="M463,56.3c-1.1,0-2,0.3-2.9,0.8l-32.8-15.1c3.1-1.5,5.5-4.3,6.5-7.9c0.1-0.2,0.1-0.4,0.1-0.6
		c0.3-0.4,0.4-0.5,0.5-0.7c0.1-0.2,0.1-0.2,0.2-0.6c0,0,0-0.2,0-0.4c0,0,0,0,0-0.1c0-0.1,0.1-0.2,0.1-0.3c0-0.1,0-0.1,0-0.2
		c0.1-0.1,0.2-0.2,0.2-0.4c-0.1-0.3-0.1-0.3-0.1-0.5c0-0.1,0.1-0.1,0.1-0.2c0,0,0.1-0.3,0.1-0.6c0,0,0,0,0,0
		c0.1-0.1,0.1-0.3,0.1-0.5c0.1-0.1,0.2-0.1,0.3-0.2c0.1-0.7,0.1-0.7,0.1-1.1c0,0-0.1-0.3-0.3-0.5c-0.3-0.1-0.3-0.1-0.5-0.2
		c0,0,0,0,0,0c0-0.2,0-0.3,0-0.6c0,0,0-0.4-0.3-0.7c-0.1,0-0.1,0-0.2-0.1c0-0.1-0.1-0.4-0.3-0.7c-0.2,0-0.2-0.1-0.3-0.1
		c0-0.2-0.1-0.4-0.1-0.4c-0.3-0.5-0.3-0.5-0.5-0.7c-0.1-0.1-0.3-0.1-0.4-0.1v-0.1c0-0.2-0.1-0.4-0.1-0.4c-0.1-0.1-0.1-0.1-0.2-0.3
		c0,0,0,0-0.1,0c0-0.1-0.1-0.2-0.2-0.6c0,0,0,0-0.1,0c0-0.1,0-0.1-0.1-0.3c-0.1-0.1-0.3-0.2-0.4-0.3c-0.1-0.4-0.5-0.6-0.8-0.7
		l-0.2,0c-0.1-0.2-0.2-0.4-0.3-0.5l-0.1-0.1c-0.2-0.2-0.5-0.2-0.8-0.2l-0.2,0c-0.1-0.1-0.1-0.1-0.2-0.2c0-0.1,0-0.2-0.1-0.3
		c-0.1-0.2-0.1-0.2-0.2-0.3c0,0-0.2-0.2-0.4-0.4c-0.3,0-0.3,0-0.6-0.1c0,0-0.1,0-0.2,0c0,0-0.1,0-0.2,0c-0.1,0-0.1-0.1-0.2-0.1
		c-0.2-0.1-0.2-0.1-0.7-0.2c0,0-0.1,0-0.1,0c-0.5-0.5-0.5-0.5-0.7-0.6c-0.3-0.1-0.6,0-0.6,0c-0.1,0-0.1,0-0.4,0.1c0,0-0.1,0-0.1,0.1
		c0-0.1-0.1-0.3-0.4-0.7c-0.4-0.1-0.8,0-0.9,0.1c0,0,0,0,0,0c-0.4,0-0.6,0.1-0.9,0.3c-0.1,0-0.1-0.1-0.2-0.1l-0.1,0
		c-0.3-0.2-0.7-0.3-1-0.1l-0.4,0.3c0,0-0.1,0.1-0.1,0.1c-0.1-0.1-0.2-0.2-0.3-0.3l-0.2-0.2c-0.1-0.1-0.2-0.1-0.2-0.2
		c-0.5-0.2-1,0.1-1.2,0.6c-0.1,0-0.1,0-0.2,0l-0.1,0.1c-0.2,0.1-0.3,0.2-0.4,0.3l-0.1,0.1c0,0.1-0.1,0.1-0.1,0.2
		c-0.1,0-0.3,0-0.4,0.1c0,0-0.1,0-0.1-0.1L417,19c-0.4-0.2-0.8,0-1.1,0.3c-0.1,0.1-0.3,0.3-0.3,0.4l-0.1,0c-0.4-0.1-0.8,0-1,0.3
		l-0.2,0.2c-0.2,0.3-0.3,0.6-0.3,1l-0.2,0.1c0,0,0,0-0.1,0.1c-0.1,0.1-0.2,0.1-0.3,0.3l-0.1,0.1c0,0,0,0,0,0.1
		c-0.2,0-0.3,0.1-0.4,0.2l-0.1,0.1c-0.1,0.1-0.1,0.2-0.2,0.2c-0.1,0-0.3,0-0.4,0.1l-0.3,0.1c-0.2,0.1-0.4,0.3-0.5,0.5l-0.1,0.1
		c-0.1,0.3-0.1,0.5,0.1,0.8c0,0,0,0.1,0,0.1c0,0-0.1,0-0.1,0.1l-0.2,0.1c-0.3,0.2-0.5,0.5-0.5,0.9c-0.4,0.3-0.5,0.8-0.3,1.2v0
		c-0.3,0-0.4,0.3-0.6,0.4l-0.2,0.2c-0.3,0.3-0.3,0.8-0.1,1.1l0,0c0,0.1,0,0.1,0.1,0.2l-0.3,0.9c0,0.1,0.1,0.1,0.1,0.2l0.1,0.1
		c0,0.1,0,0.2,0,0.3c-0.4,0.3-0.5,0.9-0.2,1.3l0.2,0.2c0,0.3,0.1,0.6,0.2,0.8c-0.1-0.1-0.1-0.2-0.2-0.3v-0.2c-0.1,0.3,0,0.5,0.1,0.8
		l0.3,0.4c0,0,0.1,0.1,0.1,0.1c0,0,0,0,0,0c0.2,0.2,0.4,0.3,0.7,0.4c0.7,3.5,2.9,6.7,6,8.4l-32.2,15.6c1.4,1.5,2.2,3.7,2,5.9
		c-0.1,0.6-1.2,1.3-1.4,1.9l25.1-4.6l-8.4,31.2l4.9,0.4l-0.1,16l11.1,0.5l3.4-16.2l4.3,0.1l2.6,16.4l11.8-0.4l0-15.3l4.7,0.4
		l-8-30.3l22,2.6c1.1,1.4,2.7,2.4,4.6,2.4c3.2,0,5.8-2.6,5.8-5.9C468.8,58.9,466.2,56.3,463,56.3z"/>
	<path class="st0" d="M381.9,53.3c-1.1,0-2.1,0.3-3.1,0.7l-38.2-26.2c3.6-2.2,6.3-6,6.9-10.5c1.3-8.2-4.2-15.8-12.3-17.1
		c-8-1.3-15.6,4.3-16.8,12.5c-1.1,7,2.8,13.6,8.9,16.1L291,54c-0.8-0.3-1.7-0.5-2.6-0.5c-4.1,0-7.4,3.3-7.4,7.5
		c0,4.1,3.3,7.5,7.4,7.5c3.5,0,6.5-2.5,7.2-5.9l24.7-7.6l-18.5,55.8l17,1.2l16.4-35.5l16.1,35.5l18-1.2l-19.8-55.8l25.5,8.5
		c1,2.9,3.8,5,7,5c4.1,0,7.4-3.4,7.4-7.5C389.4,56.7,386,53.3,381.9,53.3z"/>
	<g>
		<path class="st0" d="M163.3,142.6H182c7.4,0,14.2,2.6,14.2,10.8c0,4.6-3.1,8.9-7.7,9.9v0.1c5.7,0.7,9.3,5,9.3,10.8
			c0,4.2-1.5,12.6-15.8,12.6h-18.7V142.6z M167.5,162H182c6.7,0,10-3.3,10-7.5c0-5.5-3.4-8.3-10-8.3h-14.5V162z M167.5,183.2H182
			c6.2,0.1,11.6-2,11.6-9.1c0-5.6-4.3-8.5-11.6-8.5h-14.5V183.2z"/>
		<path class="st0" d="M206.1,171.9c0.1,5.7,3,12.6,10.5,12.6c5.7,0,8.8-3.3,10-8.2h3.9c-1.7,7.2-5.9,11.4-13.9,11.4
			c-10.1,0-14.4-7.8-14.4-16.9c0-8.4,4.3-16.9,14.4-16.9c10.3,0,14.4,9,14,17.9H206.1z M226.8,168.6c-0.2-5.9-3.8-11.4-10.1-11.4
			c-6.4,0-9.9,5.6-10.5,11.4H226.8z"/>
		<path class="st0" d="M235.9,154.9h3.9v5.5h0.1c1.4-3.8,5.7-6.4,10.2-6.4c9,0,11.7,4.7,11.7,12.3v20.5h-3.9v-19.9
			c0-5.5-1.8-9.7-8.1-9.7c-6.2,0-9.9,4.7-10,11v18.6h-3.9V154.9z"/>
		<path class="st0" d="M269.2,142.6h3.9v6.2h-3.9V142.6z M269.2,154.9h3.9v31.9h-3.9V154.9z"/>
		<path class="st0" d="M309.2,170.8c0,9.2-5.3,16.9-15.1,16.9c-9.8,0-15.1-7.7-15.1-16.9c0-9.2,5.3-16.9,15.1-16.9
			C303.9,153.9,309.2,161.7,309.2,170.8z M282.9,170.8c0,6.8,3.7,13.6,11.2,13.6c7.5,0,11.2-6.8,11.2-13.6c0-6.8-3.7-13.6-11.2-13.6
			C286.6,157.2,282.9,164,282.9,170.8z"/>
		<path class="st0" d="M327.3,158.1H321v28.6h-3.9v-28.6h-5.4v-3.3h5.4V152c-0.1-5.5,1.5-9.3,7.7-9.3c1.1,0,2,0.1,3.3,0.2v3.3
			c-1.1-0.2-1.9-0.3-2.8-0.3c-4.3,0-4.2,2.7-4.3,6.2v2.8h6.3V158.1z"/>
		<path class="st0" d="M344.4,158.1h-6.3v28.6h-3.9v-28.6h-5.4v-3.3h5.4V152c-0.1-5.5,1.5-9.3,7.7-9.3c1.1,0,2,0.1,3.3,0.2v3.3
			c-1.1-0.2-1.9-0.3-2.8-0.3c-4.3,0-4.2,2.7-4.3,6.2v2.8h6.3V158.1z"/>
		<path class="st0" d="M398.4,156c-1.5-6.8-7.1-10.7-13.6-10.7c-11.7,0-16.6,9.8-16.6,19.4c0,9.7,4.9,19.4,16.6,19.4
			c8.2,0,13.4-6.3,14.2-14.2h4.2c-1.2,10.8-8,17.8-18.4,17.8c-13.9,0-20.9-11-20.9-23c0-12.1,6.9-23,20.9-23c8.4,0,16.6,5,17.8,14.3
			H398.4z"/>
		<path class="st0" d="M408.8,142.6h3.9v17.8h0.1c1.4-3.8,5.7-6.4,10.2-6.4c9,0,11.7,4.7,11.7,12.3v20.5h-3.9v-19.9
			c0-5.5-1.8-9.7-8.1-9.7c-6.2,0-9.9,4.7-10,11v18.6h-3.9V142.6z"/>
		<path class="st0" d="M442.2,142.6h3.9v6.2h-3.9V142.6z M442.2,154.9h3.9v31.9h-3.9V154.9z"/>
		<path class="st0" d="M453.6,142.6h3.9v44.2h-3.9V142.6z"/>
		<path class="st0" d="M493.1,186.8h-3.6v-6.1h-0.1c-1.7,4.1-6.7,7-11.4,7c-9.7,0-14.4-7.9-14.4-16.9s4.6-16.9,14.4-16.9
			c4.8,0,9.4,2.4,11.1,7h0.1v-18.3h3.9V186.8z M478,184.4c8.3,0,11.2-7,11.2-13.6c0-6.6-2.9-13.6-11.2-13.6c-7.4,0-10.5,7-10.5,13.6
			C467.6,177.5,470.6,184.4,478,184.4z"/>
		<path class="st0" d="M500.5,154.9h3.6v7.5h0.1c2-5.1,6.3-8.2,12.1-7.9v3.9c-7.1-0.4-11.9,4.8-11.9,11.4v17h-3.9V154.9z"/>
		<path class="st0" d="M522.3,171.9c0.1,5.7,3,12.6,10.5,12.6c5.7,0,8.8-3.3,10-8.2h3.9c-1.7,7.2-5.9,11.4-13.9,11.4
			c-10.1,0-14.4-7.8-14.4-16.9c0-8.4,4.3-16.9,14.4-16.9c10.3,0,14.4,9,14,17.9H522.3z M543,168.6c-0.2-5.9-3.8-11.4-10.1-11.4
			c-6.4,0-9.9,5.6-10.5,11.4H543z"/>
		<path class="st0" d="M552.1,154.9h3.9v5.5h0.1c1.4-3.8,5.7-6.4,10.2-6.4c9,0,11.7,4.7,11.7,12.3v20.5h-3.9v-19.9
			c0-5.5-1.8-9.7-8.1-9.7c-6.2,0-9.9,4.7-10,11v18.6h-3.9V154.9z"/>
		<path class="st0" d="M588,142.6v6.6c-0.1,3.6-1.7,7.4-5.5,8.4V155c2.1-0.7,3-3.8,2.9-5.8h-2.6v-6.6H588z"/>
		<path class="st0" d="M611.1,164.2c-0.2-4.8-3.9-7-8.4-7c-3.5,0-7.5,1.4-7.5,5.5c0,3.5,4,4.7,6.6,5.4l5.2,1.2
			c4.5,0.7,9.1,3.3,9.1,8.8c0,6.9-6.9,9.6-12.8,9.6c-7.4,0-12.5-3.5-13.1-11.3h3.9c0.3,5.3,4.2,8,9.4,8c3.7,0,8.7-1.6,8.7-6.1
			c0-3.7-3.5-5-7-5.8l-5-1.1c-5.1-1.4-8.9-3.1-8.9-8.5c0-6.5,6.4-9,12-9c6.4,0,11.4,3.3,11.7,10.3H611.1z"/>
		<path class="st0" d="M637.3,142.6h4.2v19.2h26.2v-19.2h4.2v44.2h-4.2v-21.4h-26.2v21.4h-4.2V142.6z"/>
		<path class="st0" d="M708.7,170.8c0,9.2-5.3,16.9-15.1,16.9c-9.8,0-15.1-7.7-15.1-16.9c0-9.2,5.3-16.9,15.1-16.9
			C703.3,153.9,708.7,161.7,708.7,170.8z M682.4,170.8c0,6.8,3.7,13.6,11.2,13.6c7.5,0,11.2-6.8,11.2-13.6c0-6.8-3.7-13.6-11.2-13.6
			C686.1,157.2,682.4,164,682.4,170.8z"/>
		<path class="st0" d="M733.6,164.2c-0.2-4.8-3.9-7-8.4-7c-3.5,0-7.5,1.4-7.5,5.5c0,3.5,4,4.7,6.6,5.4l5.2,1.2
			c4.5,0.7,9.1,3.3,9.1,8.8c0,6.9-6.9,9.6-12.8,9.6c-7.4,0-12.5-3.5-13.1-11.3h3.9c0.3,5.3,4.2,8,9.4,8c3.7,0,8.7-1.6,8.7-6.1
			c0-3.7-3.5-5-7-5.8l-5-1.1c-5.1-1.4-8.9-3.1-8.9-8.5c0-6.5,6.4-9,12-9c6.4,0,11.4,3.3,11.7,10.3H733.6z"/>
		<path class="st0" d="M744.2,154.9h3.6v6.1h0.1c1.8-4.3,6.2-7,11.4-7c9.7,0,14.4,7.9,14.4,16.9s-4.6,16.9-14.4,16.9
			c-4.8,0-9.4-2.4-11.1-7h-0.1v17.9h-3.9V154.9z M759.3,157.2c-8.6,0-11.2,6.4-11.2,13.6c0,6.6,2.9,13.6,11.2,13.6
			c7.4,0,10.5-7,10.5-13.6C769.8,164.2,766.7,157.2,759.3,157.2z"/>
		<path class="st0" d="M779.8,142.6h3.9v6.2h-3.9V142.6z M779.8,154.9h3.9v31.9h-3.9V154.9z"/>
		<path class="st0" d="M797.4,154.9h6.5v3.3h-6.5v21.5c0,2.5,0.4,4,3.2,4.2c1.1,0,2.2-0.1,3.3-0.2v3.3c-1.2,0-2.3,0.1-3.5,0.1
			c-5.2,0-7-1.7-6.9-7.2v-21.8h-5.6v-3.3h5.6v-9.6h3.9V154.9z"/>
		<path class="st0" d="M809.1,164.6c0.4-7.5,5.6-10.7,12.9-10.7c5.6,0,11.8,1.7,11.8,10.3v17c0,1.5,0.7,2.4,2.3,2.4
			c0.4,0,0.9-0.1,1.2-0.2v3.3c-0.9,0.2-1.5,0.2-2.5,0.2c-4,0-4.6-2.2-4.6-5.6h-0.1c-2.7,4.1-5.5,6.5-11.6,6.5
			c-5.9,0-10.7-2.9-10.7-9.3c0-9,8.7-9.3,17.1-10.3c3.2-0.4,5-0.8,5-4.3c0-5.3-3.8-6.6-8.4-6.6c-4.8,0-8.4,2.2-8.5,7.4H809.1z
			 M829.9,169.3h-0.1c-0.5,0.9-2.2,1.2-3.3,1.4c-6.6,1.2-14.9,1.1-14.9,7.4c0,3.9,3.5,6.3,7.1,6.3c5.9,0,11.2-3.8,11.1-10V169.3z"/>
		<path class="st0" d="M841.7,142.6h3.9v44.2h-3.9V142.6z"/>
		<path class="st0" d="M872.2,164.2c-0.2-4.8-3.9-7-8.4-7c-3.5,0-7.5,1.4-7.5,5.5c0,3.5,4,4.7,6.6,5.4l5.2,1.2
			c4.5,0.7,9.1,3.3,9.1,8.8c0,6.9-6.9,9.6-12.8,9.6c-7.4,0-12.5-3.5-13.1-11.3h3.9c0.3,5.3,4.2,8,9.4,8c3.7,0,8.7-1.6,8.7-6.1
			c0-3.7-3.5-5-7-5.8l-5-1.1c-5.1-1.4-8.9-3.1-8.9-8.5c0-6.5,6.4-9,12-9c6.4,0,11.4,3.3,11.7,10.3H872.2z"/>
		<path class="st0" d="M175,216.1c9.8,0,14.7,7.7,14.7,16.2s-4.9,16.2-14.7,16.2c-9.8,0-14.7-7.7-14.7-16.2S165.2,216.1,175,216.1z
			 M175,246.1c8.2,0,11.7-6.9,11.7-13.7c0-6.8-3.5-13.7-11.7-13.7c-8.3,0-11.7,6.9-11.7,13.7C163.3,239.2,166.8,246.1,175,246.1z"/>
		<path class="st0" d="M193.9,232.3c0.3-5.3,4-7.6,9.1-7.6c4,0,8.3,1.2,8.3,7.2v12c0,1,0.5,1.7,1.6,1.7c0.3,0,0.7-0.1,0.9-0.2v2.3
			c-0.6,0.1-1,0.2-1.8,0.2c-2.8,0-3.2-1.6-3.2-3.9h-0.1c-1.9,2.9-3.9,4.6-8.2,4.6c-4.1,0-7.6-2.1-7.6-6.6c0-6.3,6.2-6.6,12.1-7.2
			c2.3-0.3,3.5-0.6,3.5-3.1c0-3.7-2.7-4.6-5.9-4.6c-3.4,0-5.9,1.6-6,5.2H193.9z M208.5,235.6L208.5,235.6c-0.4,0.7-1.7,0.9-2.4,1
			c-4.7,0.8-10.5,0.8-10.5,5.2c0,2.8,2.4,4.5,5,4.5c4.2,0,7.9-2.7,7.9-7.1V235.6z"/>
		<path class="st0" d="M217.1,216.7h2.8v19.6l12.5-10.9h3.7l-9.6,8.3l10.3,14.2h-3.4l-8.9-12.3l-4.5,3.7v8.6h-2.8V216.7z"/>
		<path class="st0" d="M239.3,216.7h2.8v31.2h-2.8V216.7z"/>
		<path class="st0" d="M247.3,232.3c0.3-5.3,4-7.6,9.1-7.6c4,0,8.3,1.2,8.3,7.2v12c0,1,0.5,1.7,1.6,1.7c0.3,0,0.7-0.1,0.9-0.2v2.3
			c-0.6,0.1-1,0.2-1.8,0.2c-2.8,0-3.2-1.6-3.2-3.9h-0.1c-1.9,2.9-3.9,4.6-8.2,4.6c-4.1,0-7.6-2.1-7.6-6.6c0-6.3,6.2-6.6,12.1-7.2
			c2.3-0.3,3.5-0.6,3.5-3.1c0-3.7-2.7-4.6-5.9-4.6c-3.4,0-5.9,1.6-6,5.2H247.3z M262,235.6L262,235.6c-0.4,0.7-1.7,0.9-2.4,1
			c-4.7,0.8-10.5,0.8-10.5,5.2c0,2.8,2.4,4.5,5,4.5c4.2,0,7.9-2.7,7.9-7.1V235.6z"/>
		<path class="st0" d="M270.5,225.4h2.8v3.9h0.1c1-2.7,4-4.5,7.2-4.5c6.3,0,8.3,3.3,8.3,8.7v14.5h-2.8v-14.1c0-3.9-1.3-6.8-5.7-6.8
			c-4.4,0-7,3.3-7.1,7.7v13.1h-2.8V225.4z"/>
		<path class="st0" d="M314.2,247.9h-2.5v-4.3h-0.1c-1.2,2.9-4.8,4.9-8,4.9c-6.9,0-10.1-5.5-10.1-11.9c0-6.4,3.3-11.9,10.1-11.9
			c3.4,0,6.6,1.7,7.8,4.9h0.1v-12.9h2.8V247.9z M303.5,246.3c5.9,0,7.9-4.9,7.9-9.6c0-4.7-2.1-9.6-7.9-9.6c-5.2,0-7.4,4.9-7.4,9.6
			C296.1,241.3,298.3,246.3,303.5,246.3z"/>
		<path class="st0" d="M333.2,213.6h2.3v43.7h-2.3V213.6z"/>
		<path class="st0" d="M356.5,237.7c-0.1,6.4,4.5,8.4,10.2,8.4c3.3,0,8.3-1.8,8.3-6.3c0-3.5-3.5-4.9-6.4-5.6l-6.9-1.7
			c-3.7-0.9-7-2.7-7-7.5c0-3.1,2-8.8,10.7-8.8c6.2,0,11.6,3.3,11.5,9.7h-3c-0.2-4.8-4.1-7.2-8.5-7.2c-4.1,0-7.8,1.6-7.8,6.2
			c0,2.9,2.2,4.1,4.7,4.8l7.6,1.9c4.4,1.2,8.1,3.1,8.1,8.2c0,2.1-0.9,8.9-11.9,8.9c-7.4,0-12.8-3.3-12.4-10.9H356.5z"/>
		<path class="st0" d="M382.1,232.3c0.3-5.3,4-7.6,9.1-7.6c4,0,8.3,1.2,8.3,7.2v12c0,1,0.5,1.7,1.6,1.7c0.3,0,0.7-0.1,0.9-0.2v2.3
			c-0.6,0.1-1,0.2-1.8,0.2c-2.8,0-3.2-1.6-3.2-3.9h-0.1c-1.9,2.9-3.9,4.6-8.2,4.6c-4.1,0-7.6-2.1-7.6-6.6c0-6.3,6.2-6.6,12.1-7.2
			c2.3-0.3,3.5-0.6,3.5-3.1c0-3.7-2.7-4.6-5.9-4.6c-3.4,0-5.9,1.6-6,5.2H382.1z M396.8,235.6L396.8,235.6c-0.4,0.7-1.7,0.9-2.4,1
			c-4.7,0.8-10.5,0.8-10.5,5.2c0,2.8,2.4,4.5,5,4.5c4.2,0,7.9-2.7,7.9-7.1V235.6z"/>
		<path class="st0" d="M405.3,225.4h2.8v3.9h0.1c1-2.7,4-4.5,7.2-4.5c6.3,0,8.3,3.3,8.3,8.7v14.5h-2.8v-14.1c0-3.9-1.3-6.8-5.7-6.8
			c-4.4,0-7,3.3-7.1,7.7v13.1h-2.8V225.4z"/>
		<path class="st0" d="M442.1,216.7h19.8v2.5h-16.8v11.3H460v2.5h-14.9v14.8h-3V216.7z"/>
		<path class="st0" d="M465.3,225.4h2.5v5.3h0.1c1.4-3.6,4.5-5.8,8.5-5.6v2.8c-5-0.3-8.4,3.4-8.4,8.1v12h-2.7V225.4z"/>
		<path class="st0" d="M479.1,232.3c0.3-5.3,4-7.6,9.1-7.6c4,0,8.3,1.2,8.3,7.2v12c0,1,0.5,1.7,1.6,1.7c0.3,0,0.7-0.1,0.9-0.2v2.3
			c-0.6,0.1-1,0.2-1.8,0.2c-2.8,0-3.2-1.6-3.2-3.9h-0.1c-1.9,2.9-3.9,4.6-8.2,4.6c-4.1,0-7.6-2.1-7.6-6.6c0-6.3,6.2-6.6,12.1-7.2
			c2.3-0.3,3.5-0.6,3.5-3.1c0-3.7-2.7-4.6-5.9-4.6c-3.4,0-5.9,1.6-6,5.2H479.1z M493.8,235.6L493.8,235.6c-0.4,0.7-1.7,0.9-2.4,1
			c-4.7,0.8-10.5,0.8-10.5,5.2c0,2.8,2.4,4.5,5,4.5c4.2,0,7.9-2.7,7.9-7.1V235.6z"/>
		<path class="st0" d="M502.3,225.4h2.8v3.9h0.1c1-2.7,4-4.5,7.2-4.5c6.3,0,8.3,3.3,8.3,8.7v14.5h-2.7v-14.1c0-3.9-1.3-6.8-5.7-6.8
			c-4.4,0-7,3.3-7.1,7.7v13.1h-2.8V225.4z"/>
		<path class="st0" d="M542,232.5c-0.7-3.4-2.8-5.4-6.4-5.4c-5.3,0-7.9,4.8-7.9,9.6c0,4.8,2.6,9.6,7.9,9.6c3.4,0,6.2-2.7,6.5-6.4
			h2.8c-0.7,5.4-4.3,8.7-9.3,8.7c-6.9,0-10.7-5.5-10.7-11.9c0-6.5,3.8-11.9,10.7-11.9c4.8,0,8.5,2.6,9.1,7.7H542z"/>
		<path class="st0" d="M549.1,216.7h2.8v4.4h-2.8V216.7z M549.1,225.4h2.8v22.5h-2.8V225.4z"/>
		<path class="st0" d="M571,232c-0.1-3.4-2.8-4.9-5.9-4.9c-2.4,0-5.3,1-5.3,3.9c0,2.4,2.8,3.3,4.7,3.8l3.7,0.8
			c3.1,0.5,6.4,2.3,6.4,6.2c0,4.9-4.8,6.8-9,6.8c-5.2,0-8.8-2.4-9.3-7.9h2.8c0.2,3.7,3,5.6,6.6,5.6c2.6,0,6.2-1.1,6.2-4.3
			c0-2.6-2.4-3.5-4.9-4.1l-3.5-0.8c-3.6-1-6.3-2.2-6.3-6c0-4.6,4.5-6.3,8.5-6.3c4.5,0,8.1,2.4,8.3,7.2H571z"/>
		<path class="st0" d="M594.7,232.5c-0.7-3.4-2.8-5.4-6.4-5.4c-5.3,0-7.9,4.8-7.9,9.6c0,4.8,2.6,9.6,7.9,9.6c3.4,0,6.2-2.7,6.5-6.4
			h2.8c-0.7,5.4-4.3,8.7-9.3,8.7c-6.9,0-10.7-5.5-10.7-11.9c0-6.5,3.8-11.9,10.7-11.9c4.8,0,8.5,2.6,9.1,7.7H594.7z"/>
		<path class="st0" d="M621.9,236.7c0,6.5-3.8,11.9-10.7,11.9c-6.9,0-10.7-5.5-10.7-11.9c0-6.5,3.8-11.9,10.7-11.9
			C618.2,224.7,621.9,230.2,621.9,236.7z M603.4,236.7c0,4.8,2.6,9.6,7.9,9.6c5.3,0,7.9-4.8,7.9-9.6c0-4.8-2.6-9.6-7.9-9.6
			C606,227.1,603.4,231.9,603.4,236.7z"/>
	</g>
</g>
</svg>
