<svg version="1.1" id="Layer_1" xmlns="http://www.w3.org/2000/svg" xmlns:xlink="http://www.w3.org/1999/xlink" x="0px" y="0px"
viewBox="0 0 268.7 92.9" enable-background="new 0 0 268.7 92.9" xml:space="preserve">
<path fill="#231F20" d="M130.4,81.1c-1.1,3.2-2.5,5.5-4.3,7.2c-3.3,3.5-7.4,4.6-12.3,4.6h-6.3V77.9h3.6c3,0,4.5-0.7,5.6-4.1l1.5-4.6
L100.6,22h17.5l8.6,26.3l8.2-26.3h17.5L130.4,81.1z"/>
<path fill="#FFFFFF" d="M225.3,34.8v39.8h-16.7V34.8h-5V22h5v-4.8c0-7.5,4.9-16.2,17-16.2h8.9v14h-5.8c-2.2,0-3.4,1.2-3.4,3.4V22
h9.2v12.8H225.3z"/>
<path fill="#FFFFFF" d="M260.4,74.6c-12.1,0-17-8.7-17-16.2V34.8h-5V22h5V6.3h16.7V22h8.7v12.8h-8.7v22.4c0,2.1,1.1,3.4,3.4,3.4h5.3
v14H260.4z"/>
<g>
<path fill="#FFFFFF" d="M172.5,74.6c-12.1,0-17-8.7-17-16.2V6.3h16.7v50.9c0,2.1,1.1,3.4,3.4,3.4h22.1v14H172.5z"/>
<circle fill="#FFFFFF" cx="189.3" cy="9.1" r="9.1"/>
<path fill="#FFFFFF" d="M183.1,51.9c2.1,0,14.5,0,14.5,0V22h0c-5.4,0-10.3,0-16.7,0c0,0,0,26.2,0,27.8
C180.9,50.4,181.5,51.9,183.1,51.9z"/>
</g>
<path fill="#231F20" d="M24.6,75.2c-9.5,0-24.6-4.1-24.6-28c0-23.9,15.2-28,24.6-28c7.6,0,13.5,2.5,18,7L31.3,37.6
c-2.1-2.1-4-3.3-6.7-3.3c-2.2,0-3.8,0.7-5.2,2.1c-1.9,2-2.7,5.6-2.7,10.8c0,5.2,0.8,8.8,2.7,10.8c1.4,1.4,3,2.1,5.2,2.1
c2.7,0,4.6-1.1,6.7-3.3l11.3,11.3C38.2,72.7,32.3,75.2,24.6,75.2z"/>
<path fill="#231F20" d="M45.8,74.6V22h16.7v52.6H45.8z"/>
<path fill="#231F20" d="M90.1,74.6c-12.1,0-17-8.7-17-16.2V34.8h-5V22h5V6.3h16.7V22h8.7v12.8h-8.7v22.4c0,2.1,1.1,3.4,3.4,3.4h5.3
v14H90.1z"/>
<circle fill="#ffffff" cx="54.1" cy="9.1" r="9.1"/>
</svg>