<svg version="1.1" id="Layer_1" xmlns="http://www.w3.org/2000/svg" xmlns:xlink="http://www.w3.org/1999/xlink" x="0px" y="0px"
	 viewBox="0 0 228.3 228.3" style="enable-background:new 0 0 228.3 228.3;" xml:space="preserve">
<style type="text/css">
	.st0{fill:#FFFFFF;}
</style>
<g>
	<path class="st0" d="M71.6,186.4l-4,3l1.7,1.5L71.6,186.4z M67.1,195.3l1.5-2.9l-2.3-2l-2.6,2l-1.4-1.2l10.4-7.4l1.5,1.3l-5.6,11.5
		L67.1,195.3z"/>
	<polygon class="st0" points="89.7,194.3 86,204.3 84.2,203.7 87.9,193.7 85.2,192.7 85.8,191 93,193.7 92.4,195.3 	"/>
	<polygon class="st0" points="125.5,207.8 124.6,198.1 124.2,200.6 123,208 121.2,208.2 118.7,201.1 117.9,198.7 118.8,208.4 
		117.1,208.6 116,196.2 118.6,196 121.2,203.6 121.9,206 122.3,203.5 123.5,195.6 126.1,195.3 127.2,207.7 	"/>
	<path class="st0" d="M141.3,194.2l0.5,5l2.1-0.7L141.3,194.2z M146.6,202.6l-1.8-2.8l-2.9,1l0.4,3.3l-1.7,0.6l-1.1-12.7l1.9-0.6
		l7,10.7L146.6,202.6z"/>
	<g>
		<path class="st0" d="M160.2,185.4c-0.4-0.7-1-1-1.8-0.5l-1.8,1.1l2.1,3.4l1.6-1c0.8-0.5,1-1.2,0.4-2.1L160.2,185.4z M167,192.4
			c-1.3,0.8-2,0.7-2.8-0.5l-1.1-1.7c-0.5-0.8-1.2-1.2-2.1-0.6l-1.7,1.1l2.8,4.6l-1.6,1l-6.5-10.5l3.4-2.1c2-1.2,3.3-0.6,4.3,0.9
			l0.4,0.7c0.7,1.2,0.7,2.1-0.3,3c1.2-0.6,2.2,0.1,2.8,1l1,1.6c0.2,0.3,0.4,0.3,0.8,0.1l0.8,1.3L167,192.4z"/>
	</g>
	
		<rect x="173.4" y="172.2" transform="matrix(0.7298 -0.6836 0.6836 0.7298 -74.8356 167.3833)" class="st0" width="1.9" height="12.4"/>
	<polygon class="st0" points="192.6,166.4 185.8,165.7 183.3,165.4 190,170.1 188.9,171.6 178.8,164.4 179.6,163.2 186.5,164 
		189,164.4 182.2,159.6 183.2,158.2 193.4,165.3 	"/>
	<path class="st0" d="M192.5,145.9l4.1,2.9l0.9-2.1L192.5,145.9z M202.4,147.4l-3.3-0.5l-1.1,2.8l2.7,1.9l-0.7,1.7l-10.3-7.6
		l0.8-1.8l12.7,1.8L202.4,147.4z"/>
	<g>
		<path class="st0" d="M204.7,113.6c-1.1,0-1.6,0.4-1.7,1.4l-0.1,2l3.8,0.1l0.1-2.2c0-1-0.5-1.3-1.3-1.3H204.7z M199.3,113.5
			c-0.8,0-1.4,0.2-1.4,1.2l-0.1,2.1l3.7,0.1l0.1-1.9c0-1-0.5-1.5-1.5-1.5L199.3,113.5z M208.6,115l-0.1,4.1l-12.4-0.5l0.1-4
			c0.1-2.3,1.3-3.1,3.2-3h0.5c1.5,0.1,2.2,0.7,2.4,1.8c0.3-1.3,1.2-1.9,2.6-1.8h0.8C207.5,111.8,208.7,112.7,208.6,115"/>
	</g>
	<path class="st0" d="M196.4,95.7l5,0.4l-0.3-2.2L196.4,95.7z M205.7,92.1l-3.1,1.2l0.4,3l3.3,0.3l0.2,1.8L193.9,97l-0.3-2l11.9-4.8
		L205.7,92.1z"/>
	<polygon class="st0" points="193.4,74.3 197.4,71.3 198.6,72.9 194.5,75.8 190.7,83 189.4,81.3 192.6,76.1 186.7,77.7 185.6,76.1 	
		"/>
	<polygon class="st0" points="30.5,149.1 51.6,133.1 53.9,136.1 32.8,152.1 35.9,156.3 33.1,158.4 24.6,147.2 27.4,145.1 	"/>
	<polygon class="st0" points="30.5,149.1 30.8,149.6 51.5,133.8 53.1,136 32,152 35.1,156.2 33.2,157.6 25.4,147.3 27.3,145.8 
		30.4,149.9 30.8,149.6 30.5,149.1 30.9,148.8 27.5,144.3 23.9,147.1 33,159.1 36.7,156.4 33.5,152.3 54.6,136.2 51.7,132.3 
		30.1,148.7 30.5,149.1 30.9,148.8 	"/>
	<polygon class="st0" points="50,110.2 36.7,109.9 36.6,116.8 49.9,117.1 49.8,120.9 19.8,120.3 19.9,116.5 33.2,116.7 33.3,109.8 
		20,109.6 20.1,105.8 50.1,106.4 	"/>
	<polygon class="st0" points="50,110.2 50,109.6 36.2,109.4 36,117.3 49.3,117.6 49.3,120.4 20.3,119.8 20.4,117 33.7,117.3 
		33.9,109.3 20.6,109 20.6,106.3 49.5,106.9 49.5,110.2 50,110.2 50,109.6 50,110.2 50.6,110.2 50.6,105.9 19.6,105.2 19.5,110.1 
		32.8,110.4 32.7,116.2 19.3,115.9 19.2,120.8 50.3,121.5 50.4,116.6 37.1,116.3 37.3,110.5 50.5,110.7 50.6,110.2 	"/>
	<polygon class="st0" points="135.4,52.2 155.1,28.4 164.2,36 162.1,38.7 155.8,33.5 149.6,40.9 154.2,44.7 152.1,47.3 147.6,43.5 
		140.6,52 146.8,57.2 144.6,59.8 	"/>
	<polygon class="st0" points="135.4,52.2 135.9,52.6 155.1,29.2 163.5,36.1 162,37.9 155.7,32.7 148.9,41 153.4,44.8 152,46.5 
		147.5,42.8 139.8,52.1 146.1,57.3 144.6,59.1 135.8,51.8 135.4,52.2 135.9,52.6 135.4,52.2 135.1,52.6 144.7,60.6 147.6,57.1 
		141.3,51.9 147.6,44.3 152.2,48.1 154.9,44.6 150.4,40.9 155.9,34.2 162.1,39.4 165,36 155,27.6 134.7,52.3 135.1,52.6 	"/>
	<polygon class="st0" points="53.8,94.2 25.5,82 30.2,71.1 33.3,72.4 30.1,79.9 39,83.7 41.4,78.3 44.4,79.6 42.1,85 52.2,89.3 
		55.4,81.9 58.6,83.2 	"/>
	<polygon class="st0" points="53.8,94.2 54,93.7 26.2,81.7 30.5,71.8 32.6,72.7 29.4,80.2 39.3,84.4 41.6,79 43.7,79.8 41.4,85.2 
		52.5,90 55.7,82.6 57.8,83.5 53.3,94 53.8,94.2 54,93.7 53.8,94.2 54.3,94.4 59.3,82.9 55.1,81.1 51.9,88.6 42.8,84.7 45.1,79.3 
		41.1,77.6 38.7,83 30.8,79.6 34,72.1 29.9,70.4 24.8,82.3 54.1,94.9 54.3,94.4 	"/>
	<g>
		<path class="st0" d="M77.5,62.9c-3.8,2.8-7.7,1.6-10-1.6l-9.9-13.4c-2.3-3.2-2.3-7.3,1.5-10c3.8-2.8,7.4-1.7,9.7,1.5l2.4,3.3
			l-2.7,2L66,41.3c-1.2-1.6-3-2.1-4.8-0.7c-1.8,1.4-1.9,3.2-0.9,4.7l10.5,14.2c1.1,1.5,2.9,1.9,4.7,0.6c1.8-1.3,2-3.1,0.7-4.8
			l-2.5-3.4l2.7-2l2.5,3.3C81.3,56.4,81.3,60.2,77.5,62.9"/>
		<path class="st0" d="M77.5,62.9l-0.3-0.4c-1.5,1.1-2.9,1.5-4.3,1.4c-1.9-0.1-3.7-1.1-5-2.9L58,47.6c-1-1.4-1.5-2.9-1.5-4.4
			c0.1-1.7,0.9-3.4,2.8-4.8c1.5-1.1,2.9-1.5,4.2-1.5c1.8,0.1,3.4,1.1,4.7,2.8l2.1,2.9L68.4,44l-1.9-3c-0.8-1-1.8-1.7-2.9-1.7
			c-0.9,0-1.8,0.3-2.6,0.9c-1.1,0.8-1.7,1.9-1.8,3c0,0.9,0.3,1.7,0.8,2.5l10.5,14.2c0.7,1,1.7,1.6,2.8,1.6c0.9,0,1.8-0.3,2.7-0.9
			c1.1-0.8,1.7-1.8,1.7-2.9c0-0.9-0.3-1.8-0.9-2.6l-2.2-3l1.9-1.4l2.1,2.9c1,1.4,1.5,2.8,1.5,4.3c-0.1,1.6-0.9,3.3-2.8,4.7
			L77.5,62.9l0.3,0.4c2.1-1.6,3.2-3.5,3.3-5.5c0.1-1.7-0.5-3.4-1.7-4.9l-2.8-3.8L73,51.7l2.8,3.8c0.5,0.7,0.7,1.3,0.7,1.9
			c0,0.7-0.4,1.4-1.3,2.1c-0.7,0.5-1.4,0.7-2,0.7c-0.8,0-1.4-0.4-2-1.2L60.8,44.9c-0.4-0.6-0.6-1.2-0.6-1.8c0-0.7,0.4-1.5,1.3-2.2
			c0.7-0.5,1.3-0.7,1.9-0.7c0.8,0,1.5,0.5,2.1,1.3l2.8,3.8l3.6-2.6L69.3,39c-1.4-1.9-3.3-3.2-5.5-3.3c-1.6-0.1-3.3,0.5-4.9,1.7
			c-2.1,1.6-3.2,3.6-3.3,5.7c-0.1,1.8,0.5,3.6,1.7,5.1l9.9,13.4c1.4,2,3.5,3.3,5.8,3.4c1.6,0.1,3.3-0.4,5-1.7L77.5,62.9z"/>
		<path class="st0" d="M96.2,28.5c-0.6-2-2.1-3.1-4.2-2.5c-2.2,0.6-2.8,2.4-2.3,4.3l4.7,16.5c0.6,2,2,3.1,4.2,2.5s2.8-2.4,2.3-4.3
			L96.2,28.5z M99.5,52.6c-4.5,1.3-7.8-1-8.9-5.1l-4.5-15.7C85,27.7,86.5,24,91,22.7s7.8,1.1,8.9,5.1l4.5,15.7
			C105.5,47.7,104,51.4,99.5,52.6"/>
		<path class="st0" d="M96.2,28.5l0.5-0.1c-0.2-0.8-0.7-1.6-1.2-2.1c-0.6-0.5-1.4-0.9-2.2-0.9c-0.5,0-0.9,0-1.4,0.2
			c-0.9,0.3-1.6,0.7-2.1,1.3c-0.5,0.6-0.7,1.3-0.8,2.1c0,0.5,0,1.1,0.2,1.6L93.8,47c0.2,0.9,0.6,1.6,1.2,2.1s1.3,0.9,2.2,0.9
			c0.5,0,1,0,1.5-0.2c0.9-0.3,1.6-0.7,2.1-1.3s0.7-1.3,0.8-2.1c0-0.5,0-1.1-0.2-1.6l-4.7-16.5L96.2,28.5l-0.5,0.1l4.7,16.5
			c0.1,0.5,0.2,0.9,0.2,1.3c0,0.6-0.2,1.1-0.5,1.5s-0.8,0.7-1.5,0.9c-0.6,0.1-1,0.2-1.3,0.2c-0.6,0-1.1-0.2-1.5-0.6
			c-0.4-0.4-0.7-0.9-0.9-1.7l-4.7-16.5C90,29.8,90,29.3,90,29c0-0.6,0.2-1.1,0.5-1.5s0.8-0.7,1.6-0.9c0.4-0.1,0.8-0.2,1.1-0.1
			c0.6,0,1.1,0.3,1.5,0.6c0.4,0.4,0.7,0.9,0.9,1.6L96.2,28.5z M99.5,52.6l-0.1-0.5c-0.9,0.3-1.8,0.4-2.5,0.3
			c-1.4-0.1-2.6-0.6-3.6-1.4c-1-0.9-1.7-2.1-2.1-3.7l-4.5-15.7c-0.3-0.9-0.4-1.8-0.3-2.7c0.1-1.3,0.5-2.5,1.3-3.5s2-1.8,3.6-2.2
			c0.9-0.3,1.7-0.4,2.5-0.3c1.4,0.1,2.6,0.6,3.6,1.5s1.7,2.1,2.1,3.6l4.5,15.7c0.3,0.9,0.4,1.9,0.3,2.7c-0.1,1.3-0.5,2.5-1.3,3.5
			s-2,1.7-3.6,2.2L99.5,52.6l0.1,0.5c1.8-0.5,3.2-1.4,4.1-2.6c1-1.2,1.5-2.6,1.5-4.1c0-1-0.1-2-0.4-3.1l-4.5-15.7
			c-0.5-1.7-1.3-3.1-2.5-4.1c-1.1-1-2.6-1.7-4.3-1.7c-0.9,0-1.9,0.1-2.8,0.4c-1.8,0.5-3.2,1.4-4.1,2.6s-1.4,2.6-1.5,4.1
			c0,1,0.1,2,0.4,3L90,47.6c0.5,1.7,1.3,3.1,2.5,4.2c1.1,1,2.6,1.6,4.3,1.7c0.9,0,1.9-0.1,2.9-0.4L99.5,52.6z"/>
	</g>
	<polygon class="st0" points="121.6,50 118,49.3 118,19 121.9,19.8 121.2,42.8 129.6,21.3 133.3,22 	"/>
	<polygon class="st0" points="121.6,50 121.7,49.5 118.5,48.8 118.5,19.7 121.3,20.2 120.6,45.9 129.9,21.9 132.6,22.4 121.1,49.8 
		121.6,50 121.7,49.5 121.6,50 122.1,50.2 134.1,21.6 129.3,20.7 121.8,39.7 122.4,19.4 117.4,18.4 117.4,49.7 122,50.6 122.1,50.2 
			"/>
	<g>
		<path class="st0" d="M107,225.3l0.2-2.8c-29.5-1.9-55.5-15.5-73.8-35.9C15,166.1,4.5,138.8,5.8,109.4c0-0.7,0.1-1.5,0.1-2.2
			c1.9-29.5,15.5-55.5,35.9-73.8S89.5,4.5,118.9,5.8c0.7,0,1.5,0.1,2.2,0.1c29.6,1.9,55.5,15.5,73.8,35.9s28.9,47.7,27.6,77.1
			c0,0.7-0.1,1.5-0.1,2.2c-1.9,29.5-15.5,55.5-35.9,73.8s-47.7,28.9-77.2,27.6c-0.7,0-1.5-0.1-2.2-0.1L107,225.3l-0.2,2.8
			c0.8,0.1,1.6,0.1,2.3,0.1c31,1.4,59.7-9.8,81.2-29s35.8-46.6,37.8-77.7c0.1-0.8,0.1-1.6,0.1-2.4c1.4-31-9.8-59.7-29-81.2
			C180,16.5,152.6,2.3,121.5,0.2c-0.8-0.1-1.6-0.1-2.4-0.1C88.2-1.3,59.5,9.9,38,29.1C16.5,48.4,2.3,75.7,0.2,106.8
			c-0.1,0.8-0.1,1.6-0.1,2.3c-1.4,31,9.8,59.7,29,81.2s46.6,35.8,77.7,37.8L107,225.3z"/>
	</g>
	<polyline class="st0" points="46,177.8 183.6,51.9 182.4,50.5 44.7,176.5 	"/>
</g>
</svg>
