<?xml version="1.0" encoding="utf-8"?>
<!-- Generator: Adobe Illustrator 22.0.1, SVG Export Plug-In . SVG Version: 6.00 Build 0)  -->
<svg version="1.1" id="Layer_1" xmlns="http://www.w3.org/2000/svg" xmlns:xlink="http://www.w3.org/1999/xlink" x="0px" y="0px"
	 viewBox="0 0 1024 45" style="enable-background:new 0 0 1024 45;" xml:space="preserve">
<style type="text/css">
	.st0{fill:#FFFFFF;}
</style>
<path id="innerS" class="st0" d="M548.9,30c0.5,0.4,0.9,0.5,1.3,0.5c0.3,0,1-0.3,1.2-0.3c0.2,0,0.8,0.7,1.1,0.7
	c0.2,0,0.3-0.2,0.5-0.2c0.5,0,3,1,3.6,1c0.2,0,0.5-0.2,0.6-0.2v-2.1c0-0.9-0.5-2.4-1.4-4.7L548.9,30L548.9,30z"/>
<path id="innerD" class="st0" d="M411.5,17.8l-0.7-1.2c-1.2-1.4-2.5-1.8-4.9-3.1c0.2,0-2.1,0.6-2.1,1.2c-0.1,0.1-0.1,0.4-0.1,0.7
	c-0.3,0.6-0.5,1.5-0.8,2.3l-0.1,0.5c-0.3,0.4-0.6,1.6-1.3,3.7l-0.1,0.2l-0.3,1c-0.1,0.4-0.4,1.2-0.8,2.3c-0.4,1.5-1,2-2,5.8
	l-0.1,0.3l-0.1,0.7c0,0.1-0.2,0.5-0.2,0.6c0,0.3-0.1,0.8-0.1,1.3c3.9-0.9,1,0.2,7.2-2.5c4.3-2.3,6.6-4.2,7.6-7.6
	c0.1-0.3,0.2-0.6,0.2-0.8c0.1-0.5,0.1-0.9,0.1-1.3C412.5,21.6,412.5,20.6,411.5,17.8z"/>
<path id="innerA" class="st0" d="M429.9,19.1c-0.3,0-0.8,0.4-1.6,1c-1.2,0.7-2.6,2.3-6.5,6.9c-0.4,0.6-3.3,4.7-3.3,5.6
	c0,0.3,0.1,0.4,0.4,0.4c0.8,0,2.2-1.9,4.4-3.6c0.4-0.6,0.9-1,3.6-3.6c0-0.5,1.7-3.2,2.6-3.8c0.6-1.5,1-2.3,1-2.3
	C430.4,19.2,430.2,19,429.9,19.1z"/>
<path id="innerA2" class="st0" d="M539.5,19.1c-0.3,0-0.8,0.4-1.6,1c-1.2,0.7-2.6,2.3-6.5,6.9c-0.4,0.6-3.3,4.7-3.3,5.6
	c0,0.3,0.1,0.4,0.4,0.4c0.8,0,2.2-1.9,4.4-3.6c0.4-0.6,0.9-1,3.6-3.6c0-0.5,1.7-3.2,2.6-3.8c0.6-1.5,1-2.3,1-2.3
	C540,19.2,539.9,19,539.5,19.1L539.5,19.1z"/>
<path id="innerO" class="st0" d="M626.3,20.2c0-0.6-0.4-1.6-1-1.6c-0.5,0-1.5,0.7-3.2,2.2c-4,3.5-5.5,5.8-7.3,8.1
	c-0.2,0.2-1.1,2.8-1.1,3.1c0,0.6,0.8,1.4,1.3,1.4c1.9,0,4-0.8,6.3-2.4c0.6-0.2,1.2-0.4,1.9-0.8c0.3-0.3,0.8-1.2,1.6-2.8
	c0.2-0.4,0.8-3.6,1.3-3.8c0-1.2,0.2-1.8,0.6-1.9v-0.6c-0.2,0-0.4-0.2-0.6-0.4C626.2,20.7,626.3,20.6,626.3,20.2z"/>
<path id="knockout" class="st0" d="M0,0v45h1024V0H0z M412.2,30.5c-1.8,2.2-4.5,3.3-6.9,5c-0.5,0-0.9,0.5-3.2,1.4l-0.2,0.1
	c-0.8,0.1-1.4,0.4-2.9,0.9c0,0-1.6-0.2-1.6,0.1h-0.5c-0.3,0.1-0.7,0.1-1.2,0.1c0,0-0.1-0.4-0.7-0.6h-0.2l-0.2-0.1h-0.3
	c0-0.1-0.1-0.1-0.1-0.1c-0.1,0-0.2,0.1-0.2,0.1s-0.2-0.1-0.3-0.3v0.1h-0.1c-0.1-0.1-0.3-0.3-0.3-0.5h-0.1v0.1h-0.1
	c0-0.1-0.2-0.2-0.2-0.2c0-0.1-0.1,0-0.3,0l-0.1,0.1l-0.5-0.1v-0.1h-0.2c-0.1-0.1-0.1-0.4-0.1-0.7c0.1,0,0.1-0.2,0.2-0.3l0.1-0.3
	c0.3-0.5,0.8-1.1,1.2-1.8l0.5-2.6c0,0,0-0.2,0.2-0.7l0.2-0.8c0.7-2.2,1-2.9,2.8-9l0.2-0.1l0.6-1.4c-0.6,0.8,1.3-3.5,1.4-3.5l0.2-0.4
	c0.1-0.5,0.6-1.3,0.8-2.2c0.6-3,1.6-2.4,1.9-2.6c0-0.1,1.8-1.4,2.8-1.2c0.1,0,0.4,0.1,0.6,0.2c0.5,0,0.8,0,1.6-0.2
	c0,0,0.1,0,0.2,0.1c0,0,0.1-0.1,0.2-0.1c0,0,0.5,0.5,2.2,1.3c0.9,0.4,0.5-0.2,4,3.2c0.4,0.6,1.2,0.8,2,3.2c0.1,1.1,0-0.9,0.9,2.9
	c0,0.6,0.4,1.9,0.1,3.8c-0.2,0.7-0.4,1.4-0.9,2.2l0.1,0.1C415.7,26.2,414.7,28.5,412.2,30.5z M432.7,31.7l-0.7,4.2v0.7
	c0,0.4,0,0.8,0.1,1.2c-0.2-0.3-0.5-0.7-1.1-1.2c-1.1-1.1-1.2-1.7-1.2-3.4c0-1.5,0.2-2.4,0.4-3c-0.2-0.2-0.3-0.3-0.5-0.3
	c-0.6,0-1.2,1-4.4,3.8c-0.4,1.1-1.3,1.6-4.7,3.4c-0.7,0.8-1.3,1.2-2.1,1.2c-0.1,0-1.6-0.7-2-2c-0.6-1.9-1.9-2.4-1.9-4.3
	c0-0.6,0.2-1.4,0.5-2.7c0.4-0.2,0.9-0.5,1.4-1.1c0.2-1.3,0.3-1.2,3.1-5.6c1.2-0.9,0.9-1.7,2.8-3.4c2.8-3.7,4.9-6.2,6.7-6.2
	c0.6,0,1.2,0.4,2.1,1.3c1.2,0,0.7,0.7,3.3,1.4c0,0,2.2,0.9,2.2,2.2c0,0.2-0.4,0.9-0.4,1.1c0,0.4-0.1,0.9-0.2,1.6
	c-0.8,0.8-1.5,4.4-2.6,6.9C433.3,28.4,433,29.7,432.7,31.7z M457.5,27.7c-0.4,1.3-0.6,2.4-1.7,4.9c-0.1,0.8-1.1,3.4-1.9,3.3
	l-0.2,0.1c-0.1,0.1-1,0.3-1.7,0.3c-0.8,0.6-1.5,1.2-2.4,1c-0.3-0.2-0.6-0.1-1.4-1.5c-1.4-2.3-2.5-4-3.4-7.4l-0.3-0.4l-0.8-2.9
	c-0.1-0.3-0.3-2-1.1-2.3c-0.2,0.5-0.6,1.3-1,2.4c-0.2,0.4-0.8,1.5-1.6,3.6V29c-0.3,0.5-0.9,1.6-2.1,5c-0.5,0.4-0.4,2.1-2.4,3
	c-0.1,0-0.3,0.4-0.8,0.3l-0.1-0.1l-0.1-0.2c-0.3-0.2-0.4-0.6-0.3-1.3c0.2,0-0.1-0.8,0.6-2.4c0.8-1.5,0.8-2,1.3-3.3l0.5-1.2
	c0.7-2,1.7-4.9,3.2-8.9c0.2-0.6,1.6-5.5,2.8-5.3h0.5c0.9,0.2,0.9,0.4,1.3,1l0.7,1.2c0.2,1,0.1,0.8,1.7,5.5c0.1,1.2,0.1-0.4,1.5,5.6
	c0.2,0.4,0.6,1,1,3.3l0.3,0.5c0.1,0.2,0.1,0.4,0.2,0.7c0.3-0.2,0.2-0.1,1.4-0.5l0.4-0.2c0.3-0.7,0.1-0.7,1-2.6
	c0.4-0.8,2.4-6.6,3-8.7c0.1-0.3,0.9-2.8,3.2-7.8c0.2-1.5,1.5-1.6,2.4-1.7c0.4,0.1,0.4,0.4,0.4,0.7c0,0,0,0.2-0.1,0.4l-0.1,0.3
	c-0.1,0.2-0.3,0.6-0.5,1.2v0.1c0,0-0.1,0.1-0.1,0.2s0.1,0.2,0.1,0.3c0,0.2-0.1,0.5-0.2,1c-0.6,1.9,0,2.1-2.2,8.3
	c0,0.1,0.1,0.2,0.1,0.3c-0.2,1-0.8,2.5-0.9,3.3L457.5,27.7L457.5,27.7z M485.6,11.4l-0.1,0.3c-0.1,0.2-0.3,0.6-0.5,1.2V13
	c0,0-0.1,0.1-0.1,0.2s0.1,0.2,0.1,0.3c0,0.2-0.1,0.5-0.2,1c-0.6,1.9,0,2.1-2.2,8.3c0,0.1,0.1,0.2,0.1,0.3c-0.2,1-0.8,2.5-0.9,3.3
	l-0.1,0.6c-0.4,1.3-0.6,2.4-1.7,4.9c-0.1,0.8-1.1,3.4-1.9,3.3l-0.3,0.1c-0.1,0.1-1,0.3-1.7,0.3c-0.8,0.6-1.5,1.2-2.4,1
	c-0.3-0.2-0.6-0.1-1.4-1.5c-1.4-2.3-2.5-4-3.4-7.4l-0.2-0.4l-0.8-2.9c-0.1-0.3-0.3-2-1.1-2.3c-0.2,0.5-0.6,1.3-1,2.4
	c-0.2,0.4-0.8,1.5-1.6,3.6v0.2c-0.3,0.5-0.9,1.6-2.1,5c-0.5,0.4-0.4,2.1-2.4,3c-0.1,0-0.3,0.4-0.8,0.3l-0.1-0.1l-0.1-0.2
	c-0.3-0.2-0.4-0.6-0.3-1.3c0.2,0-0.1-0.8,0.6-2.4c0.8-1.5,0.8-2,1.3-3.3l0.5-1.2c0.7-2,1.7-4.9,3.2-8.9c0.2-0.6,1.6-5.5,2.8-5.3h0.5
	c0.9,0.2,0.9,0.4,1.3,1l0.7,1.2c0.2,1,0.1,0.8,1.7,5.5c0.1,1.2,0.1-0.4,1.5,5.6c0.2,0.4,0.6,1,1,3.3l0.3,0.5
	c0.1,0.2,0.1,0.4,0.2,0.7c0.3-0.2,0.2-0.1,1.4-0.5l0.4-0.2c0.3-0.7,0.1-0.7,1-2.6c0.4-0.8,2.4-6.6,3-8.7c0.1-0.3,0.9-2.8,3.2-7.8
	c0.2-1.4,1.5-1.6,2.4-1.6c0.4,0.1,0.4,0.4,0.4,0.7C485.6,11,485.6,11.1,485.6,11.4z M507,13.1l-8.5,8.8l-0.3,0.5l-1,1.2l-0.4,0.3
	l-0.6,0.7v0.1l-0.2,0.1l-0.4,0.4l-0.7,0.8v0.2l-1.2,3.5l-0.3,0.3l-0.9,3.1v0.4l-0.8,2.2l-0.2,0.3l-0.1,0.6l-0.3,0.6l-0.4,0.7v0.3
	l-0.3,0.3l-0.6,0.3L488,39l-1.1-0.6l-0.4-1.3v-1.5l0.6-3.3l0.6-2.3l0.6-1.5l1.3-3.3l0.4-1.3l-1.7-3.3l-0.8-2.1l-0.7-1.5l-0.2-1.4
	l0.2-2.2l0.5-0.4l1-0.7l0.4,0.3l0.1,0.3l0.3-0.3l1,0.6l0.5,0.7l1.2,2.2l0.6,1.3l1.1,2.8l0.3,1.3l0.7-0.6l1-1.3l1.2-1.2l0.2-0.1
	l0.4-0.5l3.2-2.7l3.6-2.9l1.5-1l1.6-1l0.9-0.2l0.6-0.3l0.5-0.3l0.7-0.2v0.4l-0.9,1l-0.4,0.6l-1.2,1.3L507,13.1L507,13.1z M523.1,16
	l-1.5,1.5l-0.8,0.8l-1.2,1.5l-0.7,1.6l-1,1.7l-0.4,0.4l-0.5,1.4l-0.5,0.8l-0.6,1.3l-0.6,1.7l-0.5,1.4l-0.3,1.8v1.3l0.2,1l0.6,0.8
	l0.9,0.5l1,0.1h1.3l3-0.5l0.1,0.2h0.2l-0.1,0.2l0.3,0.1l-0.1,0.1l0.1,0.2l-0.1,0.2h0.2l0.1,0.3H522l-0.4,0.2l-1.5,0.7H520l-1.5,0.6
	l-3.6,0.3l-1.8-0.4l-1.5-0.7l-1.2-0.9l-0.8-1l-0.8-1.8l-0.2-1.4l0.1-1.7l0.2-0.5v-0.5L509,29l0.1-1l0.3-0.6l0.4-1.3l1.5-3.3l0.1-0.1
	l0.4-0.6V22l0.5-0.7c0.1-0.1,0.2-0.2,0.2-0.3c0.5-1.2,1.1-1.8,1.7-2.5l0.5-0.7l0.4-0.5v-0.1l1.6-1.9l0.3-0.1v-0.3l1.4-1.7l0.6-0.4
	l0.3-0.3l1.2-1.4h0.2l0.1-0.2l0.8-0.5l0.4-0.4l0.3-0.1V10c0.1-0.1,0.2-0.1,0.2-0.1l1.2-0.5l2.5-0.4h0.5l0.6,0.2l0.6,0.3l0.2,0.2
	c0,0,0,0.1,0.1,0.1c0,0,0.1,0.1,0.2,0.1l0.5,0.2l0.3,0.1l0.3,0.3l0.3,0.4l0.2,0.4l0.4,0.7l-0.1,0.1l0.1,0.4l0.3,2l-0.4-0.2v0.8h-0.1
	v0.4l-0.5-0.5v0.3l-0.9-0.5h-0.4c-0.2,0.1-0.5,0.1-0.5,0.1h-0.3l-0.3-0.2c0,0-0.2-0.2-0.4-0.5l-0.1-0.2l-0.1-0.1h-0.1l-0.2,0.2v0.1
	H526l-0.1,0.1c-0.2,0.1-0.5,0.2-1,0.4l-0.7,0.5C524.2,15.2,523.1,16,523.1,16z M540.7,36.6c-1.1-1.1-1.2-1.7-1.2-3.4
	c0-1.5,0.2-2.4,0.4-3c-0.2-0.2-0.3-0.3-0.5-0.3c-0.6,0-1.2,1-4.4,3.8c-0.4,1.1-1.3,1.6-4.7,3.4c-0.7,0.8-1.3,1.2-2.1,1.2
	c-0.1,0-1.6-0.7-2-2c-0.6-1.9-1.9-2.4-1.9-4.3c0-0.6,0.2-1.4,0.5-2.7c0.4-0.2,0.9-0.5,1.4-1.1c0.2-1.3,0.3-1.2,3.1-5.6
	c1.2-0.9,0.9-1.7,2.8-3.4c2.8-3.7,4.9-6.2,6.7-6.2c0.6,0,1.2,0.4,2.1,1.3c1.2,0,0.7,0.7,3.3,1.4c-0.1,0,2.2,0.9,2.2,2.2
	c0,0.2-0.4,0.9-0.4,1.1c0,0.4-0.1,0.9-0.2,1.6c-0.8,0.8-1.5,4.4-2.6,6.9c-0.4,0.8-0.7,2.2-1,4.1l-0.7,4.2c-0.1,0.3-0.1,0.5-0.1,0.8
	c0,0.4,0,0.8,0.1,1.2C541.6,37.6,541.3,37.2,540.7,36.6L540.7,36.6z M558.7,24c0,0.1,0.3,1.5,0.8,4.1l0.8,4.1c0,0.3-0.3,1.1-0.8,2.4
	c-1.1,2.9-1.5,2.4-1.8,2.4c-1.4,0-2.8,0.1-5-0.6c-0.8-1.3-3-1-4.1-4.4c-0.2-0.5-0.5-0.7-1.1-0.7s-4,3.4-5.6,3.7
	c0.2-0.6,0.5-1.3,0.9-2.3c0.9-1.4,6.1-4,6.5-4.1c2.5-2,5.2-3.7,6.4-6c0-0.7,0.1-1.7,0.1-3.1c0-0.4,0.6-1.9,1.7-4.4
	c0.6-1.4,1-2.6,1-3.6c0.6-0.5,1.5-1.2,2.7-2.2c-0.2-0.2,3.6,2.9,4.8,2.9h0.3v0.7c0,1.5-0.7,2.8-2,4.1
	C563.1,17.9,558.7,20.5,558.7,24L558.7,24z M571.6,26.4c0,0.3-0.2,0.9-0.7,1.6l-0.3,0.9c0,0.1,0,0.4-0.1,0.6
	c-0.4,0.7-1.3,3.2-1.6,3.4c-0.2,0.5-0.4,0.9-0.4,1.3v1.1c-0.2,0.2-0.7,2.5-1.9,3.8c-0.1-1-0.2-1.9-0.2-2.9c0-0.3,0.1-0.8,0.2-1.4
	c-0.1-0.1-0.2-0.2-0.3-0.5c0-0.4,0.2-1.2,0.2-1.6c0-0.1-0.1-0.2-0.1-0.4c0-0.3,0.2-3.7,1.7-7c0-0.3,0.3-1.3,1.1-3
	c0-0.4-1.1-1.4-3.3-4c0.5-0.2,0.5-0.4,1.1-0.4c0.8,0,2,0,3.7,0.2c0.3-0.3,0.4-0.5,1.1-2c0-0.8,0.5-1.2,1.6-4.8
	c0.6-0.6,1-2.4,1.4-4.2h0.4c0.2,0,1.3-1.1,1.6-0.8c0.2,0,1.1,0.6,1.3,0.6c0.3,0,0.8,1.1,1,1.4L578.8,9c0,0.3-0.2,0.7-0.4,1.1
	c-1.3,2.4-1.8,4.6-3,7.2c0,0,0.1,0.1,0.2,0.4c0.6,0.1,1.2,0.1,1.8,0.1c2,0,2.9-0.2,5.6-1h0.3c0,0.1-1.5,0.8-1.7,1
	c0,0.1,0.2,0.2,0.4,0.2h0.6c-0.2,0.5-2.4,1.2-2.6,1.4c-0.4,0-0.2,0.7-1.8,1.1c-0.2,0.6-2,0.4-4.8,2C573.1,23.4,572.9,24,571.6,26.4z
	 M587.7,23.1c0,2-0.7,2.4-2.4,5c-0.9,3.4-0.2,2.3-3.8,9.3c-1.5,0-2.7-3-3-5c-0.1-0.6-0.8-0.5-0.8-1.9c0-1.3,0.9-1,1.3-3
	c0.7-2.2,0.6-2.1,2.9-4.4c0.3-0.3,0.4-0.6,0.5-1.1c1-0.7,1.7-1,2-1c0.2,0,0.9,0.3,3.3,1.7C587.7,22.7,587.7,23.1,587.7,23.1z
	 M588.4,9.5c0-1,0.6-3.4,1.2-3.4c0.6,0,3.4,2.9,3.5,3.4c0,0.4,0.7,1.4,0.7,1.8c0,0.2-0.7,1.2-0.7,1.5c-1.2,1.1-2,1.6-2.4,1.6
	C589.8,14.4,588.4,10.8,588.4,9.5z M601.1,13.4l-1.8,5.2l-1.7,4.5l-0.4,1.5l-0.4,0.8l-0.2,0.9l-0.4,0.8l-0.2,0.9l-0.5,3l-0.4,1.5
	l-0.3,1.7l-0.7,1.8l-0.7,0.7l-0.8,0.5l-0.6-0.3l-0.2-2.3l0.1-0.3l-0.1-0.4v-1.5l0.1-1.2l-0.1-0.3l-0.1-2.5l0.1-1.8l0.3-1.4l0.4-2
	l0.4-1.1l0.7-3.1l0.3-0.6l0.6-1.9l0.9-2.7v-0.7l0.5-0.7l0.5-1.1l0.7-1.1V9.8l1.1-1.8l0.3-0.2l0.5-0.9l1-0.9l1.1-0.4h0.4l0.7,0.3
	l0.4,0.6l0.2,1.2l-0.2,2.5l-0.7,1.5L601.1,13.4L601.1,13.4z M607.6,23l-0.4,1.5l-0.4,0.8l-0.2,0.9l-0.4,0.8l-0.2,0.9l-0.5,3
	l-0.4,1.5l-0.3,1.7l-0.7,1.8l-0.7,0.7l-0.8,0.5l-0.6-0.3l-0.2-2.3l0.1-0.3l-0.1-0.4v-1.5l0.1-1.2l-0.1-0.3l-0.1-2.5l0.1-1.8l0.3-1.4
	l0.4-2l0.4-1.1l0.7-3.1l0.3-0.6l0.6-1.9l0.9-2.7v-0.7l0.5-0.7l0.5-1.1l0.7-1.1V9.8l1.1-1.8l0.3-0.2l0.5-0.9l1-0.9l1.1-0.4h0.4
	l0.7,0.3l0.4,0.6l0.2,1.2l-0.2,2.5l-0.7,1.5l-0.7,1.5l-1.8,5.2L607.6,23L607.6,23z M631.2,27c-0.9,3.9-3,5.6-10.3,9.3
	c-0.1,0.1-0.6,0.1-1.4,0.2c-1,1.1-2.3,1.7-4,1.7c-0.9,0-1.4-0.1-1.6-0.3l-1.9-1.6h-0.2c-2.1,0-2-3.3-2.2-3.6
	c0.2-0.3,0.3-0.5,0.3-0.6c0-0.2-0.3-0.5-0.3-0.7c0-0.6,0.3-2.2,0.3-2.8c0.3-0.1,1.3-0.4,1.3-1.1c0-0.2-0.3-1.1-0.3-1.3
	c1.3-1.1,1.3-1.6,3.1-4.4c0.8-1.3,7.3-7.7,8-7.7c0.2,0,0.7,0.2,0.9,0.2c0.3,0,0.7-0.5,1.4-1.4c0.2,0,0.5,0.4,1.1,0.8l1.5,0.4
	c0.4,0.2,1,0.5,1.8,0.8c3.3,0,3.7,4.1,3.7,7.4C632.3,24.1,632,25.6,631.2,27L631.2,27z"/>
</svg>
