<?xml version="1.0" encoding="utf-8"?>
<!-- Generator: Adobe Illustrator 22.0.1, SVG Export Plug-In . SVG Version: 6.00 Build 0)  -->
<svg version="1.1" id="Layer_1" xmlns="http://www.w3.org/2000/svg" xmlns:xlink="http://www.w3.org/1999/xlink" x="0px" y="0px"
	 viewBox="0 0 302 42" style="enable-background:new 0 0 302 42;" xml:space="preserve">
<style type="text/css">
	.st0{fill:#FFFFFF;}
</style>
<path id="innerS" class="st0" d="M187.9,28.5c0.5,0.4,0.9,0.5,1.3,0.5c0.3,0,1-0.3,1.2-0.3s0.8,0.7,1.1,0.7c0.2,0,0.3-0.2,0.5-0.2
	c0.5,0,3,1,3.6,1c0.2,0,0.5-0.2,0.6-0.2v-2.1c0-0.9-0.5-2.4-1.4-4.7L187.9,28.5L187.9,28.5z"/>
<path id="innerD" class="st0" d="M50.5,16.3l-0.7-1.2c-1.2-1.4-2.5-1.8-4.9-3.1c0.2,0-2.1,0.6-2.1,1.2c-0.1,0.1-0.1,0.4-0.1,0.7
	c-0.3,0.6-0.5,1.5-0.8,2.3l-0.1,0.5c-0.3,0.4-0.6,1.6-1.3,3.7l-0.1,0.2l-0.3,1c-0.1,0.4-0.4,1.2-0.8,2.3c-0.4,1.5-1,2-2,5.8L37.2,30
	l-0.1,0.7c0,0.1-0.2,0.5-0.2,0.6c0,0.3-0.1,0.8-0.1,1.3c3.9-0.9,1,0.2,7.2-2.5c4.3-2.3,6.6-4.2,7.6-7.6c0.1-0.3,0.2-0.6,0.2-0.8
	c0.1-0.5,0.1-0.9,0.1-1.3C51.5,20.1,51.5,19.1,50.5,16.3z"/>
<path id="innerA" class="st0" d="M68.9,17.6c-0.3,0-0.8,0.4-1.6,1c-1.2,0.7-2.6,2.3-6.5,6.9c-0.4,0.6-3.3,4.7-3.3,5.6
	c0,0.3,0.1,0.4,0.4,0.4c0.8,0,2.2-1.9,4.4-3.6c0.4-0.6,0.9-1,3.6-3.6c0-0.5,1.7-3.2,2.6-3.8c0.6-1.5,1-2.3,1-2.3
	C69.4,17.8,69.2,17.5,68.9,17.6z"/>
<path id="innerA2" class="st0" d="M178.5,17.6c-0.3,0-0.8,0.4-1.6,1c-1.2,0.7-2.6,2.3-6.5,6.9c-0.4,0.6-3.3,4.7-3.3,5.6
	c0,0.3,0.1,0.4,0.4,0.4c0.8,0,2.2-1.9,4.4-3.6c0.4-0.6,0.9-1,3.6-3.6c0-0.5,1.7-3.2,2.6-3.8c0.6-1.5,1-2.3,1-2.3
	C179,17.8,178.9,17.5,178.5,17.6L178.5,17.6z"/>
<path id="innerO" class="st0" d="M265.3,18.8c0-0.6-0.4-1.6-1-1.6c-0.5,0-1.5,0.7-3.2,2.2c-4,3.5-5.5,5.8-7.3,8.1
	c-0.2,0.2-1.1,2.8-1.1,3.1c0,0.6,0.8,1.4,1.3,1.4c1.9,0,4-0.8,6.3-2.4c0.6-0.2,1.2-0.4,1.9-0.8c0.3-0.3,0.8-1.2,1.6-2.8
	c0.2-0.4,0.8-3.6,1.3-3.8c0-1.2,0.2-1.8,0.6-1.9v-0.6c-0.2,0-0.4-0.2-0.6-0.4C265.2,19.2,265.3,19.1,265.3,18.8z"/>
<path id="knockout" class="st0" d="M0,0v42h302V0H0z M51.2,29c-1.8,2.2-4.5,3.3-6.9,5c-0.5,0-0.9,0.5-3.2,1.4l-0.2,0.1
	c-0.8,0.1-1.4,0.4-2.9,0.9c0,0-1.6-0.2-1.6,0.1h-0.5c-0.3,0.1-0.7,0.1-1.2,0.1c0,0-0.1-0.4-0.7-0.6h-0.2l-0.2-0.1h-0.3
	c0-0.1-0.1-0.1-0.1-0.1c-0.1,0-0.2,0.1-0.2,0.1s-0.2-0.1-0.3-0.3v0.1h-0.1c-0.1-0.1-0.3-0.3-0.3-0.5h-0.1v0.1h-0.1
	c0-0.1-0.2-0.2-0.2-0.2c0-0.1-0.1,0-0.3,0l-0.1,0.1L31,35.1V35h-0.2c-0.1-0.1-0.1-0.4-0.1-0.7c0.1,0,0.1-0.2,0.2-0.3l0.1-0.3
	c0.3-0.5,0.8-1.1,1.2-1.8l0.5-2.6c0,0,0-0.2,0.2-0.7l0.2-0.8c0.7-2.2,1-2.9,2.8-9l0.2-0.1l0.6-1.4c-0.6,0.8,1.3-3.5,1.4-3.5l0.2-0.4
	c0.1-0.5,0.6-1.3,0.8-2.2c0.6-3,1.6-2.4,1.9-2.6c0-0.1,1.8-1.4,2.8-1.2c0.1,0,0.4,0.1,0.6,0.2c0.5,0,0.8,0,1.6-0.2
	c0,0,0.1,0,0.2,0.1c0,0,0.1-0.1,0.2-0.1c0,0,0.5,0.5,2.2,1.3c0.9,0.4,0.5-0.2,4,3.2c0.4,0.6,1.2,0.8,2,3.2c0.1,1.1,0-0.9,0.9,2.9
	c0,0.6,0.4,1.9,0.1,3.8c-0.2,0.7-0.4,1.4-0.9,2.2l0.1,0.1C54.7,24.7,53.7,27,51.2,29z M71.7,30.2L71,34.4v0.7c0,0.4,0,0.8,0.1,1.2
	c-0.2-0.3-0.5-0.7-1.1-1.2c-1.1-1.1-1.2-1.7-1.2-3.4c0-1.5,0.2-2.4,0.4-3c-0.2-0.2-0.3-0.3-0.5-0.3c-0.6,0-1.2,1-4.4,3.8
	c-0.4,1.1-1.3,1.6-4.7,3.4c-0.7,0.8-1.3,1.2-2.1,1.2c-0.1,0-1.6-0.7-2-2c-0.6-1.9-1.9-2.4-1.9-4.3c0-0.6,0.2-1.4,0.5-2.7
	c0.4-0.2,0.9-0.5,1.4-1.1c0.2-1.3,0.3-1.2,3.1-5.6c1.2-0.9,0.9-1.7,2.8-3.4c2.8-3.7,4.9-6.2,6.7-6.2c0.6,0,1.2,0.4,2.1,1.3
	c1.2,0,0.7,0.7,3.3,1.4c0,0,2.2,0.9,2.2,2.2c0,0.2-0.4,0.9-0.4,1.1c0,0.4-0.1,0.9-0.2,1.6c-0.8,0.8-1.5,4.4-2.6,6.9
	C72.3,26.9,72,28.2,71.7,30.2z M96.5,26.2c-0.4,1.3-0.6,2.4-1.7,4.9c-0.1,0.8-1.1,3.4-1.9,3.3l-0.2,0.1c-0.1,0.1-1,0.3-1.7,0.3
	c-0.8,0.6-1.5,1.2-2.4,1c-0.3-0.2-0.6-0.1-1.4-1.5c-1.4-2.3-2.5-4-3.4-7.4l-0.3-0.4l-0.8-2.9c-0.1-0.3-0.3-2-1.1-2.3
	c-0.2,0.5-0.6,1.3-1,2.4c-0.2,0.4-0.8,1.5-1.6,3.6v0.2c-0.3,0.5-0.9,1.6-2.1,5c-0.5,0.4-0.4,2.1-2.4,3c-0.1,0-0.3,0.4-0.8,0.3
	l-0.1-0.1l-0.1-0.2c-0.3-0.2-0.4-0.6-0.3-1.3c0.2,0-0.1-0.8,0.6-2.4c0.8-1.5,0.8-2,1.3-3.3l0.5-1.2c0.7-2,1.7-4.9,3.2-8.9
	c0.2-0.6,1.6-5.5,2.8-5.3h0.5c0.9,0.2,0.9,0.4,1.3,1l0.7,1.2c0.2,1,0.1,0.8,1.7,5.5c0.1,1.2,0.1-0.4,1.5,5.6c0.2,0.4,0.6,1,1,3.3
	l0.3,0.5c0.1,0.2,0.1,0.4,0.2,0.7c0.3-0.2,0.2-0.1,1.4-0.5l0.4-0.2c0.3-0.7,0.1-0.7,1-2.6c0.4-0.8,2.4-6.6,3-8.7
	c0.1-0.3,0.9-2.8,3.2-7.8c0.2-1.5,1.5-1.6,2.4-1.7c0.4,0.1,0.4,0.4,0.4,0.7c0,0,0,0.2-0.1,0.4l-0.1,0.3c-0.1,0.2-0.3,0.6-0.5,1.2
	v0.1c0,0-0.1,0.1-0.1,0.2s0.1,0.2,0.1,0.3c0,0.2-0.1,0.5-0.2,1c-0.6,1.9,0,2.1-2.2,8.3c0,0.1,0.1,0.2,0.1,0.3
	c-0.2,1-0.8,2.5-0.9,3.3L96.5,26.2L96.5,26.2z M124.6,9.9l-0.1,0.3c-0.1,0.2-0.3,0.6-0.5,1.2v0.1c0,0-0.1,0.1-0.1,0.2
	s0.1,0.2,0.1,0.3c0,0.2-0.1,0.5-0.2,1c-0.6,1.9,0,2.1-2.2,8.3c0,0.1,0.1,0.2,0.1,0.3c-0.2,1-0.8,2.5-0.9,3.3l-0.1,0.6
	c-0.4,1.3-0.6,2.4-1.7,4.9c-0.1,0.8-1.1,3.4-1.9,3.3l-0.3,0.1c-0.1,0.1-1,0.3-1.7,0.3c-0.8,0.6-1.5,1.2-2.4,1
	c-0.3-0.2-0.6-0.1-1.4-1.5c-1.4-2.3-2.5-4-3.4-7.4l-0.2-0.4l-0.8-2.9c-0.1-0.3-0.3-2-1.1-2.3c-0.2,0.5-0.6,1.3-1,2.4
	c-0.2,0.4-0.8,1.5-1.6,3.6v0.2c-0.3,0.5-0.9,1.6-2.1,5c-0.5,0.4-0.4,2.1-2.4,3c-0.1,0-0.3,0.4-0.8,0.3L97.8,35l-0.1-0.2
	c-0.3-0.2-0.4-0.6-0.3-1.3c0.2,0-0.1-0.8,0.6-2.4c0.8-1.5,0.8-2,1.3-3.3l0.5-1.2c0.7-2,1.7-4.9,3.2-8.9c0.2-0.6,1.6-5.5,2.8-5.3h0.5
	c0.9,0.2,0.9,0.4,1.3,1l0.7,1.2c0.2,1,0.1,0.8,1.7,5.5c0.1,1.2,0.1-0.4,1.5,5.6c0.2,0.4,0.6,1,1,3.3l0.3,0.5
	c0.1,0.2,0.1,0.4,0.2,0.7c0.3-0.2,0.2-0.1,1.4-0.5l0.4-0.2c0.3-0.7,0.1-0.7,1-2.6c0.4-0.8,2.4-6.6,3-8.7c0.1-0.3,0.9-2.8,3.2-7.8
	c0.2-1.4,1.5-1.6,2.4-1.6c0.4,0.1,0.4,0.4,0.4,0.7C124.6,9.5,124.6,9.6,124.6,9.9z M146,11.6l-8.5,8.8l-0.3,0.5l-1,1.2l-0.4,0.3
	l-0.6,0.7v0.1l-0.2,0.1l-0.4,0.4l-0.7,0.8v0.2l-1.2,3.5l-0.3,0.3l-0.9,3.1V32l-0.8,2.2l-0.2,0.3l-0.1,0.6l-0.3,0.6l-0.4,0.7v0.3
	l-0.3,0.3l-0.6,0.3l-1.8,0.2l-1.1-0.6l-0.4-1.3v-1.5l0.6-3.3l0.6-2.3l0.6-1.5l1.3-3.3l0.4-1.3l-1.7-3.3l-0.8-2.1l-0.7-1.5l-0.2-1.4
	l0.2-2.2l0.5-0.4l1-0.7l0.4,0.3l0.1,0.3l0.3-0.3l1,0.6l0.5,0.7l1.2,2.2l0.6,1.3l1.1,2.8l0.3,1.3l0.7-0.6l1-1.3l1.2-1.2l0.2-0.1
	l0.4-0.5l3.2-2.7l3.6-2.9l1.5-1l1.6-1l0.9-0.2l0.6-0.3l0.5-0.3l0.7-0.2v0.4l-0.9,1l-0.4,0.6l-1.2,1.3L146,11.6L146,11.6z
	 M162.1,14.5l-1.5,1.5l-0.8,0.8l-1.2,1.5l-0.7,1.6l-1,1.7l-0.4,0.4l-0.5,1.4l-0.5,0.8l-0.6,1.3l-0.6,1.7l-0.5,1.4l-0.3,1.8v1.3
	l0.2,1l0.6,0.8l0.9,0.5l1,0.1h1.3l3-0.5l0.1,0.2h0.2l-0.1,0.2h0.3l-0.1,0.1l0.1,0.2l-0.1,0.2h0.2l0.1,0.3H161l-0.4,0.2l-1.5,0.7H159
	l-1.5,0.6l-3.6,0.3l-1.8-0.4l-1.5-0.7l-1.2-0.9l-0.8-1l-0.8-1.8l-0.2-1.4l0.1-1.7l0.2-0.5v-0.5l0.1-0.2l0.1-1l0.3-0.6l0.4-1.3
	l1.5-3.3l0.1-0.1l0.4-0.6v-0.2l0.5-0.7c0.1-0.1,0.2-0.2,0.2-0.3c0.5-1.2,1.1-1.8,1.7-2.5l0.5-0.7l0.4-0.5v-0.1l1.6-1.9l0.3-0.1v-0.3
	l1.4-1.7l0.6-0.4l0.3-0.3l1.2-1.4h0.2l0.1-0.2l0.8-0.5l0.4-0.4l0.3-0.1v0.1c0.1-0.1,0.2-0.1,0.2-0.1l1.2-0.5l2.5-0.4h0.5l0.6,0.2
	l0.6,0.3l0.2,0.2c0,0,0,0.1,0.1,0.1c0,0,0.1,0.1,0.2,0.1l0.5,0.2l0.3,0.1l0.3,0.3l0.3,0.4l0.2,0.4l0.4,0.7l-0.1,0.1l0.1,0.4l0.3,2
	l-0.4-0.2v0.8h-0.1V14l-0.5-0.5v0.3l-0.9-0.5h-0.4c-0.2,0.1-0.5,0.1-0.5,0.1h-0.3l-0.3-0.2c0,0-0.2-0.2-0.4-0.5l-0.1-0.2l-0.1-0.1
	h-0.1l-0.2,0.2v0.1H165l-0.1,0.1c-0.2,0.1-0.5,0.2-1,0.4l-0.7,0.5C163.2,13.7,162.1,14.5,162.1,14.5z M179.7,35.1
	c-1.1-1.1-1.2-1.7-1.2-3.4c0-1.5,0.2-2.4,0.4-3c-0.2-0.2-0.3-0.3-0.5-0.3c-0.6,0-1.2,1-4.4,3.8c-0.4,1.1-1.3,1.6-4.7,3.4
	c-0.7,0.8-1.3,1.2-2.1,1.2c-0.1,0-1.6-0.7-2-2c-0.6-1.9-1.9-2.4-1.9-4.3c0-0.6,0.2-1.4,0.5-2.7c0.4-0.2,0.9-0.5,1.4-1.1
	c0.2-1.3,0.3-1.2,3.1-5.6c1.2-0.9,0.9-1.7,2.8-3.4c2.8-3.7,4.9-6.2,6.7-6.2c0.6,0,1.2,0.4,2.1,1.3c1.2,0,0.7,0.7,3.3,1.4
	c-0.1,0,2.2,0.9,2.2,2.2c0,0.2-0.4,0.9-0.4,1.1c0,0.4-0.1,0.9-0.2,1.6c-0.8,0.8-1.5,4.4-2.6,6.9c-0.4,0.8-0.7,2.2-1,4.1l-0.7,4.2
	c-0.1,0.3-0.1,0.5-0.1,0.8c0,0.4,0,0.8,0.1,1.2C180.6,36.1,180.3,35.7,179.7,35.1L179.7,35.1z M197.7,22.5c0,0.1,0.3,1.5,0.8,4.1
	l0.8,4.1c0,0.3-0.3,1.1-0.8,2.4c-1.1,2.9-1.5,2.4-1.8,2.4c-1.4,0-2.8,0.1-5-0.6c-0.8-1.3-3-1-4.1-4.4c-0.2-0.5-0.5-0.7-1.1-0.7
	s-4,3.4-5.6,3.7c0.2-0.6,0.5-1.3,0.9-2.3c0.9-1.4,6.1-4,6.5-4.1c2.5-2,5.2-3.7,6.4-6c0-0.7,0.1-1.7,0.1-3.1c0-0.4,0.6-1.9,1.7-4.4
	c0.6-1.4,1-2.6,1-3.6c0.6-0.5,1.5-1.2,2.7-2.2c-0.2-0.2,3.6,2.9,4.8,2.9h0.3v0.7c0,1.5-0.7,2.8-2,4.1
	C202.1,16.4,197.7,19,197.7,22.5L197.7,22.5z M210.6,24.9c0,0.3-0.2,0.9-0.7,1.6l-0.3,0.9c0,0.1,0,0.4-0.1,0.6
	c-0.4,0.7-1.3,3.2-1.6,3.4c-0.2,0.5-0.4,0.9-0.4,1.3v1.1c-0.2,0.2-0.7,2.5-1.9,3.8c-0.1-1-0.2-1.9-0.2-2.9c0-0.3,0.1-0.8,0.2-1.4
	c-0.1-0.1-0.2-0.2-0.3-0.5c0-0.4,0.2-1.2,0.2-1.6c0-0.1-0.1-0.2-0.1-0.4c0-0.3,0.2-3.7,1.7-7c0-0.3,0.3-1.3,1.1-3
	c0-0.4-1.1-1.4-3.3-4c0.5-0.2,0.5-0.4,1.1-0.4c0.8,0,2,0,3.7,0.2c0.3-0.3,0.4-0.5,1.1-2c0-0.8,0.5-1.2,1.6-4.8
	c0.6-0.6,1-2.4,1.4-4.2h0.4c0.2,0,1.3-1.1,1.6-0.8c0.2,0,1.1,0.6,1.3,0.6c0.3,0,0.8,1.1,1,1.4l-0.3,0.7c0,0.3-0.2,0.7-0.4,1.1
	c-1.3,2.4-1.8,4.6-3,7.2c0,0,0.1,0.1,0.2,0.4c0.6,0.1,1.2,0.1,1.8,0.1c2,0,2.9-0.2,5.6-1h0.3c0,0.1-1.5,0.8-1.7,1
	c0,0.1,0.2,0.2,0.4,0.2h0.6c-0.2,0.5-2.4,1.2-2.6,1.4c-0.4,0-0.2,0.7-1.8,1.1c-0.2,0.6-2,0.4-4.8,2
	C212.1,21.9,211.9,22.5,210.6,24.9z M226.7,21.6c0,2-0.7,2.4-2.4,5c-0.9,3.4-0.2,2.3-3.8,9.3c-1.5,0-2.7-3-3-5
	c-0.1-0.6-0.8-0.5-0.8-1.9c0-1.3,0.9-1,1.3-3c0.7-2.2,0.6-2.1,2.9-4.4c0.3-0.3,0.4-0.6,0.5-1.1c1-0.7,1.7-1,2-1
	c0.2,0,0.9,0.3,3.3,1.7C226.7,21.2,226.7,21.6,226.7,21.6z M227.4,8c0-1,0.6-3.4,1.2-3.4s3.4,2.9,3.5,3.4c0,0.4,0.7,1.4,0.7,1.8
	c0,0.2-0.7,1.2-0.7,1.5c-1.2,1.1-2,1.6-2.4,1.6C228.8,12.9,227.4,9.3,227.4,8z M240.1,11.9l-1.8,5.2l-1.7,4.5l-0.4,1.5l-0.4,0.8
	l-0.2,0.9l-0.4,0.8l-0.2,0.9l-0.5,3l-0.4,1.5l-0.3,1.7l-0.7,1.8l-0.7,0.7l-0.8,0.5l-0.6-0.3l-0.2-2.3l0.1-0.3l-0.1-0.4v-1.5l0.1-1.2
	l-0.1-0.3l-0.1-2.5l0.1-1.8l0.3-1.4l0.4-2l0.4-1.1l0.7-3.1l0.3-0.6l0.6-1.9l0.9-2.7v-0.7l0.5-0.7l0.5-1.1l0.7-1.1V8.3l1.1-1.8
	l0.3-0.2l0.5-0.9l1-0.9l1.1-0.4h0.4l0.7,0.3l0.4,0.6l0.2,1.2l-0.2,2.5l-0.7,1.5L240.1,11.9L240.1,11.9z M246.6,21.5l-0.4,1.5
	l-0.4,0.8l-0.2,0.9l-0.4,0.8l-0.2,0.9l-0.5,3l-0.4,1.5l-0.3,1.7l-0.7,1.8l-0.7,0.7l-0.8,0.5l-0.6-0.3l-0.2-2.3l0.1-0.3l-0.1-0.4
	v-1.5l0.1-1.2l-0.1-0.3l-0.1-2.5l0.1-1.8l0.3-1.4l0.4-2l0.4-1.1l0.7-3.1l0.3-0.6l0.6-1.9l0.9-2.7v-0.7l0.5-0.7l0.5-1.1l0.7-1.1V8.3
	l1.1-1.8l0.3-0.2l0.5-0.9l1-0.9l1.1-0.4h0.4l0.7,0.3l0.4,0.6l0.2,1.2l-0.2,2.5l-0.7,1.5l-0.7,1.5l-1.8,5.2L246.6,21.5L246.6,21.5z
	 M270.2,25.5c-0.9,3.9-3,5.6-10.3,9.3c-0.1,0.1-0.6,0.1-1.4,0.2c-1,1.1-2.3,1.7-4,1.7c-0.9,0-1.4-0.1-1.6-0.3l-1.9-1.6h-0.2
	c-2.1,0-2-3.3-2.2-3.6c0.2-0.3,0.3-0.5,0.3-0.6c0-0.2-0.3-0.5-0.3-0.7c0-0.6,0.3-2.2,0.3-2.8c0.3-0.1,1.3-0.4,1.3-1.1
	c0-0.2-0.3-1.1-0.3-1.3c1.3-1.1,1.3-1.6,3.1-4.4c0.8-1.3,7.3-7.7,8-7.7c0.2,0,0.7,0.2,0.9,0.2c0.3,0,0.7-0.5,1.4-1.4
	c0.2,0,0.5,0.4,1.1,0.8l1.5,0.4c0.4,0.2,1,0.5,1.8,0.8c3.3,0,3.7,4.1,3.7,7.4C271.3,22.6,271,24.1,270.2,25.5L270.2,25.5z"/>
</svg>
