<svg version="1.1" id="Layer_1" xmlns="http://www.w3.org/2000/svg" xmlns:xlink="http://www.w3.org/1999/xlink" x="0px" y="0px"
	 viewBox="0 0 317.6 77.8" style="enable-background:new 0 0 317.6 77.8;" xml:space="preserve">
<style type="text/css">
	.st0{fill:#FFFFFFF;}
	.st1{fill:red;}
	.st2{fill:#FFFFFF;}
	.st3{fill:rgba(0,0,0,1)}
</style>
<path class="st0" d="M267.5,37.2l13,17.3l-0.1,0.1C280.4,54.6,267.5,37.2,267.5,37.2z"/>
<path class="st1" d="M271.3,7.1v6.1c-4.9-5.3-11.9-6.4-20.9-6.4c-7.7,0-15.2-0.1-15.2-0.1l0.1,1c0,0,1.5,2,1.7,2.6
	c0.5,3.3,0.8,7.8,1,12.3c-1.4-4.8-6.5-17.3-27.2-17.3c-12.1,0-19.3,4.3-24.4,14.2c0,0,1.1-12.6-22.2-12.6h-16.4l0.1,1
	c0,0,1.6,1.9,1.7,2.9c0.6,4.5,1.3,13.8,1.3,33.4c0,0-2.4-4.8-7.7-8.9c-5-3.8-12.8-7.4-17-10.4c-3.1-2.2-4.6-4.8-3.8-7.8
	c0.6-2.5,3.6-3.7,6.6-3.8c8.7,0,16.5,5.3,20,11.5c-0.2-4.1-0.3-7.4-0.7-11.4l-0.5-0.8c-6-6.4-11.7-8.8-21.2-8.9
	c-8.4-0.1-18.1,5.1-18.1,12.6l0.1-9L97.8,7.2v22.1l-22-22.2H65.3v34l-14.5-34H39.4L26.7,38.3V7.1H11.1v49.6c0,2.5-0.3,4.8-3,6.6
	c-1.8,1.1-4,1.1-4,1.1v7.1c19,0,22-9.5,22.2-17h3.6l5.9-15.1h14.9l6.4,15.1h17.3V29.7l25.9,24.9h8.2V27.1c0,0,1.4,6,6.9,10.7
	c5.4,4.6,18.9,13.4,21.1,16.7c5.5,8.2-12.1,16.9-27.1,1.9v11.4c9.7,6.8,23.3,8,33.1,3.7c10.6-4.6,10.7-17,10.7-17l12,0.1
	c0,0-0.1-11.6-0.1-17.2c0,0,16.5,0.9,19.2-5.9c2.4,13.6,12.1,22.9,27.1,22.9c19.9,0,26.7-14.1,26.9-23v23.2h14.3V37.3l13,17.4
	l15.1-0.1l-14.3-19.1c8.8-2.6,8.7-12.9,7.3-18h9.9l0.1,37h14.7V17.4H309V7.1H271.3z M38.5,31.8l4.3-11.1l4.7,11.1H38.5z M164.9,28.6
	V15.9c0,0,9.2-0.8,9.2,6.8C174.2,29.7,164.9,28.6,164.9,28.6z M211,46.5c-6.4,0-11.7-7.5-11.7-16.8s5.2-16.8,11.7-16.8
	c6.4,0,11.7,7.5,11.7,16.8S217.5,46.5,211,46.5z M252.3,28.4V15.7c0,0,9.2-0.8,9.2,6.8C261.6,29.5,252.3,28.4,252.3,28.4z"/>
<path class="st2" d="M107,71l-1.6-1.1V58.5h-6.7L78.4,38.9v19.6H54.5l-6.4-15.1h-9.7l-5.9,15.1h-2.8c-0.6,3.3-1.9,7-4.8,10.1
	c-4.1,4.4-10.9,7-21,6.9H0V61.1l3.3-0.5c0.3,0,0.5-0.1,0.7-0.1c0,0,0.3,0,0.7-0.1c0.4-0.1,0.9-0.2,1.2-0.4c0.7-0.5,0.8-0.7,0.9-1
	C6.9,58.6,7,57.9,7,56.8V3.2h23.5v15.1l6.1-15.1h16.6l8,18.7V3.2h16.1l16.3,16.7V3.5h18.7v0.4c4.1-2.5,9-3.9,13.8-3.9h0.2
	c6.6,0,12,1.3,16.8,4.1L142.9,3h21c11.2,0,18,2.8,21.8,6.7c0.5,0.5,0.9,0.9,1.2,1.4c1.9-2.3,4.2-4.2,6.7-5.7
	c4.7-2.8,10.3-3.9,16.8-3.9c9,0,15.8,2.3,20.5,5.5l-0.4-4.2l4.4,0.1L250.2,3c6.1,0,11.9,0.5,16.9,2.8V3.3h45.2v18.1H302v37.1
	l-38.6,0.1l-7.1-9.4v9.3h-22.1v-8.8c-5,5.1-12.7,8.7-23,8.6c-8.3,0-15.5-2.6-20.9-7.3c-3.8-3.3-6.6-7.5-8.4-12.4
	c-1.6,0.8-3.3,1.2-4.8,1.6c-3,0.7-6,0.9-8.3,1c0,5.8,0.1,17.2,0.1,17.2h-12.4c-0.2,1.2-0.6,2.6-1.1,4.1c-1.5,4.3-4.9,9.6-11.4,12.5
	c-4.4,1.9-9.3,2.8-14.4,2.8C121.8,77.9,113.7,75.6,107,71z M126.8,60.6c2.4,0,4.4-0.7,5.5-1.4c1.1-0.8,1.3-1.4,1.3-1.6
	s0-0.4-0.4-0.9c0,0-1.1-1.3-2.7-2.5c-1.6-1.3-3.6-2.8-5.7-4.4c-4.3-3.2-9-6.5-11.9-9c-0.2-0.1-0.3-0.3-0.5-0.4v13.5
	C117.6,59,122.8,60.6,126.8,60.6L126.8,60.6z M211,42.6c1.6,0,3.4-0.9,5-3.2c1.6-2.3,2.7-5.8,2.7-9.7c0-3.9-1.1-7.4-2.7-9.7
	c-1.6-2.3-3.4-3.2-5-3.2s-3.4,0.9-5,3.2c-1.6,2.3-2.7,5.8-2.7,9.7c0,3.9,1.1,7.4,2.7,9.7C207.7,41.7,209.4,42.6,211,42.6z
	 M279.5,46.6V21.3h-1.4v1.5c0,2.9-0.5,6.2-2.1,9.3c-0.9,1.7-2.2,3.3-3.9,4.6C272.1,36.7,279.5,46.6,279.5,46.6z M126.1,18.1
	c-0.1,0.2-0.1,0.4-0.1,0.5c0,0.6,0.3,1.5,2.4,3c3.8,2.7,11.6,6.3,17.2,10.5c0.5,0.3,0.9,0.7,1.3,1c0-2.5-0.2-4-0.2-4l-1.3-2.5
	c-2.7-5-9.3-9.6-16.4-9.5h-0.1C127.5,17.2,126.2,17.9,126.1,18.1L126.1,18.1z"/>
<path class="st3" d="M271.3,7.1v6.1c-4.9-5.3-11.9-6.4-20.9-6.4c-7.7,0-15.2-0.1-15.2-0.1l0.1,1c0,0,1.5,2,1.7,2.6
	c0.5,3.3,0.8,7.8,1,12.3c-1.4-4.8-6.5-17.3-27.2-17.3c-12.1,0-19.3,4.3-24.4,14.2c0,0,1.1-12.6-22.2-12.6h-16.4l0.1,1
	c0,0,1.6,1.9,1.7,2.9c0.6,4.5,1.3,13.8,1.3,33.4c0,0-2.4-4.8-7.7-8.9c-5-3.8-12.8-7.4-17-10.4c-3.1-2.2-4.6-4.8-3.8-7.8
	c0.6-2.5,3.6-3.7,6.6-3.8c8.7,0,16.5,5.3,20,11.5c-0.2-4.1-0.3-7.4-0.7-11.4l-0.5-0.8c-6-6.4-11.7-8.8-21.2-8.9
	c-8.4-0.1-18.1,5.1-18.1,12.6V7.2H97.8v22.1l-22-22.2H65.3v34l-14.5-34H39.4L26.7,38.3V7.1H11.1v49.6c0,2.5-0.3,4.8-3,6.6
	c-1.8,1.1-4,1.1-4,1.1v7.1c19,0,22-9.5,22.2-17h3.6l5.9-15.1h14.9l6.4,15.1h17.3V29.7l25.9,24.9h8.2V27.1c0,0,1.4,6,6.9,10.7
	c5.4,4.6,18.9,13.4,21.1,16.7c5.5,8.2-12.1,16.9-27.1,1.9v11.4c9.7,6.8,23.3,8,33.1,3.7c10.6-4.6,10.7-17,10.7-17h11.9V37.3
	c0,0,16.5,0.9,19.2-5.9c2.4,13.6,12.1,22.9,27.1,22.9c19.9,0,26.7-14.1,26.9-23v23.2h14.3V37.2l13,17.4l15.1-0.1l-14.3-19.1
	c8.8-2.6,8.7-12.9,7.3-18h9.9l0.1,37h14.7v-37H309V7.1H271.3z M38.5,31.8l4.3-11.1l4.7,11.1H38.5z M164.9,28.6V15.9
	c0,0,9.2-0.8,9.2,6.8C174.2,29.7,164.9,28.6,164.9,28.6z M211,46.5c-6.4,0-11.7-7.5-11.7-16.8s5.2-16.8,11.7-16.8
	c6.4,0,11.7,7.5,11.7,16.8S217.5,46.5,211,46.5z M252.3,28.4V15.7c0,0,9.2-0.8,9.2,6.8C261.6,29.5,252.3,28.4,252.3,28.4z"/>
<path class="st2" d="M307.9,57.8c-1-1.1-1.6-2.5-1.6-3.9c0-1.5,0.6-3,1.7-4.1c1.1-1,2.4-1.6,3.9-1.6c1.6,0,3,0.6,4.1,1.7l-0.2,0.2
	l-0.2,0.2c-1-1-2.3-1.6-3.7-1.6c-1.4,0-2.6,0.5-3.6,1.5s-1.6,2.3-1.6,3.7c0,1.3,0.5,2.6,1.5,3.6s2.3,1.6,3.7,1.6
	c1.3,0,2.6-0.5,3.6-1.5c1-0.9,1.5-2.2,1.5-3.7c0-1.4-0.5-2.6-1.4-3.6l0.2-0.2l0.2-0.2c1,1.1,1.6,2.5,1.6,4c0,1.6-0.6,3-1.7,4
	c-1.1,1.1-2.5,1.6-4,1.6C310.4,59.6,308.9,59,307.9,57.8z"/>
<path class="st2" d="M313.3,54.1c0.8-0.2,1.3-0.8,1.3-1.6c0-1.1-0.9-1.7-2.6-1.7h-2.4v5.9h1.6v-2.4h0.5l1.1,2.4h1.8
	C314.6,56.7,313.3,54.1,313.3,54.1z M311.8,53.4h-0.6v-1.6h0.5c0.8,0,1.2,0.2,1.2,0.8C312.9,53.2,312.5,53.4,311.8,53.4z"/>
</svg>
