<?xml version="1.0" encoding="utf-8"?>
<!-- Generator: Adobe Illustrator 22.0.1, SVG Export Plug-In . SVG Version: 6.00 Build 0)  -->
<svg version="1.1" id="Layer_1" xmlns="http://www.w3.org/2000/svg" xmlns:xlink="http://www.w3.org/1999/xlink" x="0px" y="0px"
	 viewBox="0 0 75 51.3" style="enable-background:new 0 0 75 51.3;" xml:space="preserve">
<style type="text/css">
	.st0{fill:#FFFFFF;}
</style>
<polygon class="st0" points="11.4,34.6 0,51.3 15.2,43.7 22.7,27 "/>
<polygon class="st0" points="63.6,34.6 52.3,27 59.8,43.7 75,51.3 "/>
<polygon class="st0" points="50,27 44.8,30.5 38.6,41.2 38.6,51.3 57.6,43.7 "/>
<path class="st0" d="M50.5,12.9C50.5,5.8,44.7,0,37.5,0c-7.1,0-12.9,5.8-12.9,12.9c0,2.1,0.5,4.1,1.4,5.9h0l11.5,20.1l11.5-20.1h0
	C50,17.1,50.5,15.1,50.5,12.9z M31.6,12.9c0-3.2,2.6-5.9,5.9-5.9c3.2,0,5.9,2.6,5.9,5.9c0,3.2-2.6,5.8-5.8,5.9h-0.2
	C34.2,18.8,31.6,16.2,31.6,12.9z"/>
<polygon class="st0" points="30.3,30.5 25,27 17.4,43.7 36.4,51.3 36.4,41.1 "/>
<text x="0" y="115" fill="rgba(0,0,0,0)" font-size="5px" font-weight="bold" font-family="'Helvetica Neue', Helvetica, Arial-Unicode, Arial, Sans-serif">Created by Andrew Onorato</text><text x="0" y="120" fill="rgba(0,0,0,0)" font-size="5px" font-weight="bold" font-family="'Helvetica Neue', Helvetica, Arial-Unicode, Arial, Sans-serif">from the Noun Project</text>
</svg>
