<svg version="1.1" id="Layer_1" xmlns="http://www.w3.org/2000/svg" xmlns:xlink="http://www.w3.org/1999/xlink" x="0px" y="0px"
	 viewBox="0 0 211 118.6" style="enable-background:new 0 0 211 118.6;" xml:space="preserve">
<style type="text/css">
	.st0{fill:#FFFFFF;}
</style>
<g>
	<path class="st0" d="M36.5,103.8h-2.9c-1,0-1.7-0.8-1.7-1.8V73.4c0-0.6-0.3-0.6-0.4,0L24.6,102c-0.2,1-1.2,1.8-2.2,1.8h-0.6
		c-1,0-2-0.7-2.2-1.7l-6.7-28.7c-0.1-0.6-0.4-0.6-0.4,0V102c0,1-0.9,1.8-1.8,1.8h-3c-0.9,0-1.7-0.9-1.7-1.8V61
		c0-1.3,0.4-1.7,1.7-1.7h6.5c1.2,0,1.9,0.6,2.2,1.8l5.4,23c0.1,0.6,0.6,0.6,0.7,0l5.4-23c0.3-1.2,0.9-1.8,2.2-1.8h6.3
		c1,0,1.9,0.7,1.9,1.8v41C38.3,103.1,37.3,103.8,36.5,103.8z"/>
	<path class="st0" d="M73.5,103.8h-3.3c-1.2,0-1.9-0.7-2.1-1.8l-1.2-6c-0.2-1.1-1.1-1.9-2.2-1.9h-5.9c-1,0-1.9,1.1-2.1,1.9l-1.2,6.1
		c-0.2,1.1-1.1,1.7-2.1,1.7h-3.2c-1.1,0-1.6-0.9-1.4-1.8l7.9-41c0.2-1.1,0.9-1.7,2.1-1.7h5.9c1.2,0,1.9,0.6,2.2,1.8l8.2,40.9
		C75.3,103.1,74.6,103.8,73.5,103.8z M62,69.8c-0.1-0.4-0.6-0.6-0.7,0.1l-2.9,16.3c-0.2,1.1,0.6,1.6,1.6,1.6h3.6
		c1.1,0,1.7-0.6,1.5-1.7L62,69.8z"/>
	<path class="st0" d="M107.3,103.8h-3.7c-1.3,0-2-0.6-2.4-1.8l-4.7-14.7c-0.4-1.2-0.9-1.7-2.3-1.7h-0.6c-1.2,0-1.8,0.6-1.8,1.7v14.7
		c0,1-0.7,1.7-1.7,1.7h-3.4c-1.1,0-1.7-0.7-1.7-1.7v-41c0-0.9,0.8-1.8,1.7-1.8h9.1c8.3,0,12.7,4.4,12.7,12.7c0,5-1.5,8.6-4.6,10.8
		c-1.1,0.7-1.3,1.2-1,2.2l5.5,17C108.8,102.9,108.2,103.8,107.3,103.8z M94.3,65.7h-0.7c-1,0-1.8,0.8-1.8,1.8v10
		c0,1,0.8,1.8,1.8,1.8h0.7c5.2,0,7-1.8,7-6.9C101.4,67.4,99.6,65.7,94.3,65.7z"/>
	<path class="st0" d="M144.1,103.8h-4c-1.4,0-2-0.6-2.4-1.8l-6.2-17.4c-0.1-0.4-0.8-0.6-1.3-0.6c-1.1,0-3.1,2.6-3.1,7v11.1
		c0,1-0.8,1.7-1.8,1.7H122c-0.9,0-1.7-0.7-1.7-1.7V61c0-1,0.9-1.7,1.7-1.7h3.3c1.1,0,1.8,0.7,1.8,1.8V76c0,0.7,0.6,0.6,0.9,0l8-14.9
		c0.6-1.1,1.4-1.8,2.8-1.8h3.8c1.1,0,1.2,1.1,0.7,1.8l-7.3,12.6c-0.7,1.3-0.9,2.2-0.4,3.5l9.5,24.8
		C145.5,102.9,145.1,103.8,144.1,103.8z"/>
	<path class="st0" d="M175.3,102.1c0,1-0.8,1.7-1.8,1.7h-16.6c-0.9,0-1.8-0.7-1.8-1.7v-41c0-0.8,1-1.8,1.8-1.8h16.6
		c1.2,0,1.7,0.6,1.7,1.8v2.8c0,1.1-0.6,1.7-1.7,1.7h-9.8c-1.2,0-1.8,0.9-1.8,2.1v7.9c0,1.1,0.8,1.7,1.8,1.7h8.3
		c1.1,0,1.7,0.7,1.7,1.8v2.8c0,0.9-0.8,1.7-1.7,1.7h-8.4c-1,0-1.7,0.9-1.7,1.9v10.1c0,1.1,0.6,1.8,1.7,1.8h9.8
		c0.9,0,1.8,0.9,1.8,1.9V102.1z"/>
	<path class="st0" d="M205.9,66.2h-5c-1,0-1.8,0.8-1.8,1.8v34c0,0.9-0.9,1.7-1.8,1.7h-3.4c-0.9,0-1.7-0.8-1.7-1.7V68
		c0-0.9-1.1-1.7-1.8-1.7h-5c-0.9,0-1.7-0.9-1.7-1.8V61c0-0.9,0.9-1.7,1.7-1.7h20.6c1,0,1.7,0.7,1.7,1.7v3.4
		C207.6,65.5,206.9,66.2,205.9,66.2z"/>
</g>
<path class="st0" d="M106.2,118.4c4.5,0,7.8,0.1,10.8,0c0.7,0,5,0.1,6.3,0.1c1.7,0,3.5,0,5.3,0c1.9,0,4.1,0,6,0
	c5.1,0,8.8-0.1,12.7,0c0,0,0.2,0,0.8,0c0.6,0,1.3,0,1.9,0c1,0,2,0,3,0c0.9,0,1.7,0,2.6,0c0.3,0,1.5,0,2.2,0c1.7-0.1,12.3,0,12.3,0
	l3.7,0c1.8,0,3,0,4.8,0c1.1,0,2.8-0.1,3.9-0.1c3.9,0,8.2-0.2,12.8,0c1,0,2.1,0.1,3.6,0.1c1.6,0,3.1,0,4.7,0c0.9,0,1.8,0,2.7,0
	c0.3,0,1.2,0,3.2-0.4c0.4-0.1,0.4-0.2,0.4-0.4c0-0.5,0-2.6,0-3.2c0-0.1-0.1-0.3-0.4-0.4c-2-0.3-2.9-0.3-3.2-0.3
	c-0.9,0-1.8-0.1-2.8-0.1c-1.6,0-3.1,0-4.7,0c-1.4,0-2.6,0-3.6,0.1c-4.6,0.2-8.9,0.1-12.7,0.1c-1.1,0-2.6,0-3.7,0c-1.8,0-3.6,0-5.4,0
	l-3.8,0l-3.4,0l-2.7,0c-2.4,0-3.8,0.1-5.5,0c-0.8,0-2,0-2.3,0c-0.9,0-1.9,0-2.8,0c-1,0-2,0-3,0c-0.7,0-1.3,0-1.9,0
	c-0.6,0-0.8,0-0.8,0c-3.8,0.2-7.5,0-12.5,0c-1.9,0-4.5,0-6.4,0c-1.7,0-3.1,0-4.8,0c-1.3,0-5.8,0-6.5,0c-3-0.1-6.5,0-10.9,0l-2.2,0
	c-4.5,0-8-0.1-10.9,0.1c-0.7,0-5-0.1-6.3-0.1c-1.7,0-3.5,0-5.3,0c-1.9,0-4.1,0-6,0c-5.1,0-8.8,0.1-12.7,0c0,0-0.2,0-0.8,0
	c-0.6,0-1.3,0-1.9,0c-1,0-2,0-3,0c-0.9,0-1.7,0-2.6,0c-0.3,0-1.5,0-2.2,0c-1.7,0.1-12.3,0-12.3,0l-3.7,0c-1.8,0-3,0-4.8,0
	c-1.1,0-2.8,0.1-3.9,0.1c-3.9,0-8.2,0.2-12.8,0c-1,0-10.1,0-11,0c-0.3,0-1.6,0-3.2,0.2c-0.4,0.1-0.4,0.4-0.4,0.5c0,0.5,0,2.7,0,3.2
	c0,0.1,0.1,0.5,0.4,0.5c2,0.2,2.9,0.1,3.2,0.1c0.9,0,1.8,0.1,2.8,0.1c1.6,0,3.1,0,4.7,0c1.4,0,2.6,0,3.6-0.1
	c4.6-0.2,8.9-0.1,12.7-0.1c1.1,0,2.6,0,3.7,0c1.8,0,3.6,0,5.4,0l3.8,0l3.4,0l2.7,0c2.4,0,3.8-0.1,5.5,0c0.8,0,2,0,2.3,0
	c0.9,0,1.9,0,2.8,0c1,0,2,0,3,0c0.7,0,1.3,0,1.9,0c0.6,0,0.8,0,0.8,0c3.8-0.2,7.5,0,12.5,0c1.9,0,4.5,0,6.4,0c1.7,0,3.1,0,4.8,0
	c1.3,0,5.8,0,6.5,0c3,0.1,6.4,0,10.9,0L106.2,118.4z"/>
<g>
	<path class="st0" d="M100.5,13c0-0.3,0-0.5,0.1-0.8c0-0.3,0-0.6,0-0.9c0-0.5,0.4-5.8,0.5-7c0.1-0.9,0.3-1.6,0.7-2.4
		c0.2-0.5,0.5-0.8,0.8-1.2c0.3-0.3,0.7-0.5,1-0.5c0.5,0,0.8,0,1.3,0c0.8,0,1.1,0.3,1.2,0.8c0.1,0.4,0.1,0.8,0,1.1
		c-0.2,0.9-0.7,2.8-1,4.6c-0.3,1.4-0.4,2.6-0.4,3.1c-0.2,1.1-0.4,2.2-0.5,3.4c-0.1,0.5-0.5,5.6-0.6,7.5c-0.1,1-0.2,4.1,0.1,4.2
		c0.3,0.2,1.2-4.3,3.5-7.9c0.6-0.9,1.4-1.1,1.6-1.1c1.1-0.3,2.6,0.2,2.5,1.2c-0.1,1.3-0.1,2.5-0.1,3.8c0,1.8,0,3.7,0.7,5.5
		c0.3,0.8,0.7,1.5,1.4,2.1c0.4,0.4,0.5,0.4,1.1,0.1c0.9-0.5,0.9-0.5,0.6-1.2c-0.6-1.4-0.6-5.3,0.4-7.8c0.5-1.5,1.5-2.8,2.3-3.4
		c0.6-0.4,2.3-0.6,3.1-0.5c0.4,0.1,1.6,0.5,1.9,1.7c0.5,1.6,0,4.2-0.4,5.6c-0.6,2-1.8,3.6-2.2,4.2c0,0.1-0.1,0.1-0.1,0.2
		c-0.1,0.3,0,0.5,0.5,0.4c2-0.3,2.5-0.5,4.6-1.3c0.5-0.3,0.6-0.1,1,0.2c0.7,0.6,0.3,1-0.3,1.5c-0.5,0.4-1.7,0.9-3,1.3
		c-1.2,0.3-2.4,0.5-3.2,0.6c-0.5,0-0.9,0.1-1.3,0c-0.5-0.1-0.5-0.3-1.4,0.2c-1.1,0.6-2.3,0.6-3.6,0.6c-1.2,0-2.1-0.6-2.9-1.1
		c-0.8-0.6-1.3-1.3-1.7-2c-0.6-1-0.8-2.9-1-4.2c-0.1-0.6-0.4-0.4-0.5,0c-0.9,2.3-1.5,5.1-2,6.7c-0.2,0.8-0.4,1.7-0.6,2.5
		c-0.1,0.2-0.1,0.4-0.2,0.6c-0.2,0.4-1.6,1-2.6,0.9c-0.4-0.1-1.1-1.8-1.4-3.6C99.7,25.6,100.2,16.6,100.5,13z M119.5,18.7
		c-1.1,0.7-1.6,3.7-1.8,5.5c0,0.8,0.1,1.1,0.4,0.7c0.5-0.5,1.4-2.7,1.6-4C119.9,19.8,119.8,19,119.5,18.7z"/>
	<path class="st0" d="M108.8,9.2c-0.7-0.5-1.6-0.7-2.5-0.4c-5.1,1.5-8.9,3.1-9.6,3.4c0.2-2.9,0.7-5.8,0.8-6.1c0.1-0.7-0.1-1.5-2-1
		c-0.5,0.1-1.4,0.6-1.6,1.1c-0.2,0.3-0.4,0.7-0.4,1c-0.2,0.8-0.4,2.9-0.5,4c0,0.3-0.2,2.3-0.2,2.6c-1.6,0.6-6.1,2.6-8.7,4.2
		c-0.8,0.5-1.5,0.8-1.6,1.5c-0.1,0.3,0,0.6,0.2,0.9c0.5,0.6,1.5,0.6,1.7,0.6c0.1,0,0.1,0,0.2,0c0.1,0,0.1,0,0.2,0
		c0.2,0,0.3-0.1,0.5-0.2c0.5-0.3,3.9-2.1,7.5-3.5c-0.1,1.5-0.2,3.3-0.1,5.8c0.1,3.2,0.5,5.9,0.9,7.4c0.2,0.8,1,1,1.2,1
		c0.3,0,2-0.7,2.3-1.3c0.3-0.6-0.1-1.5-0.2-1.9c-0.3-1.1-0.5-2.3-0.5-3.3c-0.1-0.9-0.2-3.1-0.2-4.1c0-2.9,0.1-4.5,0.2-4.9
		c0.7-0.3,1.9-0.7,2.4-0.9c2.2-0.7,3.1-1,4.2-1.3c0.4-0.1,0.7-0.2,1.1-0.2c0.2,0,0.5,0,0.7-0.1c0.2,0,0.4,0,0.7,0
		c0.2,0,0.5-0.2,0.7-0.4c0.4-0.5,0.9-0.6,1.4-0.8c0.1,0,0.2-0.1,0.4-0.1c0.5-0.2,1-0.3,1.3-1.3C109.2,10.4,109.4,9.6,108.8,9.2z"/>
</g>
<path class="st0" d="M106.8,49.6c4.5,0,7.8,0.1,10.8,0c0.7,0,5.1,0.1,6.4,0.1c1.7,0,3.6,0,5.3,0c1.9,0,4.1,0,6,0
	c5.1,0,8.9-0.1,12.7,0c0,0,0.2,0,0.8,0c0.6,0,1.3,0,2,0c1,0,2,0,3,0c0.9,0,1.7,0,2.6,0c0.3,0,1.5,0,2.2,0c1.7-0.1,12.3,0,12.3,0
	l3.7,0c1.8,0,3.1,0,4.8,0c1.1,0,2.8-0.1,3.9-0.1c3.9,0,8.2-0.2,12.9,0c1,0,2.1,0.1,3.6,0.1c1.6,0,3.1,0,4.7,0c0.9,0,1.8,0,2.8,0
	c0.3,0,1.2,0,3.2-0.3c0.4,0,0.4-0.3,0.4-0.5c0-0.6,0-2.5,0-3.2c0-0.1-0.1-0.4-0.4-0.4c-2.1-0.2-2.9-0.2-3.2-0.2
	c-0.9,0-1.9-0.1-2.8-0.1c-1.6,0-3.1,0-4.7,0c-1.4,0-2.6,0-3.6,0.1c-4.6,0.2-8.9,0.1-12.8,0.1c-1.1,0-2.6,0-3.7,0c-1.8,0-3.6,0-5.4,0
	l-3.8,0l-3.4,0l-2.7,0c-2.5,0-3.8,0.1-5.5,0c-0.8,0-2,0-2.3,0c-0.9,0-1.9,0-2.8,0c-1,0-2,0-3,0c-0.7,0-1.3,0-2,0c-0.6,0-0.8,0-0.8,0
	c-3.8,0.2-7.5,0-12.6,0c-1.9,0-4.5,0-6.4,0c-1.7,0-3.1,0-4.8,0c-1.3,0-5.8,0-6.5,0c-3-0.1-6.5,0-11,0l-2.2,0c-4.5,0-8-0.1-11,0.1
	c-0.7,0-5.1-0.1-6.4-0.1c-1.7,0-3.6,0-5.3,0c-1.9,0-4.1,0-6,0c-5.1,0-8.9,0.1-12.7,0c0,0-0.2,0-0.8,0c-0.6,0-1.3,0-2,0c-1,0-2,0-3,0
	c-0.9,0-1.7,0-2.6,0c-0.3,0-1.5,0-2.2,0C50.7,45.1,40,45,40,45l-3.7,0c-1.8,0-3.1,0-4.8,0c-1.1,0-2.8,0.1-3.9,0.1
	c-3.9,0-8.2,0.2-12.9,0c-1,0-2.1-0.1-3.6-0.1c-1.6,0-3.1,0-4.7,0c-0.9,0-1.8,0-2.8,0c-0.3,0-1.2,0-3.2,0.4C0.1,45.5,0,45.7,0,45.8
	c0,0.5,0,2.6,0,3.2c0,0.1,0.1,0.3,0.4,0.4c2,0.3,2.9,0.3,3.2,0.3c0.9,0,1.9,0.1,2.8,0.1c1.6,0,3.1,0,4.7,0c1.4,0,2.6,0,3.6-0.1
	c4.6-0.2,8.9-0.1,12.8-0.1c1.1,0,2.6,0,3.7,0c1.8,0,3.6,0,5.4,0l3.8,0l3.4,0l2.7,0c2.5,0,3.8-0.1,5.5,0c0.8,0,2,0,2.3,0
	c0.9,0,1.9,0,2.8,0c1,0,2,0,3,0c0.7,0,1.3,0,2,0c0.6,0,0.8,0,0.8,0c3.8-0.2,7.5,0,12.6,0c1.9,0,4.5,0,6.4,0c1.7,0,3.1,0,4.8,0
	c1.3,0,5.8,0,6.5,0c3,0.1,6.4,0,11,0L106.8,49.6z"/>
</svg>
