<svg version="1.1" id="Layer_1" xmlns="http://www.w3.org/2000/svg" xmlns:xlink="http://www.w3.org/1999/xlink" x="0px" y="0px"
	 viewBox="0 0 117 73.6" style="enable-background:new 0 0 117 73.6;" xml:space="preserve">
<style type="text/css">
	.st0{fill:#FFFFFF;}
</style>
<polygon class="st0" points="95.7,0 93.9,0 83.6,10.4 70.2,23.7 72,23.7 82.3,13.3 "/>
<polygon class="st0" points="45.7,49.9 44,49.9 33.6,60.3 20.3,73.6 22,73.6 32.4,63.2 "/>
<path class="st0" d="M4.3,33.9c1.1,0,2-0.9,2-2s-0.9-2-2-2h-2v3.9H4.3z M9.1,39.4H6.3l-2.1-3.1H2.4v3.1H0V27.6h4.3
	c2.4,0,4.3,1.9,4.3,4.3c0,1.6-0.8,2.9-2,3.7L9.1,39.4z"/>
<path class="st0" d="M15.9,33.5c0,1.9,1.6,3.5,3.5,3.5c1.9,0,3.5-1.6,3.5-3.5c0-1.9-1.6-3.5-3.5-3.5C17.5,30,15.9,31.6,15.9,33.5
	 M19.4,39.4c-3.2,0-5.9-2.6-5.9-5.9c0-3.2,2.6-5.9,5.9-5.9c3.2,0,5.9,2.6,5.9,5.9C25.3,36.8,22.7,39.4,19.4,39.4"/>
<path class="st0" d="M35.1,27.6c1.9,0,3.6,0.9,4.7,2.3l0.2,0.3l-1.9,1.4l-0.2-0.3c-0.6-0.9-1.7-1.4-2.8-1.4c-1.9,0-3.5,1.6-3.5,3.5
	c0,1.9,1.6,3.5,3.5,3.5c1.2,0,2.2-0.5,2.8-1.4l0.2-0.3l1.9,1.4l-0.2,0.3c-1.1,1.4-2.8,2.3-4.7,2.3c-3.2,0-5.9-2.6-5.9-5.9
	C29.2,30.3,31.9,27.6,35.1,27.6"/>
<polygon class="st0" points="45.4,27.6 47.7,27.6 47.7,32.1 51.8,27.6 55,27.6 50.7,32.4 55.1,39.4 52.3,39.4 49,34.2 47.7,35.6 
	47.7,39.4 45.4,39.4 "/>
<polygon class="st0" points="64,39.4 63.3,39.4 58.8,27.6 61.3,27.6 63.6,33.8 66,27.6 66.5,27.6 68.8,33.8 71.2,27.6 73.7,27.6 
	69.2,39.4 68.5,39.4 66.2,33.5 "/>
<polygon class="st0" points="78.6,27.6 87.2,27.6 87.2,30 80.9,30 80.9,33.5 85.6,33.5 85.6,35.9 80.9,35.9 80.9,37.1 87.2,37.1 
	87.2,39.4 78.6,39.4 "/>
<polygon class="st0" points="93.9,27.6 96.3,27.6 96.3,37.1 102.6,37.1 102.6,39.4 93.9,39.4 "/>
<polygon class="st0" points="108.4,27.6 110.7,27.6 110.7,37.1 117,37.1 117,39.4 108.4,39.4 "/>
<path class="st0" d="M25.9,44.1c0-0.3-0.2-0.5-0.5-0.5H25v1.1h0.4C25.7,44.6,25.9,44.4,25.9,44.1 M26.2,44.1c0,0.4-0.3,0.7-0.9,0.7
	H25v0.5c0,0.4,0,0.5,0.4,0.5v0.1h-1.1v-0.1c0.3,0,0.4-0.1,0.4-0.5v-1.3c0-0.4-0.1-0.5-0.4-0.5v-0.1h1.1
	C25.9,43.4,26.2,43.7,26.2,44.1"/>
<path class="st0" d="M29.8,43.9l-0.4,1h0.9L29.8,43.9z M29.1,45.5c-0.1,0.2,0,0.3,0.3,0.3v0.1h-1v-0.1c0.3,0,0.4-0.1,0.5-0.4
	l0.9-2.1h0.1l0.9,2.1c0.1,0.3,0.1,0.4,0.5,0.4v0.1h-1.1v-0.1c0.3,0,0.4-0.1,0.3-0.3L30.3,45h-1L29.1,45.5z"/>
<path class="st0" d="M36,45.8c0-0.1-0.1-0.2-0.1-0.2c-0.2,0.2-0.5,0.4-0.8,0.4c-0.7,0-1.3-0.6-1.3-1.3c0-0.7,0.6-1.3,1.3-1.3
	c0.3,0,0.6,0.1,0.8,0.4c0.1,0,0.1-0.1,0.1-0.2h0.1v0.9H36c-0.1-0.5-0.4-0.9-0.9-0.9c-0.7,0-0.9,0.6-0.9,1.2s0.2,1.1,0.9,1.1
	c0.5,0,0.8-0.3,0.9-0.9h0.1L36,45.8L36,45.8z"/>
<path class="st0" d="M39,45.9L39,45.9c0.3-0.1,0.4-0.2,0.4-0.6v-1.3c0-0.4,0-0.5-0.4-0.5v-0.1h1.1v0.1c-0.3,0-0.4,0.1-0.4,0.5v1.3
	c0,0.4,0,0.5,0.4,0.5v0.1H39z"/>
<path class="st0" d="M43.7,44.5h0.2c0.4,0,0.5,0,0.5-0.4h0.1V45h-0.1c0-0.3-0.1-0.4-0.5-0.4h-0.2v0.7c0,0.4,0,0.5,0.4,0.5v0.1h-1.1
	v-0.1c0.3,0,0.4-0.1,0.4-0.5v-1.3c0-0.4-0.1-0.5-0.4-0.5v-0.1h2l0,0.5h-0.1l0-0.1c-0.1-0.2-0.1-0.3-0.5-0.3h-0.7V44.5z"/>
<path class="st0" d="M47.6,45.9L47.6,45.9c0.3-0.1,0.4-0.2,0.4-0.6v-1.3c0-0.4,0-0.5-0.4-0.5v-0.1h1.1v0.1c-0.3,0-0.4,0.1-0.4,0.5
	v1.3c0,0.4,0,0.5,0.4,0.5v0.1H47.6z"/>
<path class="st0" d="M53.9,45.8c0-0.1-0.1-0.2-0.1-0.2c-0.2,0.2-0.5,0.4-0.8,0.4c-0.7,0-1.3-0.6-1.3-1.3c0-0.7,0.6-1.3,1.3-1.3
	c0.3,0,0.6,0.1,0.8,0.4c0.1,0,0.1-0.1,0.1-0.2H54v0.9h-0.1c-0.1-0.5-0.4-0.9-0.9-0.9c-0.7,0-0.9,0.6-0.9,1.2s0.2,1.1,0.9,1.1
	c0.5,0,0.8-0.3,0.9-0.9H54L53.9,45.8L53.9,45.8z"/>
<path class="st0" d="M61.1,45.3c0,0.4,0,0.5,0.4,0.5v0.1h-1.1v-0.1c0.3,0,0.4-0.1,0.4-0.5v-1.3c0-0.4-0.1-0.5-0.4-0.5v-0.1h1.1v0.1
	c-0.3,0-0.4,0.1-0.4,0.5v0.5h1.4v-0.5c0-0.4-0.1-0.5-0.4-0.5v-0.1h1.1v0.1c-0.3,0-0.4,0.1-0.4,0.5v1.3c0,0.4,0,0.5,0.4,0.5v0.1h-1.1
	v-0.1c0.3,0,0.4-0.1,0.4-0.5v-0.7h-1.4V45.3z"/>
<path class="st0" d="M66,45.8c0.3,0,0.4-0.1,0.4-0.5v-1.3c0-0.4,0-0.5-0.4-0.5v-0.1h1.9l0,0.5h-0.1l0-0.1c-0.1-0.2-0.1-0.3-0.5-0.3
	h-0.6v0.9h0.2c0.4,0,0.5-0.1,0.5-0.4h0.1V45h-0.1c0-0.3-0.1-0.4-0.5-0.4h-0.2v0.6c0,0.4,0,0.5,0.4,0.5h0.4c0.4,0,0.4-0.1,0.5-0.3
	l0-0.1h0.1l0,0.6L66,45.8L66,45.8z"/>
<path class="st0" d="M70.9,45.9L70.9,45.9c0.3-0.1,0.4-0.2,0.4-0.6v-1.3c0-0.4,0-0.5-0.4-0.5v-0.1H72v0.1c-0.3,0-0.4,0.1-0.4,0.5
	v1.3c0,0.4,0.1,0.5,0.4,0.5v0.1H70.9z"/>
<path class="st0" d="M76.6,44.9L76.6,44.9l1.1-0.1v0.1c-0.3,0-0.4,0.1-0.4,0.5v0.3c-0.5,0-0.6,0.2-1.1,0.2c-0.7,0-1.3-0.6-1.3-1.3
	s0.6-1.3,1.3-1.3c0.3,0,0.6,0.1,0.8,0.4c0.1,0,0.1-0.1,0.1-0.2h0.1v0.9h-0.1c-0.1-0.5-0.4-0.9-0.9-0.9c-0.7,0-0.9,0.6-0.9,1.2
	s0.2,1.1,1,1.1c0.4,0,0.7-0.2,0.7-0.6C77,45,76.9,44.9,76.6,44.9"/>
<path class="st0" d="M81,45.3c0,0.4,0,0.5,0.4,0.5v0.1h-1.1v-0.1c0.3,0,0.4-0.1,0.4-0.5v-1.3c0-0.4-0.1-0.5-0.4-0.5v-0.1h1.1v0.1
	c-0.3,0-0.4,0.1-0.4,0.5v0.5h1.4v-0.5c0-0.4-0.1-0.5-0.4-0.5v-0.1h1.1v0.1c-0.3,0-0.4,0.1-0.4,0.5v1.3c0,0.4,0.1,0.5,0.4,0.5v0.1H82
	v-0.1c0.3,0,0.4-0.1,0.4-0.5v-0.7H81V45.3z"/>
<path class="st0" d="M88.4,43.9L88.4,43.9l-0.1-0.1c-0.1-0.2-0.1-0.3-0.5-0.3h-0.5v1.8c0,0.4,0.1,0.5,0.4,0.5v0.1h-1.1v-0.1
	c0.3,0,0.4-0.1,0.4-0.5v-1.8h-0.5c-0.4,0-0.4,0.1-0.5,0.3l0,0.1h-0.1l0-0.6h2.5L88.4,43.9z"/>
<path class="st0" d="M91.2,45.9L91.2,45.9L91.1,45h0.1c0,0,0,0.7,0.8,0.7c0.3,0,0.5-0.2,0.5-0.5c0-0.2-0.2-0.4-0.5-0.5l-0.4-0.2
	c-0.2-0.1-0.5-0.4-0.5-0.7c0-0.3,0.3-0.6,0.7-0.6c0.2,0,0.4,0.1,0.5,0.2c0.1,0,0.1-0.1,0.1-0.2h0.1v0.9h-0.1c0-0.3-0.2-0.7-0.6-0.7
	c-0.2,0-0.4,0.2-0.4,0.4c0,0.2,0.1,0.3,0.5,0.5l0.4,0.2c0.3,0.2,0.4,0.4,0.4,0.6c0,0.5-0.4,0.7-0.8,0.7c-0.3,0-0.5-0.2-0.6-0.2
	C91.3,45.8,91.2,45.8,91.2,45.9"/>
<polygon class="st0" points="95.7,0 93.9,0 83.6,10.4 70.2,23.7 72,23.7 82.3,13.3 "/>
<polygon class="st0" points="45.7,49.9 44,49.9 33.6,60.3 20.3,73.6 22,73.6 32.4,63.2 "/>
<path class="st0" d="M4.3,33.9c1.1,0,2-0.9,2-2s-0.9-2-2-2h-2v3.9H4.3z M9.1,39.4H6.3l-2.1-3.1H2.4v3.1H0V27.6h4.3
	c2.4,0,4.3,1.9,4.3,4.3c0,1.6-0.8,2.9-2,3.7L9.1,39.4z"/>
<path class="st0" d="M15.9,33.5c0,1.9,1.6,3.5,3.5,3.5c1.9,0,3.5-1.6,3.5-3.5c0-1.9-1.6-3.5-3.5-3.5C17.5,30,15.9,31.6,15.9,33.5
	 M19.4,39.4c-3.2,0-5.9-2.6-5.9-5.9c0-3.2,2.6-5.9,5.9-5.9c3.2,0,5.9,2.6,5.9,5.9C25.3,36.8,22.7,39.4,19.4,39.4"/>
<path class="st0" d="M35.1,27.6c1.9,0,3.6,0.9,4.7,2.3l0.2,0.3l-1.9,1.4l-0.2-0.3c-0.6-0.9-1.7-1.4-2.8-1.4c-1.9,0-3.5,1.6-3.5,3.5
	c0,1.9,1.6,3.5,3.5,3.5c1.2,0,2.2-0.5,2.8-1.4l0.2-0.3l1.9,1.4l-0.2,0.3c-1.1,1.4-2.8,2.3-4.7,2.3c-3.2,0-5.9-2.6-5.9-5.9
	C29.2,30.3,31.9,27.6,35.1,27.6"/>
<polygon class="st0" points="45.4,27.6 47.7,27.6 47.7,32.1 51.8,27.6 55,27.6 50.7,32.4 55.1,39.4 52.3,39.4 49,34.2 47.7,35.6 
	47.7,39.4 45.4,39.4 "/>
<polygon class="st0" points="64,39.4 63.3,39.4 58.8,27.6 61.3,27.6 63.6,33.8 66,27.6 66.5,27.6 68.8,33.8 71.2,27.6 73.7,27.6 
	69.2,39.4 68.5,39.4 66.2,33.5 "/>
<polygon class="st0" points="78.6,27.6 87.2,27.6 87.2,30 80.9,30 80.9,33.5 85.6,33.5 85.6,35.9 80.9,35.9 80.9,37.1 87.2,37.1 
	87.2,39.4 78.6,39.4 "/>
<polygon class="st0" points="93.9,27.6 96.3,27.6 96.3,37.1 102.6,37.1 102.6,39.4 93.9,39.4 "/>
<polygon class="st0" points="108.4,27.6 110.7,27.6 110.7,37.1 117,37.1 117,39.4 108.4,39.4 "/>
<path class="st0" d="M25.9,44.1c0-0.3-0.2-0.5-0.5-0.5H25v1.1h0.4C25.7,44.6,25.9,44.4,25.9,44.1 M26.2,44.1c0,0.4-0.3,0.7-0.9,0.7
	H25v0.5c0,0.4,0,0.5,0.4,0.5v0.1h-1.1v-0.1c0.3,0,0.4-0.1,0.4-0.5v-1.3c0-0.4-0.1-0.5-0.4-0.5v-0.1h1.1
	C25.9,43.4,26.2,43.7,26.2,44.1"/>
<path class="st0" d="M29.8,43.9l-0.4,1h0.9L29.8,43.9z M29.1,45.5c-0.1,0.2,0,0.3,0.3,0.3v0.1h-1v-0.1c0.3,0,0.4-0.1,0.5-0.4
	l0.9-2.1h0.1l0.9,2.1c0.1,0.3,0.1,0.4,0.5,0.4v0.1h-1.1v-0.1c0.3,0,0.4-0.1,0.3-0.3L30.3,45h-1L29.1,45.5z"/>
<path class="st0" d="M36,45.8c0-0.1-0.1-0.2-0.1-0.2c-0.2,0.2-0.5,0.4-0.8,0.4c-0.7,0-1.3-0.6-1.3-1.3c0-0.7,0.6-1.3,1.3-1.3
	c0.3,0,0.6,0.1,0.8,0.4c0.1,0,0.1-0.1,0.1-0.2h0.1v0.9H36c-0.1-0.5-0.4-0.9-0.9-0.9c-0.7,0-0.9,0.6-0.9,1.2s0.2,1.1,0.9,1.1
	c0.5,0,0.8-0.3,0.9-0.9h0.1L36,45.8L36,45.8z"/>
<path class="st0" d="M39,45.9L39,45.9c0.3-0.1,0.4-0.2,0.4-0.6v-1.3c0-0.4,0-0.5-0.4-0.5v-0.1h1.1v0.1c-0.3,0-0.4,0.1-0.4,0.5v1.3
	c0,0.4,0,0.5,0.4,0.5v0.1H39z"/>
<path class="st0" d="M43.7,44.5h0.2c0.4,0,0.5,0,0.5-0.4h0.1V45h-0.1c0-0.3-0.1-0.4-0.5-0.4h-0.2v0.7c0,0.4,0,0.5,0.4,0.5v0.1h-1.1
	v-0.1c0.3,0,0.4-0.1,0.4-0.5v-1.3c0-0.4-0.1-0.5-0.4-0.5v-0.1h2l0,0.5h-0.1l0-0.1c-0.1-0.2-0.1-0.3-0.5-0.3h-0.7V44.5z"/>
<path class="st0" d="M47.6,45.9L47.6,45.9c0.3-0.1,0.4-0.2,0.4-0.6v-1.3c0-0.4,0-0.5-0.4-0.5v-0.1h1.1v0.1c-0.3,0-0.4,0.1-0.4,0.5
	v1.3c0,0.4,0,0.5,0.4,0.5v0.1H47.6z"/>
<path class="st0" d="M53.9,45.8c0-0.1-0.1-0.2-0.1-0.2c-0.2,0.2-0.5,0.4-0.8,0.4c-0.7,0-1.3-0.6-1.3-1.3c0-0.7,0.6-1.3,1.3-1.3
	c0.3,0,0.6,0.1,0.8,0.4c0.1,0,0.1-0.1,0.1-0.2H54v0.9h-0.1c-0.1-0.5-0.4-0.9-0.9-0.9c-0.7,0-0.9,0.6-0.9,1.2s0.2,1.1,0.9,1.1
	c0.5,0,0.8-0.3,0.9-0.9H54L53.9,45.8L53.9,45.8z"/>
<path class="st0" d="M61.1,45.3c0,0.4,0,0.5,0.4,0.5v0.1h-1.1v-0.1c0.3,0,0.4-0.1,0.4-0.5v-1.3c0-0.4-0.1-0.5-0.4-0.5v-0.1h1.1v0.1
	c-0.3,0-0.4,0.1-0.4,0.5v0.5h1.4v-0.5c0-0.4-0.1-0.5-0.4-0.5v-0.1h1.1v0.1c-0.3,0-0.4,0.1-0.4,0.5v1.3c0,0.4,0,0.5,0.4,0.5v0.1h-1.1
	v-0.1c0.3,0,0.4-0.1,0.4-0.5v-0.7h-1.4V45.3z"/>
<path class="st0" d="M66,45.8c0.3,0,0.4-0.1,0.4-0.5v-1.3c0-0.4,0-0.5-0.4-0.5v-0.1h1.9l0,0.5h-0.1l0-0.1c-0.1-0.2-0.1-0.3-0.5-0.3
	h-0.6v0.9h0.2c0.4,0,0.5-0.1,0.5-0.4h0.1V45h-0.1c0-0.3-0.1-0.4-0.5-0.4h-0.2v0.6c0,0.4,0,0.5,0.4,0.5h0.4c0.4,0,0.4-0.1,0.5-0.3
	l0-0.1h0.1l0,0.6L66,45.8L66,45.8z"/>
<path class="st0" d="M70.9,45.9L70.9,45.9c0.3-0.1,0.4-0.2,0.4-0.6v-1.3c0-0.4,0-0.5-0.4-0.5v-0.1H72v0.1c-0.3,0-0.4,0.1-0.4,0.5
	v1.3c0,0.4,0.1,0.5,0.4,0.5v0.1H70.9z"/>
<path class="st0" d="M76.6,44.9L76.6,44.9l1.1-0.1v0.1c-0.3,0-0.4,0.1-0.4,0.5v0.3c-0.5,0-0.6,0.2-1.1,0.2c-0.7,0-1.3-0.6-1.3-1.3
	s0.6-1.3,1.3-1.3c0.3,0,0.6,0.1,0.8,0.4c0.1,0,0.1-0.1,0.1-0.2h0.1v0.9h-0.1c-0.1-0.5-0.4-0.9-0.9-0.9c-0.7,0-0.9,0.6-0.9,1.2
	s0.2,1.1,1,1.1c0.4,0,0.7-0.2,0.7-0.6C77,45,76.9,44.9,76.6,44.9"/>
<path class="st0" d="M81,45.3c0,0.4,0,0.5,0.4,0.5v0.1h-1.1v-0.1c0.3,0,0.4-0.1,0.4-0.5v-1.3c0-0.4-0.1-0.5-0.4-0.5v-0.1h1.1v0.1
	c-0.3,0-0.4,0.1-0.4,0.5v0.5h1.4v-0.5c0-0.4-0.1-0.5-0.4-0.5v-0.1h1.1v0.1c-0.3,0-0.4,0.1-0.4,0.5v1.3c0,0.4,0.1,0.5,0.4,0.5v0.1H82
	v-0.1c0.3,0,0.4-0.1,0.4-0.5v-0.7H81V45.3z"/>
<path class="st0" d="M88.4,43.9L88.4,43.9l-0.1-0.1c-0.1-0.2-0.1-0.3-0.5-0.3h-0.5v1.8c0,0.4,0.1,0.5,0.4,0.5v0.1h-1.1v-0.1
	c0.3,0,0.4-0.1,0.4-0.5v-1.8h-0.5c-0.4,0-0.4,0.1-0.5,0.3l0,0.1h-0.1l0-0.6h2.5L88.4,43.9z"/>
<path class="st0" d="M91.2,45.9L91.2,45.9L91.1,45h0.1c0,0,0,0.7,0.8,0.7c0.3,0,0.5-0.2,0.5-0.5c0-0.2-0.2-0.4-0.5-0.5l-0.4-0.2
	c-0.2-0.1-0.5-0.4-0.5-0.7c0-0.3,0.3-0.6,0.7-0.6c0.2,0,0.4,0.1,0.5,0.2c0.1,0,0.1-0.1,0.1-0.2h0.1v0.9h-0.1c0-0.3-0.2-0.7-0.6-0.7
	c-0.2,0-0.4,0.2-0.4,0.4c0,0.2,0.1,0.3,0.5,0.5l0.4,0.2c0.3,0.2,0.4,0.4,0.4,0.6c0,0.5-0.4,0.7-0.8,0.7c-0.3,0-0.5-0.2-0.6-0.2
	C91.3,45.8,91.2,45.8,91.2,45.9"/>
</svg>
