<svg xmlns="http://www.w3.org/2000/svg" xmlns:xlink="http://www.w3.org/1999/xlink" version="1.1" id="ten50_x5F_logo" x="0px" y="0px" viewBox="0 0 379.3 370.1" enable-background="new 0 0 379.3 370.1" xml:space="preserve">
<g id="text">
	<path fill="none" d="M211.3,281.6l-30.1,30.1c-8.8,8.8-12.1,20.7-2.5,30.2c9.4,9.4,20.9,6.6,29.8-2.3l31.1-31.1   c7.9-7.9,9.4-20.2,1.2-28.4C231.8,271.2,219.9,273,211.3,281.6z"/>
	<polygon fill="#ffffff" points="64.5,159.4 49.2,144.1 0,193.3 15.3,208.6 31.7,192.3 104.8,265.4 121.2,249 48,175.9  "/>
	<polygon fill="#ffffff" points="178.1,161.5 147,192.6 126,171.7 155.9,141.9 140.6,126.6 110.7,156.4 89.1,134.8 120.3,103.6    105,88.3 57.4,135.9 145.9,224.3 193.4,176.8  "/>
	<polygon fill="#ffffff" points="226.3,143.9 162,79.6 162.3,79.4 263.5,106.7 281.8,88.4 193.3,0 177,16.4 241.2,80.7 241,80.9    140.1,53.2 121.5,71.8 209.9,160.3  "/>
	<path fill="#ffffff" d="M364.2,201l15.1-15.1l-40-40l-54.6,37.9l10.3,18.2c7.2-1,13,0.4,18.3,5.6c8.4,8.4,7.6,22.2-0.6,30.5   c-8.6,8.6-22.1,9.4-31,0.6c-7.8-7.8-6.9-18.4-1-27l-15.9-15.9c-14.9,16.4-13.3,42.9,2.2,58.3c17.1,17.1,44.5,17,61.5-0.1   c15.8-15.8,18.9-42.3,2.4-58.8c-3.9-3.9-8.7-6.8-13.9-8.8l19.1-13.4L364.2,201z"/>
	<path fill="#ffffff" d="M196.2,265l-31.8,31.8c-8,8-13.4,16.5-13.5,28.1c-0.1,13,3.5,22.8,12.8,32.1c17.4,17.4,41.8,17.4,59.3,0   l32.6-32.6c16.9-16.9,17.6-41.9,0.6-58.9C238.5,247.8,214.1,247,196.2,265z M239.5,308.6l-31.1,31.1c-8.8,8.8-20.3,11.7-29.8,2.3   c-9.6-9.6-6.3-21.4,2.5-30.2l30.1-30.1c8.6-8.6,20.4-10.4,29.4-1.4C249,288.4,247.4,300.7,239.5,308.6z"/>
</g>
<rect id="divider" x="197.5" y="71.1" transform="matrix(0.7071 0.7071 -0.7071 0.7071 207.8046 -86.0717)" fill="#ffffff" width="20.7" height="273.4"/>
</svg>