<?xml version="1.0" encoding="utf-8"?>
<!-- Generator: Adobe Illustrator 22.0.1, SVG Export Plug-In . SVG Version: 6.00 Build 0)  -->
<svg version="1.1" id="svg-logo" xmlns="http://www.w3.org/2000/svg" xmlns:xlink="http://www.w3.org/1999/xlink" x="0px" y="0px"
	 viewBox="0 0 182 110" style="enable-background:new 0 0 182 110;" xml:space="preserve">
<style type="text/css">
	.st0{fill:#FFFFFF;}
</style>
<g id="svg-border">
	<path class="st0" d="M172.4,9.6v90.5H9.4V9.6H172.4 M176.7,5.3H5.1v99.3h171.7V5.3H176.7z"/>
</g>
<g id="svg-type">
	<path class="st0" d="M111.6,75.3h-0.4v3.3h0.4V75.3z M77,75.3h-0.4v3.3H77V75.3z M55.5,77c0,1,0.8,1.7,1.8,1.7
		c0.7,0,1.1-0.2,1.5-0.6l-0.3-0.3c-0.4,0.4-0.8,0.6-1.3,0.6c-0.8,0-1.4-0.5-1.4-1.3c0-0.7,0.6-1.3,1.3-1.3c0.5,0,0.9,0.2,1.3,0.5
		l0.3-0.3c-0.4-0.4-1-0.6-1.6-0.6C56.3,75.3,55.5,76,55.5,77 M38.3,51.6c0,1.6-0.4,2.7-2.3,2.7h-1V44.1h1c1.9,0,2.3,0.7,2.3,2.3
		V51.6z M40,51.6v-5.1c0-2.7-1-3.8-4-3.8h-2.7v23.6H35V55.9h1C39.1,55.9,40,54.2,40,51.6 M43.1,76.3c0,0.4-0.3,0.6-0.6,0.6h-1.4
		v-1.1h1.4c0.2,0,0.3,0,0.4,0.1C43.1,75.9,43.1,76.1,43.1,76.3 M43.2,77c0.2-0.2,0.3-0.5,0.3-0.7c0-0.6-0.4-0.9-1-0.9h-1.8v3.3h0.4
		v-1.4h1.4C42.7,77.2,43,77.2,43.2,77 M50,77.1h-1.2l0.6-1.3L50,77.1z M50.7,78.6h0.4l-1.5-3.3h-0.4l-1.5,3.3h0.4l0.5-1.1h1.5
		L50.7,78.6z M56.9,57.8H54l1.4-12.1L56.9,57.8z M57.9,66.2h1.8l-3.1-23.6h-2.1l-3.1,23.6h1.8l0.8-6.9h3L57.9,66.2z M63.7,78.6h0.4
		v-3.3h-0.4C63.7,75.3,63.7,78.6,63.7,78.6z M69.6,75.7h2.2v-0.4h-2.6v3.3h0.4v-1.5H71v-0.4h-1.4V75.7z M78.8,62.9v-4.6H77V63
		c0,1.2-0.5,2-1.7,2c-1,0-1.7-0.7-1.7-2.1V46.1c0-1.4,0.7-2.1,1.7-2.1c1.1,0,1.7,0.8,1.7,2v4.2h1.8V46c0-2-1.1-3.5-3.4-3.5
		c-2.1,0-3.4,1.4-3.4,3.7v16.5c0,2.3,1.4,3.7,3.4,3.7C77.7,66.4,78.8,64.9,78.8,62.9 M83.8,31.3H85v-0.4h-2.7v0.4h1.2v2.9h0.4
		L83.8,31.3L83.8,31.3z M82.3,77c0-0.7,0.6-1.3,1.3-1.3c0.5,0,0.9,0.2,1.3,0.5l0.3-0.3c-0.4-0.4-1-0.6-1.6-0.6c-1,0-1.7,0.7-1.7,1.7
		s0.8,1.7,1.8,1.7c0.7,0,1.1-0.2,1.5-0.6l-0.3-0.3c-0.4,0.4-0.8,0.6-1.3,0.6C83,78.3,82.3,77.8,82.3,77 M92.2,34.2h0.4v-3.3h-0.4
		v1.4h-2.1v-1.4h-0.4v3.3h0.4v-1.5h2.1V34.2z M92.1,66.2h1.8V42.6h-1.8V66.2z M98.1,76.7H96v-1.4h-0.4v3.3H96v-1.5h2.1v1.5h0.4v-3.3
		h-0.4V76.7z M97.8,34.2h2.7v-0.4h-2.4v-1.1h1.2v-0.4h-1.2v-1h2.3v-0.4h-2.7L97.8,34.2L97.8,34.2z M103.6,78.6h2.7v-0.4H104v-1.1
		h1.2v-0.4H104v-1h2.3v-0.4h-2.7C103.6,75.3,103.6,78.6,103.6,78.6z M109.9,44.1h4.1v-1.5h-5.8v23.6h1.8V54.9h4v-1.5h-4L109.9,44.1
		L109.9,44.1z M119.7,77.7v-0.9h-1.5v0.4h1.1v0.5c0,0.3-0.4,0.5-0.7,0.6c-0.1,0-0.3,0-0.4,0c-0.8,0-1.4-0.5-1.4-1.3s0.6-1.3,1.4-1.3
		c0.5,0,0.8,0.2,1.1,0.5l0.3-0.3c-0.4-0.4-0.8-0.6-1.4-0.6c-1,0-1.8,0.7-1.8,1.7s0.8,1.7,1.8,1.7c0.2,0,0.4,0,0.6-0.1
		C119.3,78.5,119.7,78.2,119.7,77.7 M127,76.7h-2.1v-1.4h-0.4v3.3h0.4v-1.5h2.1v1.5h0.4v-3.3H127V76.7z M126.8,66.2h1.8V42.6h-1.8
		V66.2z M133.7,75.7h1.2v-0.4h-2.7v0.4h1.2v2.9h0.4L133.7,75.7L133.7,75.7z M142.4,77.6c0-0.4-0.2-0.7-0.6-0.8
		c-0.2-0.1-0.4-0.1-0.7-0.1h-0.5c-0.4,0-0.5,0-0.7-0.1c-0.1-0.1-0.2-0.2-0.2-0.3c0-0.5,0.6-0.6,1-0.6c0.5,0,0.8,0.1,1.1,0.4l0.2-0.3
		c-0.4-0.3-0.8-0.5-1.4-0.5c-0.6,0-1.4,0.3-1.4,1c0,0.3,0.1,0.5,0.3,0.6s0.4,0.2,0.8,0.2h0.7c0.3,0,0.7,0.2,0.7,0.6
		c0,0.5-0.7,0.7-1.1,0.7c-0.6,0-0.9-0.2-1.4-0.6l-0.3,0.3c0.5,0.5,0.9,0.7,1.6,0.7C141.5,78.7,142.4,78.4,142.4,77.6 M147.7,58.3V63
		c0,1.2-0.5,2-1.7,2c-1,0-1.7-0.7-1.7-2.1V46.1c0-1.4,0.7-2.1,1.7-2.1c1.1,0,1.7,0.8,1.7,2v4.2h1.8V46c0-2-1.1-3.5-3.4-3.5
		c-2.1,0-3.4,1.4-3.4,3.7v16.5c0,2.3,1.4,3.7,3.4,3.7c2.3,0,3.4-1.6,3.4-3.6v-4.6L147.7,58.3L147.7,58.3z"/>
</g>
</svg>
