<?xml version="1.0" encoding="utf-8"?>
<!-- Generator: Adobe Illustrator 22.0.1, SVG Export Plug-In . SVG Version: 6.00 Build 0)  -->
<svg version="1.1" id="Layer_1" xmlns="http://www.w3.org/2000/svg" xmlns:xlink="http://www.w3.org/1999/xlink" x="0px" y="0px"
	 viewBox="0 0 246 35.1" style="enable-background:new 0 0 246 35.1;" xml:space="preserve">
<path id="a1" d="M157.6,14c-0.1,0.4-0.1,0.9-0.2,1.6c-0.8,0.8-1.5,4.4-2.6,7c-0.4,0.8-0.7,2.2-1,4.1l-0.7,4.2
	c-0.1,0.3-0.1,0.5-0.1,0.8c0,0.4,0,0.8,0.1,1.2c-0.2-0.3-0.5-0.7-1.1-1.2c-1.1-1.1-1.2-1.7-1.2-3.4c0-1.5,0.2-2.4,0.4-3
	c-0.2-0.2-0.3-0.3-0.5-0.3c-0.6,0-1.2,1-4.5,3.8c-0.4,1.1-1.3,1.6-4.7,3.4c-0.7,0.8-1.3,1.2-2.1,1.2c-0.1,0-1.6-0.7-2-2
	c-0.6-1.9-1.9-2.4-1.9-4.4c0-0.6,0.2-1.4,0.5-2.7c0.4-0.2,0.9-0.5,1.4-1.1c0.2-1.3,0.3-1.2,3.2-5.7c1.2-0.9,0.9-1.7,2.9-3.4
	c2.8-3.8,5-6.3,6.8-6.3c0.6,0,1.2,0.4,2.1,1.3c1.2,0,0.7,0.7,3.3,1.4c-0.1-0.1,2.2,0.9,2.2,2.2C158,13,157.6,13.7,157.6,14z
	 M150.9,14c-0.3,0-0.8,0.4-1.6,1c-1.2,0.7-2.6,2.3-6.6,7c-0.4,0.6-3.3,4.8-3.3,5.7c0,0.3,0.1,0.4,0.4,0.4c0.8,0,2.2-1.9,4.4-3.7
	c0.4-0.6,0.9-1,3.6-3.7c0-0.5,1.7-3.2,2.6-3.9c0.6-1.5,1-2.3,1-2.3C151.4,14.2,151.3,14,150.9,14z M151.8,13.8
	c0.1,0.1,0.2,0.2,0.3,0.2c0.1-0.1,0.1-0.2,0.2-0.4C152.2,13.7,151.8,13.8,151.8,13.8z"/>
<path id="s" d="M176.2,11.8c-1.3,1-5.7,3.7-5.7,7.2c0,0.1,0.3,1.5,0.8,4.1l0.8,4.1c0,0.3-0.3,1.1-0.8,2.4c-1.1,3-1.5,2.4-1.8,2.4
	c-1.4,0-2.9,0.1-5.1-0.6c-0.8-1.3-3.1-1-4.2-4.4c-0.2-0.5-0.5-0.7-1.1-0.7s-4.1,3.4-5.7,3.7c0.2-0.6,0.5-1.3,0.9-2.3
	c0.9-1.4,6.2-4,6.6-4.2c2.6-2,5.3-3.8,6.5-6.1c0-0.7,0.1-1.7,0.1-3.2c0-0.4,0.6-1.9,1.7-4.5c0.6-1.4,1-2.7,1-3.7
	c0.6-0.5,1.5-1.2,2.8-2.2c-0.2-0.2,3.6,2.9,4.9,2.9c0.1,0,0.2,0,0.3,0v0.7C178.2,9.1,177.5,10.5,176.2,11.8z M168.8,24.6
	c0-0.9-0.5-2.4-1.4-4.7l-6.9,5.3c0.5,0.4,0.9,0.5,1.3,0.5c0.3,0,1-0.3,1.2-0.3s0.8,0.7,1.1,0.7c0.2,0,0.3-0.2,0.5-0.2
	c0.5,0,3.1,1,3.6,1c0.2,0,0.5-0.2,0.6-0.2L168.8,24.6L168.8,24.6z"/>
<path id="a2" d="M46.3,14c-0.1,0.4-0.1,0.9-0.2,1.6c-0.8,0.8-1.5,4.4-2.6,7c-0.4,0.8-0.7,2.2-1,4.1L41.8,31
	c-0.1,0.3-0.1,0.5-0.1,0.8c0,0.4,0,0.8,0.1,1.2c-0.2-0.3-0.5-0.7-1.1-1.2c-1.1-1.1-1.2-1.7-1.2-3.4c0-1.5,0.2-2.4,0.4-3
	c-0.2-0.2-0.3-0.3-0.5-0.3c-0.6,0-1.2,1-4.5,3.8c-0.4,1.1-1.3,1.6-4.7,3.4c-0.7,0.8-1.3,1.2-2.1,1.2c-0.1,0-1.6-0.7-2-2
	c-0.6-1.9-1.9-2.4-1.9-4.4c0-0.6,0.2-1.4,0.5-2.7c0.4-0.2,0.9-0.5,1.4-1.1c0.2-1.3,0.3-1.2,3.2-5.7c1.2-0.9,0.9-1.7,2.9-3.4
	c2.8-3.8,5-6.3,6.8-6.3c0.6,0,1.2,0.4,2.1,1.3c1.2,0,0.7,0.7,3.3,1.4c-0.1-0.1,2.2,0.9,2.2,2.2C46.7,13,46.3,13.7,46.3,14z M39.6,14
	c-0.3,0-0.8,0.4-1.6,1c-1.2,0.7-2.6,2.3-6.6,7c-0.4,0.6-3.3,4.8-3.3,5.7c0,0.3,0.1,0.4,0.4,0.4c0.8,0,2.2-1.9,4.4-3.7
	c0.4-0.6,0.9-1,3.6-3.7c0-0.5,1.7-3.2,2.6-3.9c0.6-1.5,1-2.3,1-2.3C40.1,14.2,40,14,39.6,14z M40.5,13.8c0.1,0.1,0.2,0.2,0.3,0.2
	c0.1-0.1,0.1-0.2,0.2-0.4C40.9,13.7,40.5,13.8,40.5,13.8z"/>
<path id="y" d="M120.1,4.2l0.7-0.2v0.4l-0.9,1L119.6,6l-1.2,1.3l-0.5,0.6l-8.6,9l-0.3,0.5l-1.1,1.2l-0.4,0.3l-0.6,0.7v0.1l-0.2,0.1
	l-0.4,0.4l-0.7,0.8v0.2l-1.2,3.6l-0.3,0.4l-0.9,3.1v0.4l-0.8,2.3l-0.2,0.3l-0.1,0.6l-0.3,0.6l-0.4,0.7v0.3l-0.3,0.4l-0.6,0.3
	l-1.8-0.1l-1.1-0.6l-0.4-1.3v-1.5l0.6-3.3l0.6-2.3l0.6-1.5l1.3-3.4l0.4-1.3L99,15.6l-0.8-2.2L97.4,12l-0.2-1.4l0.2-2.2l0.5-0.7
	L99,7.1l0.4,0.3l0.1,0.3l0.3-0.3l1,0.6l0.5,0.7l1.2,2.2l0.6,1.3l1.1,2.9l0.3,1.3l0.7-0.6l1-1.3l1.2-1.2l0.2-0.1l0.4-0.5l3.2-2.8
	l3.7-3l1.5-1l1.6-1l0.9-0.2l0.6-0.3L120.1,4.2z"/>
<path id="n1" d="M71.8,6.8l-0.1,0.3c-0.1,0.2-0.3,0.6-0.5,1.2v0.1c0,0-0.1,0.1-0.1,0.2c0,0.1,0.1,0.2,0.1,0.3c0,0.2-0.1,0.5-0.2,1.1
	c-0.6,1.9,0,2.1-2.3,8.4c0,0.1,0.1,0.2,0.1,0.3c-0.2,1-0.8,2.6-0.9,3.4l-0.1,0.6c-0.4,1.3-0.7,2.5-1.7,4.9C66,28.4,65,31.1,64.2,31
	l-0.3,0.1c-0.1,0.1-1,0.3-1.7,0.3l0,0c-0.9,0.6-1.5,1.2-2.4,1c-0.3-0.2-0.6-0.1-1.4-1.5c-1.4-2.3-2.5-4-3.5-7.6l-0.2-0.4L53.9,20
	c-0.1-0.3-0.3-2.1-1.1-2.4c-0.2,0.5-0.6,1.3-1,2.4c-0.2,0.4-0.8,1.6-1.6,3.6v0.2c-0.3,0.5-0.9,1.6-2.1,5.1c-0.5,0.4-0.4,2.1-2.4,3
	l0,0c-0.1,0-0.3,0.4-0.9,0.3l-0.1-0.1l-0.1-0.2c-0.6,0.1-0.7-0.3-0.6-1c0.2,0-0.1-0.9,0.6-2.5c0.8-1.5,0.8-2,1.3-3.4l0.5-1.2
	c0.8-2,1.7-5,3.3-9c0.2-0.6,1.6-5.5,2.9-5.4h0.2c0.1,0,0.2,0,0.3,0c0.9,0.2,0.9,0.4,1.3,1l0.7,1.2c0.2,1,0.1,0.8,1.7,5.6
	c0.1,1.2,0.1-0.5,1.5,5.7c0.2,0.4,0.6,1.1,1,3.3l0.3,0.5c0.1,0.2,0.1,0.4,0.2,0.7c0.3-0.2,0.2-0.1,1.4-0.5l0.4-0.2
	c0.3-0.8,0.1-0.7,1.1-2.7c0.4-0.8,2.4-6.7,3.1-8.8c0.1-0.3,0.9-2.9,3.2-7.9c0.2-1.4,1.5-1.6,2.5-1.7c0.4,0.1,0.4,0.4,0.4,0.7
	C71.9,6.5,71.8,6.6,71.8,6.8z"/>
<path id="n2" d="M96.1,6.2L96,6.5c-0.1,0.2-0.3,0.6-0.5,1.2v0.1c0,0-0.1,0.1-0.1,0.2s0.1,0.2,0.1,0.3c0,0.2-0.1,0.5-0.2,1.1
	c-0.6,1.9,0,2.1-2.3,8.4c0,0.1,0.1,0.2,0.1,0.3c-0.2,1-0.8,2.6-0.9,3.4L92,22.2c-0.4,1.3-0.7,2.5-1.7,4.9c-0.1,0.8-1.1,3.5-1.9,3.4
	l-0.3,0.1c-0.1,0.1-1,0.3-1.7,0.3l0,0c-0.9,0.6-1.5,1.2-2.4,1c-0.3-0.2-0.6-0.1-1.4-1.6c-1.4-2.3-2.5-4-3.5-7.6l-0.2-0.4L78,19.6
	c-0.1-0.3-0.3-2.1-1.1-2.4c-0.2,0.5-0.6,1.3-1,2.4c-0.2,0.4-0.8,1.6-1.6,3.6v0.2c-0.3,0.5-0.9,1.6-2.1,5.1c-0.5,0.4-0.4,2.1-2.4,3
	l0,0c-0.1,0-0.3,0.4-0.9,0.3l-0.1-0.1l-0.1-0.2c-0.3-0.2-0.4-0.6-0.3-1.3c0.2,0-0.1-0.9,0.6-2.5c0.8-1.5,0.8-2,1.3-3.4l0.5-1.2
	c0.8-2,1.7-5,3.3-9c0.2-0.6,1.6-5.5,2.9-5.4h0.2c0.1,0,0.2,0,0.3,0c0.9,0.2,0.9,0.4,1.3,1l0.7,1.2c0.2,1,0.1,0.8,1.7,5.6
	c0.1,1.2,0.1-0.5,1.5,5.7c0.2,0.4,0.6,1.1,1,3.3L84,26c0.1,0.2,0.1,0.4,0.2,0.7c0.3-0.2,0.2-0.1,1.4-0.5L86,26
	c0.3-0.8,0.1-0.7,1.1-2.7c0.4-0.8,2.4-6.7,3.1-8.8c0.1-0.3,0.9-2.9,3.2-7.9c0.2-1.4,1.5-1.6,2.5-1.7c0.4,0.1,0.4,0.4,0.4,0.7
	C96.2,5.9,96.2,6,96.1,6.2z"/>
<path id="d" d="M25.2,20.5l0.1,0.1c-0.1,0.7-1,2.9-3.6,5c-1.8,2.3-4.5,3.4-7,5.1c-0.5,0-0.9,0.5-3.2,1.4l-0.2,0.1
	c-0.8,0.1-1.4,0.4-2.9,0.9c0,0-1.6-0.2-1.7,0.1H6.2c-0.3,0.1-0.7,0.1-1.2,0.1c0,0-0.2-0.4-0.7-0.6c-0.1,0-0.1,0-0.2,0l-0.2-0.1
	c-0.1,0-0.2,0-0.3,0c0-0.1-0.1-0.1-0.1-0.1c-0.1,0-0.2,0.1-0.2,0.1c-0.1,0-0.2-0.1-0.3-0.4v0.1H2.9c-0.1,0-0.1,0-0.1,0
	c-0.1-0.1-0.3-0.3-0.3-0.6H2.4c0,0,0.1,0,0,0.1H2.2c0-0.1-0.2-0.2-0.2-0.2c0-0.1-0.2,0-0.3,0l-0.1,0.1L1,31.6v-0.1
	c-0.1,0-0.2,0-0.2,0c-0.1-0.1-0.1-0.4-0.1-0.7c0.1,0,0.1-0.2,0.2-0.3l0.2-0.4c0.3-0.5,0.8-1.1,1.2-1.8l0.5-2.7c0,0,0-0.2,0.2-0.7
	l0.2-0.8c0.7-2.2,1-2.9,2.9-9.1l0.2-0.1l0.6-1.5c-0.6,0.8,1.3-3.5,1.4-3.5l0.2-0.4c0.1-0.6,0.6-1.4,0.8-2.3c0.6-3.1,1.6-2.5,2-2.7
	c0-0.1,1.8-1.4,2.8-1.2c0.2,0,0.4,0.1,0.6,0.2c0.5,0,0.8,0,1.7-0.2c0,0,0.2,0,0.2,0.1c0.1,0,0.1-0.1,0.2-0.1c0,0,0.5,0.5,2.3,1.4
	c0.9,0.4,0.5-0.2,4,3.3c0.4,0.6,1.2,0.8,2,3.3c0.1,1.1,0-0.9,0.9,3c0,0.6,0.5,1.9,0.1,3.9C25.9,19,25.7,19.7,25.2,20.5z M21.9,18.2
	c0.1-0.5,0.1-1,0.1-1.3s0-1.4-1-4.2l-0.8-1.2c-1.2-1.5-2.5-1.9-5-3.1c0.2,0-2.1,0.6-2.2,1.2c-0.1,0.1-0.1,0.4-0.1,0.7
	c-0.3,0.6-0.5,1.5-0.8,2.3L12,13.1c-0.3,0.4-0.6,1.6-1.3,3.8l-0.1,0.2l-0.3,1c-0.1,0.4-0.4,1.2-0.8,2.3c-0.4,1.5-1.1,2-2,5.9
	l-0.1,0.3L7,27.4c0,0.2-0.2,0.5-0.2,0.6c0,0.3-0.1,0.8-0.1,1.3c3.9-0.9,1,0.2,7.3-2.5c4.4-2.4,6.7-4.3,7.7-7.7
	C21.7,18.8,21.8,18.5,21.9,18.2z"/>
<path id="c" d="M142.1,9.7l-0.4-0.2v0.8h-0.1v0.4l-0.5-0.5v0.3L140,9.9c0,0-0.1,0-0.2,0l0,0h-0.2c-0.2,0.1-0.5,0.1-0.5,0.1h-0.3
	l-0.3-0.2c0,0-0.2-0.2-0.4-0.5L138,9.1L137.9,9h-0.1h-0.1l-0.2,0.2v0.1h-0.4l0,0c-0.1,0-0.1,0-0.1,0.1c-0.2,0.1-0.5,0.2-1,0.4
	l-0.7,0.5l-0.8,0.5c-0.5,0.5-1.1,1.1-1.5,1.5l-0.8,0.8l-1.2,1.5l-0.7,1.6l-1,1.7l-0.4,0.4l-0.5,1.4l-0.5,0.8l-0.6,1.3l-0.6,1.7
	l-0.5,1.4l-0.3,1.8V28l0.2,1l0.6,0.8l0.9,0.5l1,0.1h1.3l3.1-0.5l0.2,0.2h0.2l-0.1,0.2l0.3,0.1l-0.1,0.1l0.1,0.2h-0.2l-0.1,0.2h0.2
	l0.1,0.3h-0.2l-0.4,0.2l-1.5,0.7h-0.1l-1.5,0.6l-3.6,0.3l-1.8-0.4l-1.5-0.7l-1.2-0.9l-0.8-1l-0.8-1.8l-0.2-1.4l0.1-1.7l0.2-0.5v-0.5
	l0.1-0.2l0.1-1l0.3-0.6l0.4-1.3l1.5-3.4l0.1-0.1l0.4-0.6v-0.2l0.5-0.7c0.1-0.1,0.2-0.2,0.2-0.3c0.5-1.2,1.1-1.8,1.7-2.5l0.5-0.7
	l0.4-0.5v-0.1l1.6-1.9l0.3-0.1V9.6l1.4-1.7l0.6-0.4l0.3-0.3l1.2-1.4h0.2l0.1-0.2l0.8-0.5l0.4-0.4l0.3-0.1v0.1
	c0.1-0.1,0.2-0.1,0.2-0.1h-0.1l1.2-0.5l2.5-0.4h0.5l0.6,0.2l0.6,0.3l0.2,0.2l0,0c0,0,0,0.1,0.1,0.1c0,0,0.1,0.1,0.2,0.1l0.5,0.2
	l0.3,0.1l0,0l0.3,0.3l0.3,0.4l0.2,0.4l0.4,0.7l-0.1,0.1l0.1,0.4L142.1,9.7z"/>
<path id="t" d="M193.8,12.8c0,0.1,0.2,0.2,0.4,0.2h0.3c0.1,0,0.2,0,0.3,0c-0.2,0.5-2.4,1.3-2.6,1.4c-0.4,0-0.2,0.7-1.9,1.1
	c-0.2,0.6-2,0.4-4.9,2c-0.4,1-0.6,1.5-1.9,4c0,0.3-0.2,0.9-0.7,1.7l-0.3,0.9c0,0.1,0,0.4-0.1,0.6c-0.4,0.7-1.3,3.2-1.6,3.4
	c-0.2,0.5-0.4,0.9-0.4,1.3c0,0.3,0,0.6,0,0.7s0,0.3,0,0.4c-0.2,0.2-0.7,2.6-1.9,3.9c-0.1-1-0.2-1.9-0.2-2.9c0-0.3,0.1-0.8,0.2-1.4
	c-0.1-0.1-0.2-0.2-0.3-0.5c0-0.4,0.2-1.2,0.2-1.6c0-0.1-0.1-0.2-0.1-0.4c0-0.3,0.2-3.7,1.8-7.1c0-0.3,0.3-1.3,1.2-3.1
	c0-0.4-1.1-1.4-3.3-4.1c0.5-0.2,0.5-0.4,1.2-0.4c0.8,0,2,0,3.7,0.2c0.3-0.3,0.4-0.6,1.1-2c0-0.8,0.5-1.2,1.6-4.9
	c0.6-0.6,1-2.5,1.4-4.3h0.4l0,0c0.2,0,1.3-1.1,1.7-0.8c0.2,0,1.2,0.6,1.3,0.6c0.3,0,0.8,1.2,1,1.4l-0.3,0.5c0,0.3-0.2,0.7-0.4,1.2
	c-1.3,2.5-1.9,4.7-3,7.3l0,0c0,0,0.1,0.1,0.2,0.4c0.6,0.1,1.3,0.1,1.9,0.1c2,0,2.9-0.2,5.7-1h0.3C195.5,11.9,194,12.6,193.8,12.8z"
	/>
<path id="i" d="M199.9,18.2c0,2-0.7,2.4-2.4,5.1c-0.9,3.4-0.2,2.3-3.9,9.4c-1.5,0-2.8-3-3.1-5.1c-0.1-0.6-0.8-0.5-0.8-1.9
	c0-1.3,0.9-1,1.3-3.1c0.7-2.2,0.6-2.1,3-4.5c0.3-0.3,0.4-0.6,0.5-1.1c1-0.7,1.7-1,2-1c0.2,0,0.9,0.3,3.4,1.7
	C199.9,17.8,199.9,18,199.9,18.2z M205.4,7.6c-1.2,1.1-2,1.6-2.4,1.6c-0.9,0-2.3-3.6-2.3-4.9c0-1,0.6-3.4,1.2-3.4
	c0.6,0,3.5,3,3.6,3.5c0.1,0.4,0.7,1.4,0.7,1.8C206.1,6.4,205.4,7.4,205.4,7.6z"/>
<path id="l1" d="M213.7,0.7l0.7,0.3l0.4,0.6l0.2,1.2l-0.2,2.6l-0.7,1.5l-0.7,1.5l-1.8,5.3l-1.7,4.6l-0.4,1.5l-0.4,0.8l-0.2,0.9
	l-0.4,0.8l-0.2,0.9l-0.5,3.1l-0.4,1.5l-0.3,1.7l-0.7,1.8l-0.7,0.7l-0.8,0.5l-0.6-0.3l-0.2-2.3l0.1-0.3l-0.1-0.4v-1.5l0.1-1.2
	l-0.1-0.3l-0.1-2.5l0.1-1.8l0.3-1.4l0.4-2l0.4-1.1L206,14l0.3-0.6l0.6-1.9l0.9-2.7l0.1-0.7l0.5-0.7l0.5-1.1l0.7-1.1l0.1-0.4l1.1-1.8
	l0.3-0.2l0.5-0.9l1-0.9L213.7,0.7L213.7,0.7L213.7,0.7z"/>
<path id="l2" d="M223.8,0.7l0.7,0.3l0.4,0.6l0.2,1.2L225,5.3l-0.7,1.5l-0.7,1.5l-1.8,5.3l-1.7,4.6l-0.4,1.5l-0.4,0.8l-0.2,0.9
	l-0.4,0.8l-0.2,0.9l-0.5,3.1l-0.4,1.5l-0.3,1.7l-0.7,1.8l-0.7,0.7l-0.8,0.5l-0.6-0.3l-0.2-2.3l0.1-0.3l-0.1-0.4v-1.5l0.1-1.2
	l-0.1-0.3l-0.1-2.5l0.1-1.8l0.3-1.4l0.4-2l0.4-1.1l0.7-3.1l0.3-0.6l0.6-1.9l0.9-2.7l0.1-0.7l0.5-0.7l0.5-1.1l0.7-1.1l0.1-0.4
	l1.1-1.8l0.3-0.2l0.5-0.9l1-0.9l1.1-0.4l0,0L223.8,0.7L223.8,0.7z"/>
<path id="o" d="M244,22.1c-0.9,4-3.1,5.7-10.5,9.4c-0.1,0.1-0.6,0.1-1.4,0.2c-1,1.1-2.3,1.7-4.1,1.7c-0.9,0-1.4-0.1-1.6-0.3
	l-1.9-1.6c-0.1,0-0.1,0-0.2,0c-2.1,0-2-3.3-2.2-3.7c0.2-0.3,0.3-0.5,0.3-0.6c0-0.2-0.3-0.5-0.3-0.7c0-0.6,0.3-2.2,0.3-2.8
	c0.3-0.1,1.3-0.4,1.3-1.1c0-0.2-0.3-1.1-0.3-1.3c1.3-1.1,1.3-1.6,3.1-4.4c0.8-1.3,7.5-7.9,8.2-7.9c0.2,0,0.7,0.2,0.9,0.2
	c0.3,0,0.7-0.5,1.4-1.4c0.2,0.1,0.5,0.4,1.1,0.8l1.5,0.4c0.4,0.2,1,0.5,1.8,0.8c3.4,0,3.8,4.1,3.8,7.6
	C245.2,19.1,244.8,20.7,244,22.1z M239.5,16.2c-0.2-0.1-0.4-0.2-0.6-0.4c0.1-0.2,0.2-0.3,0.2-0.6c0-0.6-0.4-1.6-1-1.6
	c-0.5,0-1.5,0.7-3.2,2.2c-4,3.5-5.6,5.9-7.5,8.2c-0.2,0.2-1.1,2.8-1.1,3.2c0,0.6,0.8,1.4,1.3,1.4c1.9,0,4-0.8,6.4-2.4
	c0.6-0.2,1.2-0.4,1.9-0.8c0.3-0.3,0.8-1.2,1.6-2.8c0.2-0.4,0.8-3.6,1.3-3.9c0-1.2,0.2-1.8,0.6-1.9v-0.6
	C239.4,16.2,239.5,16.2,239.5,16.2z"/>
</svg>
